<svg width="194" height="29" viewBox="0 0 194 29" fill="none" xmlns="http://www.w3.org/2000/svg">
<path d="M74.6569 0.51078C74.7702 0.510219 74.8834 0.509658 75.0001 0.509079C75.3779 0.507419 75.7556 0.506656 76.1334 0.506034C76.397 0.505384 76.6605 0.504733 76.9241 0.504082C77.4794 0.502891 78.0347 0.502233 78.5901 0.50184C79.2944 0.501227 79.9987 0.498527 80.7031 0.495289C81.2493 0.493159 81.7956 0.492594 82.3419 0.492423C82.601 0.492085 82.8601 0.491193 83.1192 0.489689C86.5767 0.471095 90.5024 0.713944 93.1967 3.12823C93.2906 3.20908 93.3845 3.28993 93.4813 3.37323C94.9953 4.75644 95.7822 6.61254 95.8626 8.64234C95.9324 11.9621 95.0347 14.7475 92.698 17.1914C89.7469 19.9958 85.6436 20.8389 81.673 20.9066C81.4964 20.9101 81.4964 20.9101 81.3162 20.9137C80.9458 20.921 80.5754 20.9277 80.205 20.9344C79.9515 20.9393 79.698 20.9442 79.4445 20.9492C78.8281 20.9612 78.2116 20.9727 77.5951 20.9839C77.571 21.074 77.5468 21.1641 77.5219 21.2569C77.2943 22.1051 77.0664 22.9532 76.8383 23.8012C76.721 24.2372 76.6038 24.6733 76.4868 25.1094C76.374 25.53 76.2609 25.9506 76.1476 26.3711C76.1044 26.5318 76.0613 26.6925 76.0182 26.8532C75.9581 27.0778 75.8976 27.3024 75.837 27.5269C75.8026 27.6549 75.7682 27.7829 75.7328 27.9148C75.6449 28.2165 75.6449 28.2165 75.5302 28.4425C72.3881 28.4425 69.246 28.4425 66.0087 28.4425C66.1377 27.4255 66.1377 27.4255 66.2399 27.0536C66.2628 26.9688 66.2858 26.884 66.3095 26.7967C66.3344 26.707 66.3594 26.6173 66.3851 26.5248C66.4116 26.4277 66.4381 26.3305 66.4655 26.2303C66.553 25.9102 66.6413 25.5902 66.7297 25.2703C66.7917 25.0441 66.8536 24.8179 66.9155 24.5916C67.0789 23.9949 67.243 23.3984 67.4072 22.802C67.603 22.0905 67.798 21.3789 67.993 20.6672C68.1505 20.0926 68.3083 19.518 68.4669 18.9436C68.7424 17.9448 69.0151 16.9457 69.2727 15.9422C69.3146 15.7807 69.3565 15.6192 69.3985 15.4577C69.4737 15.1682 69.5465 14.8785 69.618 14.588C69.6502 14.4638 69.6825 14.3396 69.7157 14.2117C69.7423 14.1053 69.7689 13.9989 69.7963 13.8892C69.9391 13.5713 70.0443 13.5371 70.3679 13.4122C70.6242 13.3853 70.6242 13.3853 70.9088 13.3873C71.0713 13.3875 71.0713 13.3875 71.2371 13.3878C71.4143 13.3898 71.4143 13.3898 71.595 13.3919C71.7201 13.3924 71.8451 13.3929 71.974 13.3934C72.2457 13.3947 72.5175 13.3964 72.7893 13.3986C73.2206 13.402 73.6519 13.4039 74.0832 13.4054C75.1554 13.4093 76.2276 13.4152 77.2998 13.4223C78.2043 13.4283 79.1088 13.4329 80.0132 13.4355C80.2982 13.4367 80.5831 13.4386 80.868 13.4411C84.0738 13.4927 84.0738 13.4927 86.8263 12.0181C87.3898 11.4149 87.7976 10.697 87.8086 9.86206C87.7699 9.23199 87.6633 8.69591 87.2314 8.21369C85.503 6.77053 82.6294 7.17732 80.5164 7.16084C80.262 7.15851 80.0076 7.15614 79.7532 7.15373C79.0903 7.14755 78.4274 7.14194 77.7645 7.13645C77.0854 7.13073 76.4063 7.12446 75.7272 7.11824C74.3996 7.10617 73.0721 7.09468 71.7445 7.08359C71.8841 6.54742 72.0238 6.01128 72.1636 5.47515C72.211 5.29346 72.2583 5.11175 72.3056 4.93004C72.5911 3.83353 72.8794 2.73797 73.1785 1.64497C73.22 1.49244 73.22 1.49244 73.2624 1.33684C73.5209 0.405341 73.7313 0.511862 74.6569 0.51078Z" fill="white"/>
<path d="M40.7696 15.5591C40.9921 15.8879 41.0397 16.0201 41.0963 16.3949C41.112 16.4965 41.1278 16.598 41.144 16.7027C41.1604 16.8138 41.1767 16.9249 41.1935 17.0394C41.2115 17.1567 41.2294 17.274 41.2479 17.3948C41.3071 17.7832 41.365 18.1718 41.4229 18.5605C41.4637 18.83 41.5045 19.0996 41.5454 19.3691C41.631 19.9344 41.716 20.4997 41.8005 21.0652C41.909 21.7905 42.0185 22.5157 42.1284 23.2408C42.2127 23.7975 42.2967 24.3543 42.3805 24.9111C42.4208 25.1786 42.4612 25.446 42.5016 25.7134C42.5579 26.087 42.6138 26.4606 42.6696 26.8343C42.6948 27.0006 42.6948 27.0006 42.7205 27.1704C42.7357 27.2722 42.7508 27.3741 42.7663 27.4791C42.7862 27.6116 42.7862 27.6116 42.8065 27.7467C42.8345 27.9902 42.8345 27.9902 42.8345 28.4423C39.4652 28.4423 36.096 28.4423 32.6246 28.4423C32.4353 26.8386 32.246 25.235 32.051 23.5828C29.0982 23.5828 26.1454 23.5828 23.1031 23.5828C23.0273 23.7693 22.9516 23.9558 22.8736 24.1479C22.7131 24.3996 22.5497 24.6448 22.3789 24.8895C22.2764 25.0385 22.1741 25.1875 22.0719 25.3367C22.0168 25.417 21.9617 25.4974 21.905 25.5802C21.5727 26.0695 21.2484 26.5639 20.9234 27.0579C20.7968 27.2504 20.6701 27.4428 20.5434 27.6353C20.4894 27.7174 20.4355 27.7996 20.3799 27.8842C20.2564 28.071 20.1312 28.2568 20.0057 28.4423C19.6695 28.4746 19.3577 28.485 19.0213 28.4808C18.8686 28.4808 18.8686 28.4808 18.7127 28.4809C18.375 28.4807 18.0374 28.478 17.6997 28.4754C17.466 28.4747 17.2322 28.4743 16.9985 28.4739C16.3825 28.4726 15.7666 28.4693 15.1507 28.4655C14.5225 28.4621 13.8942 28.4605 13.266 28.4588C12.0328 28.4552 10.7996 28.4494 9.56639 28.4423C9.72162 28.0469 9.88684 27.7208 10.1373 27.3753C10.2379 27.2354 10.2379 27.2354 10.3406 27.0926C10.4116 26.9949 10.4826 26.8972 10.5558 26.7966C10.7017 26.5937 10.8475 26.3908 10.9932 26.1878C11.0636 26.0898 11.134 25.9919 11.2065 25.891C11.5888 25.3549 11.9544 24.8083 12.3196 24.2609C12.471 24.0371 12.6225 23.8134 12.7785 23.5828C8.61423 23.5828 4.44998 23.5828 0.159546 23.5828C0.159546 23.5082 0.159546 23.4336 0.159546 23.3568C5.53175 21.8081 10.961 20.4844 16.4494 19.4014C16.6369 19.3643 16.6369 19.3643 16.8281 19.3265C22.2949 18.2453 27.7813 17.3307 33.2986 16.5409C33.3809 16.5291 33.4632 16.5172 33.548 16.5051C35.9517 16.1605 38.3582 15.8475 40.7696 15.5591Z" fill="white"/>
<path d="M45.4705 0.528809C54.064 0.528809 62.6575 0.528809 71.5114 0.528809C71.3564 1.36874 71.1876 2.17727 70.9624 2.99782C70.9325 3.1084 70.9025 3.21898 70.8717 3.33292C70.8089 3.56402 70.746 3.79506 70.6828 4.02603C70.5858 4.3807 70.4896 4.73558 70.3936 5.0905C70.3323 5.31587 70.271 5.54123 70.2096 5.76657C70.1808 5.87275 70.152 5.97892 70.1223 6.08831C70.0955 6.18609 70.0687 6.28388 70.0411 6.38463C70.0176 6.47072 69.9941 6.55681 69.9699 6.64551C69.9053 6.85739 69.9053 6.85739 69.7906 7.08341C69.6968 7.08782 69.6029 7.09223 69.5062 7.09677C61.953 7.45313 54.4338 7.95782 46.9125 8.73631C46.2311 8.80662 45.5495 8.87593 44.8679 8.94529C44.5094 8.98179 44.1508 9.01833 43.7922 9.05486C43.5869 9.07577 43.3815 9.09668 43.1761 9.1176C43.2518 8.24797 43.4879 7.42736 43.7206 6.58767C43.7637 6.4307 43.8067 6.27372 43.8496 6.11673C43.9394 5.78922 44.0296 5.46182 44.1201 5.13451C44.2359 4.71594 44.3507 4.29716 44.4653 3.87829C44.5539 3.55469 44.6429 3.23119 44.732 2.90772C44.7744 2.75333 44.8168 2.59893 44.8591 2.4445C44.9184 2.22865 44.9781 2.01293 45.0378 1.79722C45.0716 1.67473 45.1054 1.55223 45.1402 1.42602C45.2328 1.12123 45.3506 0.824184 45.4705 0.528809Z" fill="white"/>
<path d="M31.0836 0.363302C31.3005 0.366469 31.5175 0.368879 31.7345 0.370571C32.3025 0.377008 32.8697 0.393623 33.4375 0.412448C34.018 0.429868 34.5986 0.437547 35.1793 0.446073C36.3164 0.464191 37.4529 0.493075 38.5895 0.528845C38.8143 1.67654 39.0182 2.82465 39.1931 3.98096C39.2155 4.12783 39.238 4.2747 39.2611 4.42603C39.3078 4.73251 39.3544 5.03903 39.4007 5.34558C39.46 5.73777 39.52 6.12987 39.5801 6.52194C39.6378 6.89918 39.6951 7.27649 39.7523 7.6538C39.7738 7.79411 39.7954 7.93442 39.8175 8.07898C39.8371 8.20887 39.8566 8.33875 39.8768 8.47257C39.8941 8.58657 39.9114 8.70057 39.9292 8.81802C39.9661 9.11763 39.9661 9.11763 39.9661 9.56967C39.8903 9.57991 39.8146 9.59014 39.7365 9.60068C33.9202 10.3878 28.1288 11.2753 22.376 12.4397C22.2718 12.4605 22.1677 12.4813 22.0604 12.5027C21.8674 12.5412 21.6746 12.5805 21.482 12.6205C20.847 12.7467 20.847 12.7467 20.4641 12.621C21.4823 11.1439 22.5008 9.6671 23.5296 8.19716C23.7891 7.82615 24.0481 7.45477 24.3071 7.08345C24.6198 6.63532 24.9326 6.18722 25.2455 5.73924C25.5639 5.28338 25.882 4.82733 26.2 4.3712C26.2901 4.24195 26.2901 4.24195 26.3821 4.11008C26.5725 3.83699 26.7627 3.56378 26.9528 3.29054C27.0094 3.20935 27.0661 3.12816 27.1244 3.04451C27.1815 2.9624 27.2386 2.88028 27.2974 2.79567C27.3565 2.71422 27.4157 2.63277 27.4766 2.54884C27.6413 2.29968 27.7714 2.06868 27.9018 1.80318C28.671 0.33705 29.5046 0.295328 31.0836 0.363302Z" fill="white"/>
<path d="M59.6982 13.864C59.3766 15.2494 59.0203 16.6232 58.6455 17.9955C58.5889 18.2036 58.5324 18.4117 58.4758 18.6198C58.328 19.1637 58.1798 19.7074 58.0315 20.2511C57.8831 20.7956 57.735 21.3402 57.5869 21.8848C56.9921 24.0711 56.3951 26.2567 55.7978 28.4423C52.6178 28.4423 49.4378 28.4423 46.1615 28.4423C46.6887 26.2352 46.6887 26.2352 46.8932 25.4918C46.9168 25.4052 46.9404 25.3185 46.9647 25.2292C47.0405 24.9506 47.1168 24.6722 47.1931 24.3938C47.2474 24.1947 47.3016 23.9957 47.3559 23.7966C47.4976 23.2771 47.6396 22.7577 47.7817 22.2384C47.9524 21.614 48.1227 20.9894 48.293 20.3649C48.4293 19.865 48.566 19.3652 48.7035 18.8656C48.9276 18.0504 49.1507 17.2353 49.3612 16.4166C49.3921 16.2982 49.423 16.1799 49.4549 16.0579C49.509 15.8504 49.5616 15.6424 49.6124 15.4341C49.778 14.8048 49.778 14.8048 50.0301 14.6347C50.342 14.5241 50.6192 14.4924 50.9498 14.4663C51.0824 14.4554 51.215 14.4444 51.3516 14.4332C51.4947 14.4223 51.6379 14.4115 51.7853 14.4003C51.9337 14.3884 52.082 14.3764 52.2348 14.3641C52.6298 14.3323 53.0249 14.3016 53.4199 14.2712C53.8163 14.2404 54.2126 14.2085 54.6089 14.1767C55.464 14.1085 56.3191 14.0415 57.1744 13.977C57.3859 13.9607 57.3859 13.9607 57.6018 13.944C57.7407 13.9336 57.8797 13.9232 58.0229 13.9126C58.2083 13.8985 58.2083 13.8985 58.3974 13.8842C58.8322 13.8612 59.2628 13.8608 59.6982 13.864Z" fill="white"/>
<path d="M84.1329 25.9563C84.4621 26.159 84.6481 26.2933 84.8212 26.6343C84.8404 26.863 84.8404 26.863 84.8427 27.1287C84.8443 27.2158 84.8459 27.303 84.8476 27.3927C84.818 27.6827 84.7493 27.8578 84.5917 28.1034C84.2046 28.3668 83.9018 28.4728 83.4374 28.4425C83.097 28.3801 82.9441 28.303 82.6415 28.1105C82.3172 27.6212 82.3068 27.2035 82.4121 26.6343C82.8519 25.9266 83.3347 25.8544 84.1329 25.9563ZM82.9427 26.4154C82.6607 26.7465 82.6415 26.9983 82.6415 27.4254C82.7954 27.7655 82.7954 27.7655 83.1004 27.9904C83.4911 28.1315 83.4911 28.1315 83.9034 28.1034C84.2646 27.9024 84.4306 27.7601 84.5917 27.383C84.5917 26.9838 84.4574 26.7452 84.2476 26.4083C83.8225 26.1989 83.3709 26.2266 82.9427 26.4154Z" fill="white"/>
<path d="M83.1046 26.5212C83.8104 26.5102 83.8104 26.5102 84.0224 26.5212C84.1371 26.6342 84.1371 26.6342 84.1442 26.9026C84.1419 27.0005 84.1395 27.0984 84.1371 27.1993C84.1371 27.3112 84.1371 27.423 84.1371 27.5383C84.1371 27.6502 84.1371 27.7621 84.1371 27.8773C84.0235 27.8773 83.9099 27.8773 83.7929 27.8773C83.7172 27.7655 83.6415 27.6536 83.5635 27.5383C83.5256 27.6502 83.4878 27.7621 83.4488 27.8773C83.3352 27.8773 83.2216 27.8773 83.1046 27.8773C83.1046 27.4298 83.1046 26.9823 83.1046 26.5212ZM83.4488 26.7472C83.4488 26.8591 83.4488 26.971 83.4488 27.0863C83.5623 27.0863 83.6759 27.0863 83.7929 27.0863C83.7551 26.9744 83.7172 26.8625 83.6782 26.7472C83.6025 26.7472 83.5268 26.7472 83.4488 26.7472Z" fill="white"/>
<g clip-path="url(#clip0_741_4023)">
<path d="M116 -0.00025589C118.394 -0.000255898 120.787 -0.000255905 123.252 -0.000255912C123.272 7.20753 123.292 14.4153 123.313 21.8415C123.816 20.1859 124.318 18.5304 124.836 16.8246C125.324 15.2645 125.324 15.2645 125.552 14.5382C125.874 13.5097 126.185 12.4776 126.497 11.446C127 9.78545 127.505 8.12538 128.017 6.46749C128.077 6.27237 128.137 6.07722 128.197 5.88203C128.267 5.65357 128.338 5.4252 128.408 5.1969C128.434 5.11442 128.459 5.03191 128.485 4.94936C128.62 4.50853 128.764 4.07203 128.923 3.63935C128.938 3.5996 128.952 3.55985 128.967 3.51889C129.486 2.13248 130.648 1.04344 131.966 0.428014C135.215 -0.932304 140.5 -0.000255965 142.813 -0.000255972C142.833 7.24791 142.853 14.4961 142.874 21.9639C143.838 18.8708 143.838 18.8708 144.784 15.7723C144.927 15.2986 145.071 14.8252 145.214 14.3518C145.231 14.2981 145.247 14.2445 145.264 14.1892C145.662 12.8764 146.067 11.5658 146.473 10.2553C146.508 10.1408 146.544 10.0263 146.579 9.91182C146.699 9.52458 146.819 9.13735 146.939 8.75012C147.217 7.85398 147.493 6.95754 147.768 6.06053C147.795 5.97203 147.795 5.97203 147.823 5.88174C148.064 5.09305 148.304 4.30391 148.544 3.51467C148.591 3.3608 148.638 3.20693 148.684 3.05307C148.716 2.95058 148.747 2.84809 148.778 2.7456C148.793 2.69486 148.809 2.64412 148.825 2.59184C148.917 2.28889 149.009 1.98591 149.1 1.6829C149.157 1.49493 149.215 1.30699 149.272 1.11905C149.298 1.03073 149.325 0.9424 149.352 0.854055C149.389 0.732634 149.426 0.611254 149.463 0.489883C149.494 0.387301 149.494 0.387301 149.525 0.282647C149.577 0.122107 149.577 0.122107 149.638 -0.000255992C152.152 -0.000256 154.665 -0.000256008 157.255 -0.000256015C157.178 0.346673 157.101 0.673816 156.999 1.01128C156.986 1.0541 156.973 1.09691 156.96 1.14102C156.917 1.28205 156.874 1.42299 156.831 1.56393C156.8 1.66481 156.77 1.76569 156.739 1.86657C156.657 2.13753 156.574 2.4084 156.492 2.67925C156.44 2.84955 156.388 3.01988 156.336 3.19021C155.884 4.67578 155.428 6.15973 154.964 7.64166C154.52 9.05991 154.087 10.481 153.656 11.9034C153.073 13.8291 152.482 15.7523 151.887 17.6742C151.802 17.9496 151.716 18.225 151.631 18.5004C151.614 18.5547 151.597 18.6091 151.58 18.665C151.32 19.5051 151.062 20.3457 150.804 21.1867C150.787 21.2419 150.77 21.2971 150.753 21.354C150.591 21.8828 150.429 22.4117 150.268 22.9406C150.21 23.1318 150.151 23.3229 150.093 23.5141C150.066 23.6013 150.039 23.6886 150.013 23.7758C149.879 24.2141 149.744 24.6515 149.602 25.0871C149.578 25.159 149.555 25.2309 149.531 25.305C149.015 26.7193 147.895 27.8586 146.553 28.5026C143.227 29.9046 138.323 28.9997 135.561 28.9997C135.541 21.792 135.521 14.5842 135.5 7.15797C134.605 10.0617 133.711 12.9654 132.821 15.8708C132.567 16.6999 132.313 17.5289 132.058 18.3578C132.041 18.4113 132.025 18.4649 132.008 18.5201C131.844 19.0529 131.68 19.5857 131.516 20.1184C131.438 20.373 131.359 20.6276 131.281 20.8822C131.266 20.9314 131.25 20.9807 131.235 21.0314C131.056 21.612 130.879 22.193 130.704 22.7749C130.616 23.0699 130.527 23.3647 130.438 23.6595C130.381 23.8516 130.324 24.0439 130.267 24.2362C129.72 26.0655 128.805 27.4949 127.094 28.4243C123.86 29.9771 118.337 28.9997 116 28.9997C116 19.4297 116 9.85974 116 -0.00025589Z" fill="white"/>
<path d="M194.006 -0.000114335C194.006 9.56989 194.006 19.1399 194.006 28.9999C191.613 28.9999 189.22 28.9999 186.754 28.9999C186.614 28.5355 186.473 28.0712 186.328 27.5927C186.173 27.2187 186.018 26.8536 185.84 26.4914C185.821 26.4511 185.801 26.4108 185.781 26.3692C185.336 25.4599 184.741 24.6773 184.073 23.9218C184.038 23.8818 184.002 23.8419 183.966 23.8007C183.419 23.2194 182.728 22.7619 182.062 22.3311C181.643 23.546 181.279 24.7782 180.907 26.0084C180.769 26.4666 180.63 26.9247 180.491 27.3828C180.443 27.5416 180.395 27.7004 180.347 27.8593C180.318 27.9565 180.289 28.0537 180.259 28.151C180.246 28.1946 180.233 28.2381 180.219 28.283C180.147 28.5234 180.07 28.7614 179.99 28.9999C177.477 28.9999 174.963 28.9999 172.373 28.9999C172.418 28.6869 172.473 28.4118 172.567 28.1143C172.581 28.0704 172.594 28.0266 172.608 27.9813C172.653 27.8359 172.698 27.6907 172.744 27.5454C172.776 27.4418 172.808 27.3381 172.84 27.2345C172.908 27.0132 172.977 26.7919 173.046 26.5707C173.155 26.22 173.264 25.8692 173.372 25.5183C173.483 25.1617 173.593 24.805 173.704 24.4484C174.003 23.4828 174.3 22.5166 174.596 21.5499C174.706 21.1898 174.816 20.8298 174.926 20.4699C174.939 20.4296 174.951 20.3893 174.964 20.3478C175.174 19.6598 175.386 18.9721 175.598 18.2845C175.725 17.8706 175.852 17.4567 175.98 17.0427C175.996 16.9909 176.012 16.939 176.028 16.8856C176.5 15.3547 176.967 13.8226 177.431 12.2896C177.96 10.5442 178.492 8.80011 179.033 7.05831C179.079 6.90851 179.126 6.7587 179.172 6.60888C179.449 5.71548 179.726 4.82239 180.018 3.93366C180.037 3.8757 180.055 3.81774 180.075 3.75802C180.545 2.33855 181.605 1.23988 182.909 0.549085C186.098 -1.05041 192.02 -0.000114329 194.006 -0.000114335ZM186.693 6.97457C185.802 9.85005 184.914 12.7269 184.042 15.6085C183.981 15.8104 183.92 16.0123 183.859 16.2142C183.844 16.2625 183.83 16.3109 183.815 16.3608C183.629 16.9728 183.442 17.5841 183.251 18.1944C183.232 18.2578 183.212 18.3211 183.192 18.3864C183.105 18.6628 183.019 18.9391 182.931 19.2151C182.903 19.3055 182.875 19.3958 182.846 19.4862C182.823 19.5613 182.799 19.6363 182.774 19.7137C182.714 19.8799 182.714 19.8799 182.793 20.0062C182.917 20.0443 182.917 20.0443 183.068 20.0679C183.126 20.0787 183.185 20.0896 183.245 20.1008C183.308 20.1125 183.372 20.1242 183.437 20.1362C184.494 20.3443 185.509 20.6686 186.472 21.1534C186.621 21.2386 186.621 21.2386 186.754 21.2298C186.754 16.5256 186.754 11.8214 186.754 6.97457C186.734 6.97457 186.714 6.97457 186.693 6.97457Z" fill="white"/>
<path d="M159.514 5.79799e-07C165.928 5.6034e-07 172.343 5.4088e-07 178.953 5.20832e-07C178.873 0.399708 178.79 0.774698 178.669 1.16018C178.653 1.2112 178.637 1.26222 178.621 1.31479C178.569 1.48142 178.517 1.64792 178.465 1.81441C178.429 1.9314 178.393 2.0484 178.357 2.16541C178.261 2.47222 178.166 2.77893 178.07 3.0856C177.955 3.45733 177.839 3.8292 177.724 4.20104C177.634 4.49054 177.544 4.78002 177.454 5.06943C177.421 5.17503 177.388 5.28063 177.355 5.38624C177.332 5.46023 177.332 5.46023 177.309 5.53573C177.214 5.83919 177.123 6.14324 177.035 6.44888C177.003 6.54641 177.003 6.54641 176.942 6.60759C176.754 6.61343 176.568 6.61527 176.381 6.61454C176.293 6.61455 176.293 6.61455 176.203 6.61457C176.007 6.61452 175.812 6.61405 175.616 6.61357C175.481 6.61345 175.346 6.61337 175.211 6.61331C174.854 6.61307 174.498 6.61247 174.141 6.6118C173.777 6.61117 173.414 6.61089 173.05 6.61058C172.337 6.60992 171.623 6.60888 170.909 6.60759C170.893 6.66722 170.893 6.66722 170.877 6.72804C170.759 7.16906 170.63 7.60576 170.495 8.04201C170.473 8.11578 170.45 8.18955 170.427 8.26555C170.364 8.4682 170.302 8.67081 170.24 8.87341C170.173 9.09164 170.106 9.30991 170.039 9.52817C169.877 10.0545 169.715 10.5807 169.554 11.1069C169.476 11.3596 169.398 11.6124 169.321 11.8651C169.08 12.6479 168.839 13.4306 168.599 14.2134C168.178 15.5822 167.757 16.9513 167.338 18.3206C167.023 19.3488 166.708 20.3768 166.392 21.4047C166.376 21.4568 166.36 21.5089 166.343 21.5626C166.196 22.0401 166.049 22.5175 165.902 22.9949C165.578 24.0503 165.253 25.1058 164.932 26.1622C164.89 26.2994 164.849 26.4367 164.807 26.5739C164.691 26.9553 164.575 27.3366 164.459 27.7181C164.403 27.9045 164.346 28.0909 164.29 28.2773C164.269 28.3442 164.249 28.4111 164.228 28.48C164.21 28.5402 164.192 28.6003 164.173 28.6623C164.157 28.7146 164.141 28.7669 164.125 28.8208C164.084 28.9388 164.084 28.9388 164.023 29C163.927 29.0059 163.832 29.0075 163.736 29.0074C163.643 29.0075 163.643 29.0075 163.547 29.0076C163.479 29.0074 163.41 29.0072 163.339 29.0069C163.267 29.0069 163.195 29.007 163.121 29.007C162.923 29.0069 162.726 29.0066 162.528 29.0062C162.321 29.0058 162.115 29.0058 161.908 29.0057C161.517 29.0055 161.126 29.005 160.735 29.0044C160.289 29.0037 159.844 29.0034 159.399 29.0031C158.482 29.0024 157.566 29.0014 156.65 29C157.1 27.4826 157.558 25.9676 158.026 24.4555C158.128 24.1269 158.229 23.7982 158.33 23.4696C158.366 23.3552 158.401 23.2409 158.436 23.1266C158.463 23.0412 158.463 23.0412 158.49 22.9541C158.543 22.7812 158.596 22.6084 158.65 22.4355C159.011 21.2665 159.371 20.0974 159.731 18.928C159.746 18.8774 159.762 18.8269 159.778 18.7747C160.295 17.0932 160.807 15.4101 161.317 13.7264C161.759 12.2671 162.205 10.809 162.658 9.35319C162.697 9.22899 162.736 9.10479 162.774 8.98058C162.845 8.75204 162.917 8.52356 162.988 8.2951C163.008 8.23013 163.028 8.16517 163.049 8.09823C163.206 7.59918 163.371 7.10412 163.535 6.60759C161.565 6.60759 159.594 6.60759 157.564 6.60759C157.61 6.28445 157.67 5.99693 157.765 5.68862C157.78 5.64149 157.794 5.59436 157.809 5.54581C157.856 5.39075 157.903 5.23584 157.951 5.08093C157.984 4.97185 158.017 4.86277 158.05 4.75368C158.138 4.46638 158.226 4.1792 158.314 3.89204C158.384 3.66078 158.455 3.42944 158.525 3.19809C158.61 2.91815 158.696 2.63825 158.781 2.35835C158.797 2.30655 158.813 2.25474 158.829 2.20137C158.875 2.05028 158.921 1.89921 158.968 1.74815C158.98 1.70609 158.993 1.66403 159.006 1.6207C159.172 1.07943 159.344 0.540048 159.514 5.79799e-07Z" fill="white"/>
</g>
<defs>
<clipPath id="clip0_741_4023">
<rect width="78" height="29" fill="white" transform="translate(116)"/>
</clipPath>
</defs>
</svg>
