<svg width="250" height="29" viewBox="0 0 250 29" fill="none" xmlns="http://www.w3.org/2000/svg">
<path d="M236.864 5.44754C237.604 3.4959 239.119 2.48496 239.569 2.79422C240.05 3.12268 239.637 4.10815 239.305 4.99246C239.243 5.17008 237.863 9.26233 237.21 11.1887C237.192 11.2329 237.179 11.277 237.16 11.3274C238.097 10.6264 238.991 10.5823 239.539 10.5823C240.1 10.5887 241.726 10.8229 241.431 12.4329C241.27 13.3044 240.993 13.7594 240.66 14.4856C240.34 15.1931 239.853 16.2866 239.804 16.4192C239.607 16.9622 239.662 17.3539 239.988 17.4046C240.999 17.5561 242.409 16.5201 242.718 15.8001C243.155 14.7768 243.809 12.6796 244.296 11.3216C244.475 10.8289 244.592 10.5062 244.696 10.222C244.259 10.222 243.396 10.2035 243.396 9.72976C243.396 8.71281 244.678 8.57977 245.14 8.56082H245.306C245.367 8.39033 245.436 8.20713 245.516 7.99246C246.126 6.33768 247.457 5.25174 248.018 5.44754C248.436 5.59345 248.257 6.547 247.925 7.43094C247.599 8.31451 247.807 7.86661 247.69 8.15652C247.573 8.45338 247.845 8.38472 248.208 8.41629L248.202 8.3909C248.566 8.42243 249.095 8.35285 249.096 8.76297C249.096 9.47673 248.725 9.74281 248.393 9.91336C248.061 10.0827 246.981 10.0272 246.97 10.0266C246.968 10.0314 246.267 12.2516 245.608 13.9993C245.011 15.5901 244.69 16.2791 244.641 16.4817C244.308 17.8901 246.501 16.9621 247 16.4378C247.302 16.122 247.475 16.8801 247.303 17.177C246.804 18.0297 245.01 18.8313 243.704 18.7366C242.718 18.6671 242.613 17.8658 242.25 17.8655C241.886 17.8655 240.814 18.7493 238.897 18.7493C236.982 18.7491 237.542 17.0956 237.61 16.7161C237.826 15.516 239.107 13.57 239.107 12.7552C239.107 12.3828 238.941 12.307 238.584 12.2376C238.233 12.1681 237.69 12.2623 237.302 12.5276C236.667 12.9507 236.532 13.3426 236.298 13.8225C236.299 13.8201 236.31 13.8021 236.31 13.7845C236.063 14.5296 235.848 15.1869 235.62 15.7805C234.912 17.6186 234.96 18.5792 233.999 18.636C233.235 18.6802 232.859 18.6676 232.761 18.3645C232.705 18.1877 233.106 16.987 233.58 15.5784C233.069 16.0016 231.146 17.2713 229.957 18.0735C229.649 18.9388 229.446 19.3687 228.935 20.9602C228.3 22.9245 227.573 25.1479 227.142 26.1966C226.482 27.7946 224.948 28.8811 223.543 28.2747C223.537 28.2686 223.524 28.2688 223.524 28.2688C223.149 28.1235 222.705 27.8201 222.372 27.2454C222.033 26.7149 221.812 26.0011 221.892 25.1106V25.0159L221.904 25.0286C221.997 24.1632 222.372 23.1394 223.186 21.9456C224.332 20.2718 225.768 19.5334 227.142 18.6302C226.698 18.7754 226.001 18.9199 225.016 18.762C224.498 18.6798 223.605 18.3202 223.186 17.3098V17.3284C223.174 17.3376 221.503 18.6927 219.624 18.6927C218.62 18.6926 218.355 18.1745 217.967 17.5745C217.708 17.8777 216.538 18.7306 215.312 18.7307C214.085 18.7307 213.943 17.8907 213.647 16.6653C212.052 18.3265 210.486 18.7307 209.137 18.7307C208.034 18.7305 205.323 17.8587 205.551 15.1243C205.797 12.0988 207.517 10.4438 209.87 10.4436C211.238 10.4436 212.538 10.7531 212.575 12.2122C212.624 14.1324 210.061 15.326 209.691 15.5345C209.543 15.6168 208.761 16.0086 208.269 16.2044C208.527 16.6906 209.106 17.0377 209.809 17.0188C210.184 17.0125 210.955 16.9876 212.126 16.097C212.847 15.5411 213.53 14.966 214.146 13.387C214.911 10.9236 216.075 7.19675 216.734 5.4534C217.474 3.5019 218.989 2.49099 219.439 2.80008C219.92 3.12848 219.508 4.11412 219.175 4.99832C219.107 5.1815 217.554 9.78029 216.969 11.511C216.525 12.8437 215.65 15.7172 215.638 16.2229C215.625 16.6651 215.767 17.1008 216.476 17.1009C216.956 17.1009 217.64 16.7663 217.936 15.8948V15.9329C218.083 15.6108 218.318 14.979 218.596 14.2337C218.965 13.2483 219.557 11.8645 219.853 11.4602C220.155 11.0498 220.993 10.7465 221.424 10.677C221.855 10.6078 222.089 10.8797 222.089 11.2522C222.089 11.6252 221.393 12.876 220.925 13.9622C220.42 15.1433 220.093 15.9706 220.093 16.3811C220.093 16.7916 220.192 17.0571 220.586 17.095C220.986 17.1265 221.399 17.107 222.021 16.7093C222.274 16.5449 222.797 16.1848 223.013 15.5598C223.364 13.5259 225.595 10.5764 227.635 10.5764C229.292 10.5766 229.957 11.9346 229.957 12.0735C229.957 12.0799 229.951 12.0923 229.951 12.1106C230 12.0287 230.031 11.9406 230.068 11.8587C230.487 10.8543 231.147 10.8285 231.498 10.8538C231.824 10.8791 232.04 10.9494 232.04 11.4925C232.039 11.9296 231.066 14.632 230.469 16.3811C231.128 15.9074 232.718 14.9411 233.488 14.221C233.907 13.8358 234.178 13.463 234.431 12.8821C235.188 10.4378 236.248 7.07736 236.864 5.44754ZM227.006 20.0764C226.778 20.2155 226.346 20.5181 225.835 20.9348C225.41 21.2823 224.781 21.9268 224.227 23.0764C223.709 24.1502 223.451 25.6727 224.11 25.9886C224.671 26.2533 225.151 25.5266 225.619 24.1057C226.195 22.3798 226.996 20.1055 227.006 20.0764ZM189.74 1.17703C190.769 0.804357 195.44 0.248278 197.634 0.437773L197.627 0.425077C201.934 0.797747 205.804 0.77294 205.582 7.60086C205.428 12.4074 204.115 15.3131 202.655 17.347C200.382 20.5231 194.747 20.0826 194.491 20.0823C192.637 20.0886 191.256 19.4636 190.634 18.3772C190.196 17.6192 190.178 16.6589 190.369 15.4651C190.844 12.4774 191.774 10.6138 192.717 8.88309C193.721 7.03255 195.107 5.84466 196.007 5.09305C196.499 4.67649 196.685 4.62586 196.906 4.79617C197.165 4.99185 197.079 5.11232 196.956 5.30789C196.482 6.06582 195.514 6.93779 194.608 9.72293C193.961 11.7253 193.709 13.0337 193.653 14.4739C193.61 15.585 193.746 16.1784 194.121 16.469C194.559 16.7975 195.465 16.8418 196.42 16.886C197.782 16.9491 199.365 16.8546 200.486 15.9387C201.7 14.9474 202.396 13.489 202.557 13.0843C202.883 12.2379 203.82 10.3931 203.968 7.40555C204.116 4.41784 202.692 4.2659 201.287 3.96902C196.389 2.93321 195.594 5.11904 191.983 5.35281C190.622 5.44123 189.334 4.07046 188.902 3.15457C188.151 1.56914 188.274 1.71392 189.74 1.17703ZM129.77 0.918242C130.209 0.734598 134.411 -0.370661 139.764 0.128202C145.112 0.614608 146.165 2.13113 146.165 2.13113C146.381 2.48485 146.843 3.18585 146.77 4.6448C146.622 7.65777 143.682 9.06651 142.862 9.52762C142.196 9.89921 141.972 10 141.924 10.0208C142.127 10.0519 145.346 10.6042 144.385 14.1956C143.485 17.5433 141.987 19.6405 136.411 19.9563C130.022 20.3163 130.503 17.0441 130.848 15.0354C131.273 12.5658 132.252 10.5255 132.702 9.59695C134.008 6.9189 135.881 5.42142 136.436 4.97293C136.99 4.52472 137.12 4.48081 137.372 4.70144C137.575 4.87831 137.465 5.05542 137.249 5.34598C137.089 5.56702 136.812 5.80733 135.592 8.25125C134.267 10.904 134.058 13.9172 134.058 14.3596C134.07 16.4757 134.255 16.6844 137.2 16.7981C140.7 16.9307 141.876 15.0228 142.308 13.5637C142.844 11.7384 141.279 11.2397 140.065 10.968C138.852 10.7028 137.908 10.7218 137.409 10.6966C136.91 10.6713 136.196 10.7339 136.122 10.1848C136.054 9.64162 136.596 9.71075 137.958 9.71707C138.525 9.71707 139.32 9.73589 139.782 9.69168C140.515 9.61572 141.335 9.14825 142.019 8.68094C142.684 8.22621 143.824 7.83459 144.175 6.45144C144.569 4.87246 144.317 4.53787 143.152 3.96316C141.988 3.39468 139.479 3.12268 138.007 3.38797C136.534 3.6534 134.341 5.03613 132.357 4.92898C130.367 4.82161 129.381 2.6621 129.085 1.96707C128.789 1.27225 129.326 1.0951 129.77 0.918242ZM158.63 5.42215C159.369 3.47063 160.885 2.45974 161.335 2.76883C161.816 3.09728 161.403 4.08277 161.07 4.96707C161.015 5.12498 159.616 8.85208 158.846 10.9807C158.827 11.0501 158.809 11.1136 158.778 11.1956C158.655 11.5303 158.532 11.8904 158.402 12.263C158.544 12.1745 158.846 11.9784 159.283 11.7132C160.078 11.2331 160.917 10.747 161.742 10.7786C162.143 10.7914 163.233 11.1513 163.233 12.3069C163.233 13.7657 161.94 14.3787 161.243 14.6819C160.547 14.9851 160.146 15.0171 160.115 15.2571C160.079 15.4985 160.615 17.0445 161.212 17.177C161.723 17.297 162.074 17.2084 163.091 16.678C163.171 16.6338 163.461 16.4627 163.806 16.2669C163.738 15.9765 163.714 15.6482 163.738 15.2884C163.991 11.8524 166.153 10.3936 168.427 10.4944C169.215 10.5323 171.003 10.6965 170.763 12.6673C170.608 13.9683 168.618 15.225 167.78 15.6419C167.318 15.8693 166.856 16.0778 166.474 16.2483C166.8 16.7789 167.361 17.0628 168.076 17.0628C169.241 17.0627 170.38 16.2484 171.606 14.72C172.833 13.1914 173.314 11.8518 172.852 11.3401C172.457 10.898 172.026 10.0206 172.95 9.40164C173.764 8.85216 174.62 8.9777 175.144 9.2493C175.593 9.47663 174.978 10.3295 174.799 10.7718C174.787 10.8097 174.774 10.8417 174.762 10.8733C174.903 10.9048 175.063 10.9359 175.235 10.9485C175.827 10.9927 176.012 10.961 176.357 10.9231C177.245 10.8284 177.744 10.9237 177.91 11.3343C178.076 11.7449 178.039 12.5095 177.54 13.3557C177.047 14.2083 176.32 15.0228 176.086 15.427C175.87 15.7934 175.44 16.4445 176.234 16.5139C177.029 16.5833 177.688 16.2414 178.68 14.9846C179.678 13.7215 179.5 13.9618 180.005 13.343C180.418 12.8378 180.572 12.6543 180.763 12.4016C181.182 11.8458 180.091 11.1948 180.855 10.1399C181.502 9.24984 183.017 9.26231 183.492 9.74832C183.948 10.2094 182.648 10.9364 183.049 12.2503V12.2688C183.24 12.8942 184.429 14.3787 184.589 15.9514C184.805 18.0611 183.671 18.8507 181.971 18.8382C180.535 18.8255 179.371 17.4808 179.34 17.1077C179.303 16.7287 179.74 16.5957 180.005 16.6272C180.27 16.6588 180.683 17.4989 181.483 17.6507C182.383 17.8149 182.857 16.8295 182.876 16.3557C182.894 15.8189 182.617 15.3579 182.315 14.8147C182.02 14.272 181.651 13.5776 181.552 13.5764C181.453 13.5764 179.277 16.2608 178.778 16.804C178.769 16.8156 177.707 18.1832 176.406 18.636C174.688 19.2295 173.708 18.4277 173.492 17.7835C173.209 16.9307 173.88 15.6354 174.478 14.6184C175.075 13.6015 175.704 12.698 175.723 12.3948C175.747 12.0289 175.032 11.9849 174.459 11.9407C174.182 13.0397 173.806 14.4292 172.204 16.3177C169.986 18.9327 167.546 18.7307 167.546 18.7307C166.609 18.7307 165.131 18.3896 164.317 17.3538C163.104 18.0802 161.322 18.8196 160.343 18.8196C159.536 18.8193 159.018 17.9157 158.488 17.0315C157.958 16.1536 157.762 15.1996 157.86 14.928C157.959 14.6566 158.55 14.5932 159.48 14.2522C160.411 13.9111 160.972 13.5069 160.972 13.0647C160.972 12.6227 160.54 12.7108 160.146 12.8245C159.904 12.8943 158.574 13.3997 157.866 13.8606C157.423 15.1869 156.985 16.4753 156.597 17.2522C156.085 18.2755 155.149 18.9896 153.849 18.9075C152.616 18.8253 151.939 17.9665 151.717 16.7981C151.701 16.8186 150.179 18.7374 148.371 18.7688C146.51 18.8004 145.111 18.042 145.352 14.928C145.629 11.3467 148.765 10.3743 149.825 10.3743C151.064 10.3427 152.315 11.3277 152.389 11.7825C152.5 11.6562 152.629 11.5486 152.771 11.4602C153.436 11.0497 153.868 10.8418 154.397 10.7786C154.927 10.7092 155.26 10.8415 154.662 11.8645C154.065 12.8813 153.529 14.5992 153.381 15.4837C153.233 16.3553 153.128 17.4356 153.99 17.4358C154.576 17.4358 154.687 16.9304 155.371 14.9407C155.993 12.9509 157.798 7.62672 158.63 5.42215ZM227.955 12.0354C226.23 12.0544 225.404 14.8586 225.404 15.844C225.404 16.8291 226.069 17.1007 226.636 17.1009C227.199 17.1009 228.133 16.5957 228.146 16.5891C228.62 15.3386 228.997 14.0379 229.305 13.261V13.2542L229.302 13.1458C229.258 12.6008 228.764 12.0296 227.955 12.0354ZM150.935 11.8899C150.066 11.5994 149.332 12.0792 148.895 12.4329C147.773 13.3362 147.139 16.6215 148.766 16.552C150.786 16.4635 151.581 14.4232 151.68 13.5325H151.686C151.698 13.3872 151.723 13.2476 151.754 13.1087C151.742 13.1338 151.729 13.128 151.741 13.0843C151.846 12.6801 151.335 12.0227 150.935 11.8899ZM168.113 11.5364C166.524 11.5111 166.16 13.6582 166.16 14.9846V15.0042C166.357 14.9095 166.64 14.7827 167.071 14.5618C168.267 13.9554 168.76 13.2982 168.864 12.8245C169.006 12.1867 168.902 11.5492 168.113 11.5364ZM209.79 11.511C208.213 11.5113 207.911 14.1007 207.948 14.9534C208.195 14.8899 209.278 14.322 209.494 14.1702C210.314 13.5891 210.708 13.1023 210.708 12.3948C210.708 11.6878 210.344 11.5042 209.79 11.5042V11.511ZM222.305 7.69559C222.441 7.69562 223.433 7.76563 223.433 8.92117C223.433 10.0771 222.803 10.2796 222.175 10.2796V10.2727C221.54 10.2726 220.912 9.89358 220.912 9.08523C220.912 8.27683 221.578 7.69559 222.305 7.69559Z" fill="white"/>
<path d="M7.56878 0.000488281C7.69105 0.0520337 7.81899 0.0887735 7.94991 0.109933H8.36915C8.69559 0.104358 9.0186 0.177544 9.31108 0.32335C9.33642 0.325986 9.36197 0.325986 9.38731 0.32335C9.7545 0.448666 10.1055 0.617682 10.4327 0.826795L10.4762 0.8651L11.2331 1.57649C11.2922 1.64389 11.3468 1.71519 11.3964 1.78991C11.4259 1.84297 11.4586 1.89415 11.4944 1.94313C11.6033 2.07994 11.7176 2.2058 11.8265 2.33713C11.8664 2.38451 11.8944 2.4408 11.9082 2.5013C11.9409 2.76944 12.1532 2.98832 12.1314 3.27288C12.1286 3.32391 12.1286 3.37507 12.1314 3.4261C12.0661 3.60121 12.0171 3.73802 11.9627 3.87483C11.9159 4.051 11.8077 4.20442 11.6577 4.30713C11.5535 4.38344 11.4601 4.47364 11.3801 4.57527C11.2694 4.67505 11.1423 4.75467 11.0044 4.81058C10.9632 4.83216 10.9174 4.84342 10.871 4.84342C10.8245 4.84342 10.7788 4.83216 10.7376 4.81058C10.4226 4.6633 10.1671 4.41231 10.0134 4.09919C9.82192 3.64665 9.52278 3.24829 9.1423 2.93907C8.93493 2.74817 8.67098 2.63091 8.39093 2.60527C8.35624 2.6018 8.32275 2.59058 8.29292 2.57244C8.01036 2.4658 7.69889 2.4658 7.41633 2.57244C7.18619 2.61345 6.96616 2.69894 6.76841 2.82416C6.74118 2.82416 6.69763 2.82416 6.66496 2.82416C6.63229 2.82416 6.48528 2.99927 6.37094 3.07041C6.27137 3.14529 6.18645 3.23806 6.12049 3.34402C6.00009 3.49053 5.85663 3.61623 5.6958 3.71613C5.56064 3.80264 5.44851 3.92098 5.36912 4.06088C5.32453 4.13769 5.27157 4.20927 5.21122 4.2743C5.07037 4.40389 4.94436 4.54889 4.83554 4.70661C4.79666 4.76318 4.76381 4.8237 4.73753 4.88719C4.68927 5.05566 4.60364 5.21095 4.48708 5.34138C4.3386 5.52639 4.21249 5.72845 4.11139 5.94333C4.04061 6.11844 3.95894 6.29355 3.9045 6.49055C3.88558 6.58522 3.84026 6.67252 3.77382 6.74227C3.68539 6.83035 3.62966 6.94624 3.61593 7.07061C3.58743 7.19676 3.54162 7.31831 3.47981 7.43177C3.31512 7.80143 3.17506 8.18167 3.06057 8.57C3.00612 8.73964 3.02245 8.92022 2.95712 9.08439C2.89178 9.24855 2.86456 9.43461 2.81011 9.63161C2.7525 9.76228 2.72639 9.90477 2.73388 10.0475C2.73388 10.1296 2.70122 10.1843 2.67944 10.25C2.65042 10.333 2.63212 10.4194 2.62499 10.5072C2.62499 10.6276 2.62499 10.7479 2.62499 10.8683C2.50708 11.0459 2.44976 11.2571 2.46165 11.4703C2.49432 11.7111 2.39087 11.9354 2.40176 12.1762C2.43451 12.4158 2.43451 12.6589 2.40176 12.8985C2.36533 13.1212 2.3435 13.3461 2.33642 13.5716C2.3308 13.7678 2.36411 13.9631 2.43443 14.1462C2.44813 14.2277 2.44813 14.3109 2.43443 14.3924C2.45424 14.7961 2.54647 15.1928 2.70666 15.5635C2.77744 15.766 2.90267 15.9466 2.9789 16.149C3.02455 16.263 3.08897 16.3685 3.16946 16.461C3.2838 16.6032 3.44714 16.6963 3.52337 16.8714C3.7959 17.115 4.11437 17.3011 4.45985 17.4186C4.57271 17.4452 4.68735 17.4635 4.80287 17.4733C4.91709 17.4697 5.03064 17.4922 5.135 17.539C5.20569 17.5803 5.28905 17.5939 5.36912 17.5773C5.59301 17.5472 5.81484 17.5034 6.03337 17.446C6.09402 17.4297 6.15596 17.4187 6.21849 17.4131C6.55696 17.3906 6.88704 17.2974 7.18765 17.1395C7.41798 16.9855 7.66012 16.8501 7.91179 16.7346C8.01524 16.6963 8.08602 16.5868 8.17858 16.5102C8.37459 16.3406 8.63594 16.253 8.78839 16.0286C8.85917 15.9356 8.92995 15.8426 9.00618 15.755C9.0824 15.6675 9.15319 15.5526 9.24575 15.5307C9.33831 15.5088 9.38186 15.3501 9.46898 15.279C9.5496 15.2105 9.62262 15.1334 9.68677 15.0491C9.8559 14.8625 10.0546 14.7054 10.2748 14.584C10.4055 14.4964 10.5035 14.3541 10.6723 14.3323C10.7158 14.3323 10.7757 14.283 10.792 14.2994C10.8084 14.3158 10.9772 14.3487 11.0697 14.3706C11.1905 14.4056 11.2979 14.4767 11.3776 14.5744C11.4574 14.6721 11.5057 14.7919 11.5162 14.9178C11.5434 15.0436 11.6196 15.164 11.5597 15.3063C11.4999 15.4486 11.4999 15.558 11.4617 15.6839C11.4236 15.8098 11.3093 16.0505 11.2766 16.2311C11.2766 16.3187 11.1732 16.3898 11.1351 16.4774C11.0969 16.5649 11.0262 16.7729 10.9445 16.8987C10.8324 17.0152 10.7286 17.1395 10.6341 17.2708C10.5852 17.3739 10.5249 17.4712 10.4545 17.5609C10.3463 17.7126 10.2181 17.8488 10.0733 17.9658C9.87314 18.1078 9.69038 18.2731 9.52887 18.4583C9.29931 18.7062 9.02126 18.9036 8.71216 19.0384C8.46171 19.1971 8.1677 19.3065 7.92813 19.4433C7.75252 19.5737 7.54195 19.6481 7.32377 19.6567C7.14061 19.7372 6.94875 19.796 6.75207 19.8318C6.70587 19.8546 6.65617 19.8694 6.60507 19.8756C6.4453 19.8691 6.28551 19.8876 6.13138 19.9303C5.95612 19.9887 5.77059 20.0092 5.58691 19.9905C5.38889 20.0149 5.18794 19.9944 4.99888 19.9303C4.91721 19.892 4.84098 20.0343 4.76476 19.9303C4.47871 19.9041 4.19902 19.8301 3.93716 19.7115C3.87727 19.6732 3.77382 19.7115 3.70849 19.6513C3.53221 19.6401 3.36505 19.5687 3.2348 19.4488C3.1507 19.4036 3.05778 19.3774 2.96256 19.3722C2.87601 19.3615 2.79454 19.3254 2.72844 19.2682C2.59967 19.1487 2.4526 19.0507 2.29286 18.9782C2.26837 18.9682 2.24615 18.9533 2.22753 18.9344L1.51972 18.2941C1.43258 18.2184 1.37158 18.1169 1.34549 18.0041C1.32252 17.9267 1.28413 17.8547 1.23265 17.7926C1.18118 17.7305 1.11768 17.6796 1.04603 17.643C0.981191 17.5363 0.924757 17.4247 0.877242 17.3091C0.804027 17.1071 0.714811 16.9113 0.610452 16.7236C0.544786 16.5185 0.462853 16.3191 0.365441 16.1271C0.357132 16.093 0.357132 16.0573 0.365441 16.0232C0.34847 15.7866 0.279677 15.5568 0.163987 15.3501V15.3501C0.163987 14.978 0.0659821 14.6223 0.10954 14.2556C-0.0102436 14.1079 0.0823162 13.9273 0.0387586 13.7577C0.00963664 13.5878 -0.00312666 13.4156 0.000645727 13.2433C0.000645727 13.0572 0.0823162 12.8931 0.0605374 12.6961C0.0402639 12.5142 0.0402639 12.3307 0.0605374 12.1488C0.0646532 12.0431 0.0886709 11.9391 0.131319 11.8424C0.156881 11.7857 0.170103 11.7241 0.170103 11.6618C0.170103 11.5995 0.156881 11.538 0.131319 11.4812C0.112133 11.4207 0.112133 11.3557 0.131319 11.2952C0.131319 11.1693 0.196655 11.0434 0.229323 10.9176C0.261991 10.7917 0.229323 10.8081 0.229323 10.7534C0.23266 10.5188 0.252675 10.2847 0.289215 10.053C0.310014 9.82522 0.365088 9.60197 0.452556 9.39083C0.497392 9.28373 0.516061 9.16739 0.507003 9.05155V8.63567C0.56145 8.52622 0.626786 8.42225 0.670344 8.30733C0.717387 8.1956 0.755618 8.08033 0.784683 7.96258C0.899421 7.49418 1.0675 7.04064 1.28559 6.61094C1.36727 6.44677 1.3836 6.26072 1.44894 6.09108C1.50212 5.89518 1.58871 5.71003 1.70484 5.54386C1.77649 5.45627 1.82182 5.34997 1.83551 5.23741C1.85154 5.13371 1.8969 5.03684 1.96618 4.95833C2.00766 4.91146 2.04081 4.85779 2.06419 4.79963C2.20385 4.50171 2.36206 4.21293 2.53788 3.93502C2.60866 3.83105 2.60866 3.65046 2.723 3.51366C2.83733 3.37685 3.00612 3.06494 3.20213 2.87888C3.23231 2.84668 3.25964 2.81189 3.2838 2.77491C3.38717 2.60101 3.5287 2.45315 3.6976 2.3426C3.82383 2.26897 3.92455 2.15819 3.98617 2.02521C4.04465 1.91806 4.13129 1.82909 4.23662 1.76802C4.47194 1.59344 4.68578 1.39138 4.87365 1.16607C5.08384 0.978742 5.32054 0.823829 5.57602 0.706406C5.57602 0.706406 5.6468 0.706406 5.65769 0.706406C5.78292 0.635267 5.82103 0.498461 5.95715 0.476572C5.95715 0.476572 5.99526 0.427322 6.01704 0.427322C6.27001 0.372374 6.51777 0.295474 6.75752 0.197488C7.01886 0.137294 7.30199 0.0770995 7.54155 0.0059605V0.000488281H7.56878Z" fill="white"/>
<path d="M27.4261 3.62863L27.2518 3.55202C26.9633 3.69977 26.74 3.51919 26.5168 3.38238C26.3776 3.26917 26.2721 3.1196 26.2119 2.95008L26.1466 2.81874C26.1587 2.59694 26.1823 2.37593 26.2173 2.1566C26.248 2.00185 26.3195 1.85822 26.4242 1.74071C26.6758 1.5103 26.965 1.32518 27.2791 1.19349C27.4427 1.17269 27.6012 1.12265 27.7473 1.04574C27.8943 0.996491 28.0631 1.00744 28.1883 0.897991C28.3127 0.902487 28.4367 0.882024 28.5531 0.837797L28.8689 0.728352C28.905 0.722876 28.9417 0.722876 28.9778 0.728352C29.1194 0.728352 29.2609 0.728352 29.4079 0.684574C29.5549 0.640796 29.6965 0.717408 29.8272 0.618908C29.8272 0.618908 29.8816 0.618908 29.9089 0.618908C30.2573 0.635324 30.5949 0.547769 30.9216 0.547769C31.0171 0.538883 31.1118 0.522415 31.2047 0.498519C31.2918 0.498519 31.3898 0.498519 31.4824 0.498519C31.6689 0.490331 31.8549 0.523978 32.0268 0.597019C32.0538 0.60233 32.0815 0.60233 32.1085 0.597019C32.2416 0.587481 32.3751 0.606124 32.5005 0.651741C32.6349 0.707063 32.7809 0.727755 32.9252 0.711935H32.9524C33.0747 0.780447 33.2103 0.821518 33.3499 0.832324C33.488 0.839638 33.6232 0.875007 33.7474 0.936297C33.8619 0.997303 33.9728 1.06491 34.0795 1.13877C34.1394 1.17707 34.1938 1.24821 34.2592 1.25369C34.4472 1.28117 34.6171 1.3813 34.7329 1.53277C34.8309 1.63127 34.9234 1.73524 35.0269 1.82827C35.1886 1.99121 35.3278 2.17526 35.4407 2.37549C35.5361 2.58848 35.6108 2.81022 35.6639 3.03763C35.7125 3.21567 35.7309 3.40067 35.7183 3.58486C35.7183 3.67241 35.7183 3.75997 35.7673 3.84752C35.7831 3.88473 35.7912 3.92475 35.7912 3.96518C35.7912 4.0056 35.7831 4.04562 35.7673 4.08283C35.6855 4.31274 35.6218 4.54878 35.5768 4.78875C35.5006 5.06394 35.387 5.32726 35.2392 5.57127C35.2011 5.63694 35.1575 5.70261 35.1249 5.77375C35.0176 6.00763 34.8702 6.22067 34.6893 6.40305C34.6103 6.4757 34.5488 6.56554 34.5096 6.66572C34.4535 6.82875 34.3416 6.96645 34.1938 7.05425C34.0131 7.18661 33.8627 7.35642 33.7528 7.55222C33.5906 7.61207 33.4553 7.72863 33.3717 7.88055C33.3166 7.96348 33.2417 8.03121 33.1539 8.07756C32.9996 8.20054 32.859 8.33998 32.7347 8.49344V8.75611C32.7861 8.79472 32.8457 8.82094 32.9089 8.83272C33.1624 8.847 33.4121 8.90053 33.6494 8.99142C33.8116 9.01836 33.9771 9.01836 34.1394 8.99142L35.3644 9.48939C35.5042 9.6538 35.6743 9.78946 35.8654 9.88886C35.9041 9.91319 35.936 9.94711 35.9579 9.98736C35.9851 10.0202 35.996 10.0749 36.0287 10.0913C36.2465 10.2281 36.3173 10.4799 36.4752 10.6386C36.6331 10.7973 36.6058 10.9614 36.6766 11.1201C36.7291 11.213 36.7501 11.3206 36.7365 11.4266C36.7365 11.4813 36.7746 11.5305 36.7801 11.5743C36.8182 11.7604 36.9325 11.9519 36.7801 12.1215C36.7731 12.3511 36.7384 12.579 36.6766 12.8001C36.6304 12.9936 36.6084 13.1921 36.6113 13.3911C36.6116 13.4614 36.5864 13.5295 36.5405 13.5826C36.4078 13.7863 36.3034 14.0072 36.2301 14.2393C36.1971 14.3305 36.1492 14.4155 36.0886 14.491C35.9841 14.6076 35.8994 14.7407 35.8381 14.885C35.7613 15.0456 35.6603 15.1932 35.5387 15.3228C35.5006 15.3666 35.4788 15.4268 35.4407 15.476C35.265 15.7298 35.0477 15.9518 34.7982 16.1327C34.6865 16.2161 34.5858 16.3136 34.4987 16.4227C34.4987 16.4555 34.4987 16.5103 34.4388 16.5376C34.2688 16.7192 34.0869 16.8892 33.8944 17.0465C33.7987 17.1107 33.711 17.186 33.633 17.2709C33.4204 17.4819 33.1827 17.6657 32.9252 17.8181C32.8327 17.8838 32.7346 17.9385 32.6421 18.0097C32.5495 18.0808 32.4134 18.2067 32.2882 18.3052C32.2423 18.3418 32.188 18.3663 32.1303 18.3763C31.8947 18.4374 31.6729 18.5433 31.4769 18.6882C31.3735 18.7375 31.2972 18.8305 31.172 18.825C30.8637 19.0004 30.529 19.1243 30.1811 19.1917C29.9613 19.239 29.75 19.3202 29.5549 19.4324C29.5299 19.4385 29.5038 19.4385 29.4787 19.4324C29.3718 19.4354 29.2657 19.4519 29.1629 19.4817C28.8331 19.5622 28.4951 19.6044 28.1557 19.6075C27.8588 19.5863 27.5669 19.5199 27.29 19.4105C27.1503 19.3401 27.002 19.2885 26.8489 19.2573C26.7206 19.2337 26.6006 19.1771 26.5005 19.0932C26.3004 18.9767 26.135 18.8085 26.0213 18.6061C25.8889 18.3552 25.8215 18.0748 25.8253 17.7908C25.8253 17.6649 25.8253 17.5336 25.8253 17.4022C25.7952 17.2082 25.7952 17.0107 25.8253 16.8167C25.8852 16.6471 25.8253 16.461 25.9179 16.2695C25.9451 16.2312 25.9179 16.16 25.9179 16.1053C25.9102 15.9703 25.9268 15.835 25.9669 15.7058C26.0159 15.5964 25.9288 15.4541 26.0322 15.3447C25.9614 15.1039 26.1847 14.8686 26.0322 14.6278C26.0322 14.6278 26.0703 14.5731 26.0758 14.5457C26.1628 14.1469 26.2012 13.739 26.1901 13.3309C26.1913 13.2518 26.2079 13.1737 26.2391 13.1011C26.2854 12.9157 26.3418 12.733 26.4079 12.5538C26.4079 12.5101 26.4079 12.4334 26.4079 12.3733C26.4002 12.3215 26.3893 12.2704 26.3752 12.22C26.3684 11.988 26.4092 11.757 26.495 11.5415C26.5145 11.4938 26.5291 11.4443 26.5386 11.3937C26.5208 11.0778 26.5576 10.7612 26.6475 10.458C26.6612 10.3857 26.6612 10.3114 26.6475 10.2391C26.6234 10.0408 26.6555 9.83978 26.74 9.65903C26.7571 9.60751 26.7571 9.55185 26.74 9.50033C26.7251 9.28532 26.7605 9.06979 26.8435 8.87103C26.8488 8.84577 26.8488 8.81968 26.8435 8.79442C26.8472 8.50167 26.8672 8.20936 26.9034 7.91886C26.9094 7.8045 26.9258 7.69094 26.9524 7.57958C26.9524 7.46467 26.9088 7.34428 27.0068 7.23483C27.0068 7.23483 27.0068 7.14728 27.0068 7.09803C27.0266 6.83471 27.074 6.57424 27.1484 6.32097C27.153 6.29564 27.153 6.26969 27.1484 6.24436C27.1103 5.98169 27.2246 5.69714 27.2028 5.46183C27.2028 5.34144 27.2573 5.25388 27.2627 5.14444C27.2682 5.035 27.2137 4.92008 27.3172 4.83252C27.3214 4.61169 27.3562 4.39252 27.4206 4.18133C27.4718 3.9853 27.4505 3.77726 27.3607 3.5958M28.8852 11.4266C28.7871 11.6674 28.7443 11.9274 28.76 12.1872C28.76 12.2857 28.8036 12.3897 28.7274 12.4827C28.6511 12.5757 28.7655 12.7071 28.6511 12.7837C28.6511 12.9478 28.5205 13.1175 28.6076 13.2598C28.6947 13.402 28.6076 13.4841 28.6076 13.5826C28.5725 13.6732 28.5558 13.77 28.5586 13.8672C28.5586 13.9164 28.5586 13.9766 28.5586 14.004C28.5586 14.0313 28.5586 14.2557 28.4987 14.3433C28.4388 14.4308 28.466 14.595 28.4551 14.7154C28.4442 14.8358 28.4823 14.9561 28.4551 15.0492C28.4176 15.16 28.401 15.2769 28.4061 15.3939C28.4061 15.5034 28.3626 15.6183 28.3517 15.7332C28.3625 15.9617 28.3516 16.1908 28.319 16.4172C28.2857 16.5978 28.2674 16.7808 28.2646 16.9645L28.515 17.1013L28.6566 17.0301C28.7489 17.0383 28.8419 17.0383 28.9342 17.0301C29.0268 17.0301 29.1085 16.948 29.1956 16.9207C29.2827 16.8933 29.4569 16.8714 29.5931 16.8441C29.7292 16.8167 29.751 16.7565 29.8381 16.7182C30.1157 16.6033 30.3825 16.4446 30.6548 16.3297C30.8164 16.2737 30.9716 16.2003 31.1176 16.1108C31.3789 15.9466 31.613 15.7387 31.8689 15.5636C32.0818 15.4294 32.2774 15.2695 32.4515 15.0875C32.5486 14.9798 32.6583 14.8842 32.7782 14.8029C32.9188 14.7214 33.0426 14.6137 33.143 14.4855C33.2083 14.398 33.2791 14.3214 33.3499 14.2393C33.4207 14.1572 33.4207 14.1244 33.4534 14.0915C33.486 14.0587 33.5677 13.8453 33.6657 13.7577C33.7925 13.6336 33.8893 13.482 33.9488 13.3145C33.9689 13.2559 34.0003 13.202 34.0414 13.1558C34.1436 13.0245 34.2077 12.8673 34.2265 12.7016C34.253 12.5385 34.2912 12.3776 34.3408 12.22C34.3799 12.1459 34.4004 12.0632 34.4004 11.9793C34.4004 11.8953 34.3799 11.8127 34.3408 11.7385L33.8345 11.4922C33.7402 11.4841 33.6471 11.4657 33.5568 11.4375C33.2904 11.3256 33.0067 11.2608 32.7183 11.246C32.6288 11.2477 32.5398 11.231 32.457 11.1967C32.342 11.1543 32.2201 11.1338 32.0976 11.1365C31.7165 11.1365 31.3354 11.1365 30.9542 11.1365C30.9017 11.1309 30.8488 11.1309 30.7963 11.1365C30.672 11.1778 30.5445 11.2089 30.4152 11.2296C30.3003 11.2629 30.177 11.2491 30.0722 11.1913C30.031 11.1697 29.9852 11.1584 29.9388 11.1584C29.8923 11.1584 29.8466 11.1697 29.8054 11.1913C29.7247 11.2321 29.6336 11.2474 29.5441 11.235C29.4243 11.235 29.3045 11.235 29.1901 11.235C29.1085 11.3226 29.0268 11.3992 28.9506 11.4758M29.5277 7.95717C29.7506 7.82533 29.9571 7.66735 30.143 7.48655C30.143 7.48655 30.2029 7.45372 30.2301 7.43183C30.3596 7.35935 30.4833 7.27703 30.6003 7.18558C31.025 6.79158 31.4388 6.38664 31.8581 5.98169C31.8962 5.94339 31.9288 5.88319 31.9778 5.87225C32.0908 5.83165 32.1842 5.74951 32.2392 5.64241C32.3315 5.50788 32.4393 5.3848 32.5604 5.27577C32.7004 5.13993 32.8132 4.9783 32.8925 4.79969C32.9398 4.69837 32.9925 4.59972 33.0504 4.50419C33.1496 4.36573 33.22 4.2086 33.2575 4.04219C33.2949 3.87577 33.2985 3.70348 33.2682 3.53561L33.1321 3.39333C33.0586 3.30357 32.9651 3.2325 32.8591 3.18591C32.7532 3.13932 32.6378 3.11851 32.5223 3.12519C32.4869 3.13651 32.4488 3.13651 32.4134 3.12519C32.3154 3.03216 32.1902 3.12519 32.1031 3.07047C31.9963 3.01946 31.8767 3.00229 31.76 3.02122C31.6675 3.02122 31.5749 3.06499 31.4769 3.07594H31.2591C31.1884 3.07594 31.123 3.02669 31.0577 3.02122H30.3771C30.3328 3.0231 30.2897 3.03628 30.2519 3.05952C30.1792 3.09069 30.1142 3.13737 30.0613 3.19633C30.0195 3.28209 29.9937 3.37482 29.9851 3.46994C29.9851 3.56297 29.9851 3.65599 29.9851 3.74902C29.9721 3.83579 29.954 3.92168 29.9306 4.00622C29.9031 4.06891 29.8848 4.13526 29.8762 4.20322C29.8692 4.55464 29.8291 4.9046 29.7564 5.24841C29.7405 5.36156 29.7093 5.47201 29.6638 5.57675C29.6638 5.6643 29.7237 5.75186 29.702 5.81752C29.6475 5.98716 29.6366 6.16227 29.5931 6.33191C29.5931 6.39758 29.5114 6.47419 29.5441 6.52891C29.5767 6.58364 29.5767 6.73686 29.5441 6.85178C29.5114 6.96669 29.5767 7.05425 29.5441 7.12539C29.5114 7.19653 29.5441 7.38258 29.4896 7.49203C29.4653 7.54428 29.4527 7.60125 29.4527 7.65893C29.4527 7.71661 29.4653 7.77358 29.4896 7.82583C29.4896 7.86961 29.4896 7.91886 29.5332 7.96264" fill="white"/>
<path d="M20.7285 1.2646C20.9463 1.39862 21.1859 1.49309 21.4363 1.54368C21.8842 1.70103 22.3091 1.91822 22.6994 2.18941C22.743 2.18941 22.8029 2.26055 22.8138 2.3098C22.8176 2.34108 22.829 2.37093 22.8471 2.3967C22.8651 2.42247 22.8892 2.44337 22.9172 2.45755C23.2167 2.6436 23.38 2.96646 23.6414 3.19082C23.8179 3.38677 23.9547 3.61539 24.0443 3.86391C24.0545 3.90552 24.0731 3.94461 24.0987 3.97883C24.253 4.20856 24.374 4.45913 24.4581 4.72305C24.5125 4.84344 24.4581 4.95835 24.5016 5.0678C24.5528 5.15868 24.5843 5.25936 24.5942 5.3633C24.5834 5.54151 24.6211 5.71931 24.7031 5.87769C24.7087 5.90476 24.7087 5.9327 24.7031 5.95977C24.7081 6.17639 24.73 6.39229 24.7684 6.60549C24.7985 6.78639 24.8149 6.96933 24.8174 7.15272C24.8417 7.28962 24.8744 7.42487 24.9154 7.55766C24.8951 7.61252 24.8805 7.66938 24.8719 7.7273C24.8637 7.88589 24.8637 8.0448 24.8719 8.20339C24.91 8.59191 24.7957 8.9695 24.8174 9.35803C24.753 9.58552 24.7345 9.82368 24.763 10.0585C24.7548 10.1605 24.7548 10.2629 24.763 10.3649C24.7652 10.4631 24.7447 10.5606 24.7031 10.6495C24.664 10.7392 24.6436 10.8361 24.6432 10.934C24.6432 10.9723 24.5942 11.0106 24.5942 11.0544C24.6118 11.2237 24.5756 11.3942 24.4908 11.5414C24.4768 11.5766 24.4768 11.6158 24.4908 11.6509C24.4824 11.9109 24.4478 12.1695 24.3873 12.4225C24.3056 12.4772 24.3274 12.5538 24.3329 12.6249C24.329 12.8197 24.2705 13.0094 24.1641 13.1722C24.1697 13.3058 24.1335 13.4378 24.0606 13.5498C23.9551 13.7768 23.8765 14.0156 23.8265 14.2611C23.7845 14.4909 23.7112 14.7137 23.6087 14.9233C23.5041 15.0923 23.4269 15.2771 23.38 15.4705C23.3571 15.5355 23.324 15.5965 23.282 15.6511C23.0806 16.0396 22.8465 16.4008 22.6178 16.7455C22.2792 17.2305 21.8824 17.6716 21.4363 18.0589C21.2289 18.2557 21.0089 18.4385 20.7775 18.6061C20.7373 18.6385 20.6934 18.6661 20.6468 18.6882C20.4181 18.7921 20.1949 18.9016 19.9662 18.9946C19.7375 19.0876 19.498 19.1643 19.2584 19.2409C19.1243 19.279 18.9879 19.3082 18.85 19.3284C18.7466 19.3284 18.6377 19.3284 18.5397 19.3831C18.4958 19.3995 18.4475 19.3995 18.4036 19.3831C18.2373 19.3284 18.058 19.3284 17.8918 19.3831H17.8537C17.7793 19.3589 17.7027 19.3424 17.625 19.3339C17.5477 19.3451 17.4713 19.3615 17.3963 19.3831C17.274 19.3901 17.1525 19.3596 17.0479 19.2956C16.8736 19.219 16.6939 19.1643 16.5034 19.0931C16.1752 18.9716 15.8641 18.8079 15.5778 18.6061C15.48 18.5349 15.3762 18.4727 15.2674 18.42C14.9726 18.2458 14.7212 18.0062 14.5324 17.7196C14.4834 17.6594 14.4453 17.5828 14.3908 17.5281C14.2222 17.3672 14.0773 17.183 13.9607 16.9808C13.9293 16.9329 13.8886 16.892 13.8409 16.8605C13.7211 16.7666 13.635 16.6359 13.5959 16.4883C13.5142 16.2421 13.3999 16.0068 13.3019 15.7715C13.3019 15.7168 13.2692 15.6566 13.242 15.6018C13.215 15.4916 13.1748 15.385 13.1222 15.2844C13.0369 15.1867 12.9853 15.0639 12.9752 14.9342C12.9568 14.7477 12.9166 14.5641 12.8554 14.387C12.8554 14.3542 12.8064 14.3268 12.801 14.294C12.801 14.1572 12.7629 14.0149 12.7465 13.8726C12.7302 13.7303 12.7901 13.6318 12.6866 13.5333C12.7083 13.3086 12.6708 13.0822 12.5778 12.8767C12.575 12.8585 12.575 12.8401 12.5778 12.8219C12.5778 12.6961 12.6812 12.5921 12.605 12.4389C12.564 12.3071 12.564 12.1658 12.605 12.0339C12.6565 11.6991 12.6729 11.3598 12.654 11.0216C12.654 10.6823 12.654 10.3485 12.654 10.0147C12.6546 9.93376 12.6712 9.85376 12.703 9.77939C12.752 9.64445 12.776 9.50164 12.7738 9.35803C12.7675 9.08515 12.7857 8.81225 12.8282 8.54266C12.8554 8.3785 12.9153 8.20886 12.9534 8.03922C12.9534 8.03922 12.9861 7.99544 12.9861 7.96808C12.9861 7.78202 13.0188 7.5905 13.046 7.42086C13.0767 7.26013 13.1318 7.1051 13.2093 6.96119C13.2359 6.91749 13.2544 6.86927 13.2638 6.81891C13.2981 6.58421 13.3546 6.35333 13.4326 6.12941C13.4326 6.12941 13.4326 6.08563 13.4326 6.07469C13.582 5.79357 13.7129 5.50292 13.8246 5.2046C13.928 5.0076 13.9879 4.78324 14.0968 4.59172C14.174 4.44289 14.2652 4.3018 14.3691 4.17035C14.4205 4.122 14.4597 4.06195 14.4834 3.99524C14.5212 3.82936 14.6132 3.681 14.7447 3.57388C14.8871 3.40534 15.0163 3.22606 15.1313 3.0376C15.3035 2.81277 15.505 2.61215 15.7302 2.44113C15.8664 2.33168 16.0188 2.23866 16.1549 2.12374C16.4006 1.91285 16.683 1.74957 16.988 1.64218C17.0152 1.64218 17.0479 1.64218 17.0696 1.64218C17.2885 1.4806 17.5498 1.38735 17.821 1.37404C17.9287 1.34494 18.0342 1.30837 18.1368 1.2646C18.2632 1.22248 18.3957 1.20213 18.5288 1.20441C18.8827 1.20441 19.2366 1.13327 19.5905 1.14421C19.7756 1.14421 19.9444 1.20441 20.135 1.21535C20.2276 1.24063 20.3224 1.25711 20.4181 1.2646H20.7394M21.4798 13.7358C21.4908 13.5358 21.5427 13.3402 21.6323 13.1612C21.7683 12.9371 21.8503 12.6841 21.8719 12.4225C21.9753 12.3459 21.8719 12.2145 21.9372 12.1434C22.0025 12.0723 21.9699 11.9519 21.9807 11.8534C21.9916 11.7549 21.9807 11.7713 21.9807 11.7439C22.0667 11.5971 22.103 11.4262 22.0842 11.2569C22.0812 11.2314 22.0812 11.2057 22.0842 11.1803C22.188 10.8963 22.2414 10.5963 22.2421 10.2938C22.2257 10.2199 22.2257 10.1433 22.2421 10.0694C22.317 9.85134 22.352 9.62146 22.3455 9.39086C22.3357 9.29968 22.3488 9.20748 22.3837 9.12272C22.4027 9.07676 22.4125 9.02748 22.4125 8.97771C22.4125 8.92793 22.4027 8.87865 22.3837 8.83269C22.3183 8.68494 22.3837 8.54266 22.3455 8.40039C22.4218 8.35114 22.3945 8.26905 22.4 8.19791C22.4054 8.12677 22.3673 7.89147 22.4544 7.74372C22.4544 7.71088 22.4544 7.63975 22.4544 7.5905C22.4272 7.45916 22.3945 7.3333 22.3673 7.20744C22.4762 7.09252 22.3673 6.97761 22.3673 6.86269C22.3441 6.79667 22.3259 6.72899 22.3129 6.66022C22.3129 6.52888 22.3129 6.39755 22.3129 6.27169C22.2963 6.13556 22.2727 6.0004 22.2421 5.86674L22.0896 5.57124C22.1061 5.46156 22.1 5.34967 22.072 5.2424C22.0439 5.13514 21.9943 5.03476 21.9263 4.94741C21.8664 4.8708 21.8174 4.79419 21.7575 4.7121C21.5795 4.43829 21.3479 4.20371 21.0769 4.0226C20.9382 3.93426 20.7946 3.85387 20.6468 3.78183C20.5503 3.78148 20.4546 3.76483 20.3637 3.73257C20.1949 3.64197 20.0098 3.58616 19.8192 3.56841C19.4432 3.50187 19.0564 3.53584 18.6976 3.66691C18.5336 3.72892 18.3608 3.76403 18.1858 3.77088C17.7925 3.85992 17.4378 4.07271 17.1731 4.3783L17.0152 4.59172C16.9669 4.66741 16.9122 4.73881 16.8518 4.80513C16.6449 4.99119 16.5197 5.25385 16.3074 5.45085C16.2478 5.51497 16.2031 5.59161 16.1767 5.67522C16.1005 5.98166 15.9208 6.22244 15.8282 6.53983C15.7792 6.68758 15.6595 6.8025 15.6649 6.97761C15.6649 7.05422 15.5887 7.13083 15.5614 7.21291C15.4529 7.45352 15.3972 7.71482 15.3981 7.97902C15.3996 8.1042 15.3716 8.22796 15.3164 8.34019C15.202 8.62966 15.1393 8.93719 15.1313 9.24858C15.1313 9.34161 15.164 9.45105 15.1313 9.52766C15.0279 9.74108 15.1313 9.97092 15.0333 10.1843C15.0005 10.3395 15.0005 10.4998 15.0333 10.6549C15.0605 10.8246 14.968 10.9723 14.9734 11.1365C14.9789 11.3007 14.9734 11.5305 14.9734 11.7275C14.9775 11.7968 14.9921 11.8651 15.017 11.93C15.0628 12.0294 15.0866 12.1377 15.0866 12.2474C15.0866 12.357 15.0628 12.4653 15.017 12.5648C15.0388 12.6069 15.057 12.6508 15.0714 12.6961C15.0714 12.7399 15.0714 12.7946 15.0714 12.8274C15.0988 12.8636 15.1136 12.9078 15.1136 12.9533C15.1136 12.9987 15.0988 13.043 15.0714 13.0791C15.0648 13.0947 15.0614 13.1115 15.0614 13.1284C15.0614 13.1453 15.0648 13.1621 15.0714 13.1776C15.0714 13.2543 15.1095 13.3309 15.1259 13.4075C15.1337 13.4866 15.1464 13.5652 15.164 13.6428C15.2382 13.9034 15.2963 14.1684 15.3382 14.4363C15.3861 14.6938 15.4841 14.9393 15.6268 15.1586C15.6999 15.2994 15.7935 15.4285 15.9045 15.5416C16.0044 15.675 16.0799 15.825 16.1277 15.9849C16.1277 15.9849 16.1277 15.9849 16.1277 15.9849C16.3593 16.2847 16.6737 16.5093 17.0315 16.6306C17.2092 16.6703 17.3799 16.7367 17.5379 16.8276C17.6426 16.8956 17.7685 16.9229 17.8918 16.9042C18.1867 16.8543 18.4858 16.8341 18.7847 16.844C18.7847 16.844 18.8337 16.844 18.8555 16.8112C19.0303 16.7613 19.1945 16.6797 19.3401 16.5704C19.6421 16.425 19.9066 16.2115 20.1132 15.9466C20.1567 15.8635 20.2254 15.7964 20.3092 15.7551C20.4916 15.6448 20.6332 15.4776 20.7121 15.279C20.8809 14.9889 20.9898 14.6661 21.1858 14.387C21.2158 14.3556 21.2349 14.3153 21.2403 14.2721C21.2403 14.0641 21.3873 13.9219 21.4635 13.7249" fill="white"/>
<path d="M43.8961 1.15495C44.3092 1.28702 44.7427 1.34264 45.1756 1.31911C45.4151 1.42308 45.6275 1.50517 45.8235 1.60367C46.0499 1.66264 46.2663 1.75484 46.466 1.87728C46.5851 1.96887 46.6882 2.07985 46.7709 2.20561C46.9853 2.54746 47.0721 2.95465 47.0159 3.35478C47.0159 3.48612 46.9723 3.61745 46.9723 3.75425C46.7491 4.10448 46.7491 4.10448 46.4877 4.22487C46.4199 4.20395 46.3508 4.1875 46.2808 4.17562C46.1546 4.14368 46.0322 4.0978 45.916 4.03881C45.8394 3.98472 45.7572 3.93887 45.671 3.902C45.5689 3.87434 45.4653 3.85242 45.3607 3.83634C45.2572 3.83634 45.181 3.74331 45.0776 3.71595C44.9742 3.68888 44.8684 3.67238 44.7618 3.6667C44.7129 3.65327 44.6654 3.63494 44.6202 3.61198C44.3281 3.54015 44.025 3.52528 43.7273 3.5682L43.2209 3.61745C43.1336 3.61866 43.0485 3.64527 42.9759 3.69406C42.863 3.76758 42.7286 3.80039 42.5948 3.78709C42.426 3.84728 42.2844 3.9622 42.1047 4.01692C41.9249 4.08642 41.7603 4.19051 41.6202 4.32337C41.4695 4.44228 41.3092 4.54844 41.141 4.64076C40.893 4.7764 40.676 4.96282 40.504 5.18798C40.3298 5.42328 40.1501 5.64765 39.9976 5.8939C39.8106 6.18556 39.6658 6.50248 39.5675 6.83512C39.5331 6.94684 39.5148 7.06293 39.5131 7.17987C39.5115 7.27628 39.4969 7.37202 39.4695 7.46443C39.4517 7.56128 39.4562 7.66095 39.4826 7.7558C39.5091 7.85065 39.5567 7.93816 39.622 8.01165C39.7889 8.21143 40.0074 8.36102 40.2536 8.44396C40.4481 8.49842 40.6322 8.58536 40.798 8.70115C40.8862 8.77044 40.9917 8.81398 41.1029 8.82701C41.2264 8.83073 41.3474 8.86253 41.4568 8.92004C41.5494 8.97476 41.6637 8.99118 41.7617 9.05137C41.8766 9.11427 41.9947 9.1709 42.1156 9.22101C42.2802 9.23092 42.4421 9.2679 42.5948 9.33046C42.769 9.38518 42.9432 9.42896 43.1392 9.47273C43.3353 9.51651 43.553 9.68068 43.7817 9.74635C43.9114 9.76243 44.0391 9.79177 44.1628 9.8339C44.3908 9.93825 44.6302 10.0154 44.8761 10.0637C44.9276 10.0729 44.9752 10.0977 45.0122 10.1349C45.1628 10.252 45.3297 10.346 45.5077 10.414C45.791 10.5595 46.053 10.7436 46.2863 10.9612C46.3788 11.0433 46.4877 11.1144 46.5748 11.202C46.8577 11.498 47.1044 11.8268 47.3099 12.1815C47.4452 12.3511 47.5401 12.5495 47.5876 12.7615C47.6965 12.8655 47.5876 13.0187 47.6965 13.1391C47.8053 13.2595 47.7291 13.4018 47.7618 13.5277C47.8165 13.8585 47.8293 14.195 47.7999 14.5291C47.7999 14.7315 47.7563 14.9395 47.7291 15.1967L47.4242 15.6345C47.3546 15.8731 47.25 16.0999 47.1139 16.3075C46.9778 16.4881 46.8362 16.6578 46.7001 16.8548C46.615 16.9835 46.5144 17.1011 46.4006 17.205C46.1393 17.3965 45.9433 17.6537 45.6983 17.8562C45.4532 18.0587 45.2736 18.1407 45.0721 18.2885C44.8884 18.4023 44.6931 18.4958 44.4895 18.5676C44.299 18.6497 44.103 18.7208 43.9451 18.8029C43.7872 18.885 43.4006 18.9397 43.1665 19.071L43.0521 19.1257C42.9331 19.1068 42.8118 19.1068 42.6928 19.1257C42.5784 19.1586 42.4478 19.1257 42.3443 19.2242C42.2409 19.3227 42.2518 19.2242 42.2082 19.2242C42.0394 19.2242 41.8706 19.2242 41.7073 19.2242C41.463 19.223 41.2191 19.2413 40.9777 19.279C40.8705 19.2883 40.7626 19.2734 40.6619 19.2352C40.506 19.1813 40.3422 19.1536 40.1773 19.1531C40.1266 19.1425 40.0772 19.126 40.0303 19.1039C39.8732 19.0238 39.7001 18.9808 39.524 18.978C39.4729 18.9756 39.4228 18.9625 39.377 18.9397C39.0278 18.818 38.6906 18.6641 38.3697 18.48C38.3207 18.48 38.2935 18.3979 38.2499 18.3651C38.1457 18.2853 38.0366 18.2122 37.9232 18.1462C37.6502 18.0129 37.4242 17.7991 37.2753 17.5333C37.2753 17.5333 37.2753 17.4786 37.2372 17.4622C37.0062 17.2378 36.8212 16.9701 36.6927 16.6742C36.6927 16.5319 36.5947 16.3896 36.6328 16.2747C36.6541 16.1353 36.7167 16.0056 36.8125 15.9026C36.916 15.826 36.9323 15.6618 37.0902 15.6345C37.1872 15.6458 37.2855 15.6364 37.3788 15.6071C37.4876 15.536 37.5421 15.6071 37.6238 15.6071C37.7143 15.6151 37.8054 15.6151 37.896 15.6071C37.9994 15.6564 38.0811 15.6837 38.1573 15.7275C38.4568 15.8862 38.7399 16.0722 39.023 16.2747C39.2191 16.4006 39.4314 16.4991 39.6383 16.6085C39.6725 16.6148 39.7075 16.6148 39.7417 16.6085C40.0684 16.6085 40.3842 16.7399 40.7218 16.7289C40.8361 16.7289 40.9505 16.8165 41.0703 16.7289C41.0814 16.7209 41.0947 16.7166 41.1084 16.7166C41.122 16.7166 41.1354 16.7209 41.1465 16.7289C41.2336 16.8219 41.337 16.7617 41.4351 16.7836C41.5331 16.8055 41.7073 16.718 41.8543 16.7234C41.9937 16.737 42.1341 16.737 42.2735 16.7234C42.4151 16.7234 42.5458 16.6249 42.6982 16.6085C42.8507 16.5921 42.8452 16.5702 42.9269 16.5593C42.9952 16.5455 43.0625 16.5272 43.1284 16.5045L43.3951 16.4389C43.4597 16.3506 43.5411 16.2761 43.6346 16.2198C43.728 16.1634 43.8317 16.1263 43.9396 16.1105C44.0787 15.9469 44.249 15.8129 44.4405 15.7165C44.5093 15.6828 44.5649 15.627 44.5984 15.5579C44.6826 15.4188 44.7894 15.2949 44.9142 15.1912C45.0608 15.0405 45.161 14.8505 45.2028 14.644C45.2463 14.4744 45.2953 14.2938 45.3389 14.0968C45.3705 14.0074 45.3825 13.9122 45.3741 13.8178C45.3656 13.7233 45.3369 13.6318 45.2899 13.5495C45.2286 13.4646 45.1775 13.3728 45.1374 13.2759C45.0665 13.0708 44.9205 12.9006 44.7291 12.7998C44.5875 12.7123 44.4895 12.5481 44.348 12.4442C44.2641 12.4274 44.1833 12.3979 44.1084 12.3566C43.897 12.2385 43.6721 12.1466 43.4387 12.083C43.3645 12.0625 43.2945 12.0292 43.2318 11.9845C43.0902 11.8532 42.8888 11.8586 42.7418 11.7492C42.573 11.7875 42.4587 11.6233 42.2899 11.6288C42.1438 11.6136 42.0037 11.5629 41.8815 11.481C41.8107 11.4373 41.7018 11.481 41.6311 11.4099C41.4622 11.414 41.2969 11.3599 41.1628 11.2567C41.0395 11.1944 40.9072 11.152 40.7708 11.1308C40.629 11.1018 40.4917 11.0539 40.3624 10.9885C40.1719 10.89 39.965 10.8736 39.7799 10.7642C39.6963 10.7408 39.6105 10.7261 39.524 10.7204C39.3501 10.6645 39.1877 10.5774 39.0448 10.4632C38.9904 10.4249 38.925 10.3538 38.8706 10.3538C38.7018 10.3538 38.5929 10.2388 38.4786 10.1622C38.2774 10.0214 38.0945 9.85599 37.9341 9.66973C37.7068 9.4293 37.5009 9.16929 37.3189 8.89268C37.2527 8.79174 37.2082 8.67805 37.1882 8.55887C37.1104 8.18815 37.0703 7.81046 37.0684 7.43159C37.0684 7.3714 37.0684 7.30573 37.0248 7.25101C37.0167 7.2349 37.0125 7.21709 37.0125 7.19902C37.0125 7.18096 37.0167 7.16315 37.0248 7.14704C37.1174 7.03212 37.0248 6.90079 37.0793 6.7804C37.1107 6.51863 37.1785 6.26258 37.2807 6.01976C37.3959 5.7789 37.4888 5.52795 37.5584 5.27006C37.5928 5.18181 37.6328 5.0959 37.6782 5.01287C37.8423 4.66208 38.0569 4.33755 38.3152 4.04975C38.3915 3.97433 38.4557 3.88759 38.5058 3.79256C38.5515 3.68226 38.6318 3.59001 38.7345 3.52989C38.8757 3.42977 39.0053 3.31414 39.1211 3.18514C39.3255 2.98509 39.5459 2.80208 39.7799 2.63792C39.8309 2.59657 39.8783 2.55079 39.9214 2.50111C39.999 2.40159 40.1124 2.33672 40.2372 2.32053C40.297 2.3102 40.3522 2.28153 40.3951 2.23845C40.4993 2.15862 40.6084 2.08551 40.7218 2.01956C40.9576 1.86952 41.2074 1.74306 41.4677 1.64197C41.5367 1.60855 41.6076 1.57931 41.6801 1.55442C41.9181 1.40893 42.1865 1.32089 42.4641 1.29722C42.573 1.20967 42.7091 1.29722 42.8289 1.23703C43.1438 1.18611 43.4631 1.16777 43.7817 1.18231C43.8198 1.18231 43.8579 1.14947 43.8961 1.13306" fill="white"/>
<path d="M53.0758 18.3489C53.0758 18.3489 53.1248 18.3216 53.1302 18.3052C53.2866 17.9459 53.5754 17.6614 53.936 17.5117C54.0504 17.457 54.1484 17.5117 54.2954 17.446L54.3716 17.3202C54.3716 17.26 54.4152 17.2052 54.4315 17.1505C54.4772 17.0627 54.5015 16.9651 54.5023 16.866C54.5039 16.7174 54.5493 16.5726 54.6329 16.4501C54.6656 16.3953 54.6874 16.3242 54.6656 16.2968C54.5567 16.1819 54.6329 16.0834 54.6656 15.9795C54.71 15.8607 54.7304 15.7342 54.7255 15.6073C54.7102 15.43 54.7383 15.2515 54.8072 15.0875C54.8265 14.9899 54.8265 14.8895 54.8072 14.792C54.8072 14.7044 54.8072 14.6169 54.7745 14.5238C54.813 14.3855 54.8421 14.2447 54.8616 14.1025C54.8633 13.8975 54.8982 13.6942 54.9651 13.5005C54.9923 13.3743 54.9923 13.2437 54.9651 13.1175C54.9651 12.9369 55.0358 12.7782 55.025 12.6086C55.1121 12.5484 55.0903 12.4553 55.0794 12.3787C55.0675 12.1141 55.0914 11.849 55.1502 11.5907C55.1502 11.432 55.1829 11.2733 55.1937 11.1092C55.1975 11.0222 55.2178 10.9367 55.2536 10.8574C55.2966 10.729 55.3132 10.5931 55.3026 10.458C55.3049 10.2972 55.3268 10.1373 55.368 9.98189C55.4003 9.90978 55.4152 9.83104 55.4115 9.75206C55.4064 9.50142 55.4432 9.25169 55.5204 9.01331C55.5694 8.87103 55.5204 8.70686 55.5858 8.55911C55.6311 8.26226 55.6493 7.96186 55.6402 7.66167C55.6704 7.50849 55.7141 7.35832 55.7709 7.21294C55.7866 7.18192 55.7976 7.14873 55.8036 7.11444C55.7654 6.73686 55.8852 6.37022 55.8634 6.02C55.8497 5.91167 55.8667 5.80166 55.9124 5.70261C55.9621 5.59872 55.9846 5.48384 55.9778 5.3688C55.9834 5.26162 55.9998 5.15528 56.0268 5.05141C56.0268 4.94744 55.9778 4.83252 56.0812 4.7395V4.25794L55.8798 4.03358C55.7264 4.12031 55.5521 4.16264 55.3762 4.15588C55.2003 4.14911 55.0298 4.09352 54.8834 3.99527C54.7567 3.93742 54.6348 3.86973 54.5186 3.7928C54.3823 3.62348 54.316 3.40795 54.3335 3.19086C54.304 3.076 54.304 2.95549 54.3335 2.84063C54.4132 2.62916 54.5442 2.44105 54.7146 2.29341C54.8126 2.20585 54.9542 2.16208 55.0358 2.06358C55.1474 1.94962 55.2925 1.87478 55.4496 1.85016C55.6075 1.80638 55.7273 1.70241 55.8798 1.66958C55.9887 1.50541 56.1847 1.49446 56.3426 1.45069C56.6225 1.39195 56.8988 1.31704 57.1702 1.22632C57.3347 1.18948 57.5025 1.16931 57.6711 1.16613C57.9188 1.15153 58.1648 1.1149 58.4061 1.05669C58.4804 1.05122 58.555 1.05122 58.6294 1.05669C58.7818 1.05669 58.9343 0.996491 59.1085 0.963658C59.1847 1.0348 59.3099 1.00744 59.4243 1.00196C59.6203 1.00196 59.8217 0.947241 60.0776 0.908936L60.4424 1.05669H60.9869C61.2246 1.06631 61.4579 1.12401 61.6729 1.22632C61.8472 1.29746 62.0323 1.34124 62.2174 1.40144C62.5159 1.48149 62.8031 1.59917 63.0722 1.75166C63.3975 1.96023 63.6988 2.20432 63.9706 2.47947C64.1344 2.64754 64.2821 2.83076 64.4116 3.02669C64.4715 3.11424 64.526 3.21822 64.5859 3.31672C64.6805 3.50409 64.7361 3.70893 64.7492 3.91866C64.7403 4.08111 64.7587 4.24391 64.8036 4.40022C64.8526 4.49872 64.771 4.60816 64.7546 4.71213C64.7136 4.98737 64.6367 5.25599 64.526 5.51108C64.4715 5.626 64.3898 5.73544 64.33 5.85036C64.2781 5.95882 64.2326 6.07029 64.1938 6.18416C64.1938 6.24983 64.1938 6.33739 64.1285 6.37569C63.9379 6.55628 63.8236 6.80253 63.6385 6.98311C63.5155 7.11613 63.3786 7.23539 63.2301 7.3388C63.0591 7.45403 62.9113 7.60071 62.7945 7.77111C62.6902 7.92154 62.5522 8.04525 62.3916 8.13228C62.2955 8.17572 62.2072 8.23489 62.1303 8.30739C61.9397 8.52081 61.6512 8.61931 61.4552 8.85461C61.4987 8.91481 61.5477 8.96406 61.5749 8.99689C61.664 9.03113 61.7549 9.06036 61.8472 9.08445L62.2719 9.19936C62.4448 9.21937 62.6147 9.25978 62.7782 9.31975C63.0412 9.40902 63.2891 9.5382 63.5132 9.70281C63.5622 9.74659 63.633 9.77942 63.682 9.82867C63.8334 9.97898 64.0058 10.1062 64.1938 10.2063C64.3411 10.3053 64.458 10.4436 64.5314 10.6057C64.5816 10.7368 64.6554 10.8574 64.7492 10.9614C64.7492 10.9614 64.7492 11.0052 64.7492 11.0161C64.8363 11.1529 64.8309 11.3171 64.9125 11.4539C64.977 11.5884 65.0193 11.7326 65.0378 11.8808C65.0678 11.9937 65.0678 12.1126 65.0378 12.2255C65.0159 12.3834 65.0159 12.5437 65.0378 12.7016C65.0469 12.9244 65.0079 13.1466 64.9234 13.3528C64.9234 13.4239 64.8363 13.4896 64.8145 13.5607C64.7928 13.6319 64.7655 13.8015 64.7329 13.9547C64.6835 14.0124 64.6397 14.0747 64.6022 14.1408C64.5508 14.2702 64.5108 14.4039 64.4824 14.5403C64.4296 14.7485 64.3203 14.938 64.1666 15.0875C63.9477 15.3275 63.7543 15.5897 63.5895 15.87C63.5502 15.9212 63.5065 15.9688 63.4588 16.0123C63.2628 16.2312 63.0396 16.4227 62.8599 16.658C62.6513 16.8828 62.4195 17.0846 62.1684 17.26C61.9565 17.435 61.7347 17.5976 61.5042 17.747C61.1829 17.9713 60.8508 18.1793 60.5187 18.3982C60.4372 18.4457 60.3459 18.4738 60.2519 18.4803C60.1544 18.486 60.0628 18.5291 59.996 18.6007C59.8245 18.7815 59.5951 18.8959 59.3481 18.9235C59.1039 18.9761 58.8678 19.0607 58.6457 19.1752C58.4453 19.2819 58.2278 19.3523 58.0032 19.3832C57.8777 19.4128 57.7555 19.4549 57.6384 19.509C57.6003 19.509 57.535 19.5583 57.5186 19.5419C57.388 19.427 57.2682 19.5419 57.143 19.5419C57.0177 19.5419 56.8925 19.4926 56.7727 19.5857C56.6529 19.6787 56.6475 19.5857 56.5821 19.5857H55.3026C55.2283 19.5911 55.1537 19.5911 55.0794 19.5857C55.0197 19.5808 54.9619 19.5621 54.9106 19.5309C54.8235 19.4653 54.7092 19.5309 54.6275 19.4707C54.5381 19.4329 54.4412 19.416 54.3444 19.4215C54.1802 19.399 54.0194 19.3567 53.8652 19.2956C53.6179 19.211 53.3901 19.077 53.1955 18.9016C53.156 18.8824 53.1138 18.8695 53.0703 18.8633L53.0758 18.3489ZM57.6547 11.4922C57.6547 11.8643 57.6057 12.2091 57.584 12.5538C57.5897 12.5809 57.5897 12.6089 57.584 12.6359C57.5037 12.8258 57.4683 13.0319 57.4805 13.2379C57.4941 13.2991 57.4941 13.3627 57.4805 13.4239C57.4009 13.6853 57.3534 13.9554 57.339 14.2283C57.3055 14.4806 57.2855 14.7345 57.2791 14.989C57.2791 14.989 57.2791 15.0218 57.2791 15.0382C57.2137 15.2188 57.1212 15.3939 57.2301 15.5855C57.2407 15.6118 57.2407 15.6412 57.2301 15.6675C57.1713 15.8807 57.1312 16.0986 57.1103 16.3187C57.0667 16.5267 57.1103 16.7292 57.0613 16.9262L57.143 17.0028C57.3509 17.0151 57.5572 16.9594 57.731 16.8441C57.8303 16.8579 57.9311 16.8579 58.0304 16.8441C58.1938 16.7948 58.3517 16.7182 58.5096 16.658C58.6235 16.5981 58.7418 16.5469 58.8635 16.5048C58.9941 16.472 59.0922 16.3516 59.2337 16.3187C59.3244 16.2965 59.4122 16.2634 59.4951 16.2202C59.5905 16.1793 59.6802 16.1259 59.7618 16.0615C59.8253 15.9975 59.9072 15.9554 59.996 15.9411C60.0617 15.9192 60.1201 15.8794 60.1648 15.8262C60.2953 15.7032 60.4376 15.5932 60.5894 15.4979C60.7263 15.3821 60.8505 15.2518 60.9597 15.1094C61.0977 14.9953 61.2269 14.8709 61.3463 14.7373C61.4261 14.6202 61.5278 14.5198 61.6457 14.4418C61.8044 14.324 61.9331 14.1703 62.0214 13.993C62.1658 13.7084 62.2949 13.4161 62.408 13.1175C62.5615 12.8068 62.6363 12.4628 62.6258 12.1161C62.3764 11.8667 62.0725 11.6793 61.7383 11.5688C61.5643 11.5008 61.3803 11.462 61.1938 11.4539C61.1019 11.4375 61.0123 11.4099 60.927 11.3718C60.7203 11.3622 60.5146 11.3366 60.3118 11.2952C60.1957 11.2651 60.0739 11.2651 59.9579 11.2952C59.8217 11.2952 59.7128 11.2296 59.5876 11.235C59.1412 11.235 58.7001 11.235 58.2537 11.235C58.1516 11.2302 58.0498 11.2483 57.9556 11.2881C57.8614 11.3278 57.7772 11.3882 57.7092 11.4649M62.114 3.95697C61.9288 3.95697 61.8308 3.79827 61.6239 3.73261C61.5018 3.73359 61.3822 3.69734 61.2809 3.62863C61.0577 3.48636 60.9869 3.49183 60.6276 3.50824C60.6276 3.50824 60.5786 3.50824 60.5731 3.50824C60.4479 3.40427 60.3063 3.46447 60.1756 3.45899C60.0476 3.42339 59.9162 3.40138 59.7836 3.39333C59.655 3.43422 59.5211 3.45633 59.3862 3.45899C59.2703 3.44785 59.1536 3.44785 59.0377 3.45899L58.7546 3.69977C58.7225 3.81761 58.7042 3.93883 58.7001 4.06094C58.7001 4.19227 58.6294 4.30719 58.6457 4.42758C58.6554 4.59129 58.6313 4.75525 58.5749 4.90914C58.542 5.02842 58.5273 5.15205 58.5313 5.27577C58.4924 5.555 58.4724 5.83655 58.4715 6.1185C58.4769 6.13633 58.4769 6.15539 58.4715 6.17322C58.3244 6.37022 58.3843 6.62194 58.3081 6.83536C58.2817 6.9191 58.2634 7.00524 58.2537 7.09255C58.2613 7.22759 58.2447 7.3629 58.2047 7.49203C58.1666 7.56864 58.2047 7.67808 58.1448 7.77111C58.129 7.80274 58.1241 7.83876 58.131 7.87347C58.1379 7.90817 58.1562 7.93956 58.1829 7.96264C58.2576 7.98201 58.3356 7.98519 58.4116 7.97198C58.4876 7.95878 58.56 7.92948 58.6239 7.88603C58.711 7.84225 58.7546 7.76017 58.8308 7.71639C59.1629 7.52486 59.4787 7.30597 59.8 7.09255C59.8438 7.06654 59.8857 7.03727 59.9252 7.005C60.0053 6.92071 60.1016 6.85368 60.2083 6.808C60.3915 6.75902 60.5504 6.64412 60.6548 6.48514C60.731 6.32644 60.8835 6.26625 60.9978 6.16775L61.2428 5.9598C61.5647 5.66381 61.8516 5.33145 62.0976 4.96933C62.2017 4.87144 62.2771 4.74669 62.3155 4.6087C62.3539 4.47071 62.3539 4.32477 62.3154 4.1868C62.3154 4.1868 62.3154 4.1868 62.3154 4.15944L62.114 3.96244" fill="white"/>
<path d="M101.827 19.7444C101.773 19.6459 101.713 19.5583 101.588 19.5747C101.39 19.4149 101.241 19.2026 101.157 18.9619V17.6595C101.186 17.5185 101.206 17.376 101.217 17.2326C101.19 17.0977 101.207 16.9575 101.266 16.8332C101.299 16.7675 101.266 16.669 101.266 16.5869C101.239 16.4497 101.239 16.3083 101.266 16.171C101.326 16.0452 101.266 15.8974 101.364 15.7934C101.364 15.7934 101.364 15.7551 101.364 15.7387C101.364 15.4268 101.397 15.1204 101.424 14.8084C101.447 14.6554 101.478 14.5038 101.517 14.3542C101.485 14.3148 101.465 14.2671 101.459 14.2167C101.454 14.1664 101.462 14.1154 101.484 14.0697C101.586 13.7899 101.621 13.4901 101.588 13.1941C101.597 12.9494 101.651 12.7085 101.745 12.4827C101.745 12.4116 101.686 12.335 101.702 12.2803C101.759 12.0682 101.775 11.8473 101.751 11.6291C101.755 11.5321 101.774 11.4362 101.805 11.3445C101.849 11.2273 101.871 11.1031 101.871 10.9779C101.879 10.8457 101.895 10.7141 101.92 10.5839C101.912 10.447 101.928 10.3099 101.969 10.1789C102.012 10.0968 101.969 9.97646 101.969 9.87796C101.969 9.77946 101.936 9.6536 102.012 9.53321C102.088 9.41282 101.974 9.2979 102.072 9.19393C102.083 9.17282 102.089 9.14935 102.089 9.12553C102.089 9.10171 102.083 9.07824 102.072 9.05712C101.98 8.78204 101.98 8.48402 102.072 8.20893C102.098 8.11612 102.112 8.02061 102.116 7.92437C102.1 7.75472 102.132 7.58397 102.208 7.43187C102.227 7.37135 102.227 7.30634 102.208 7.24582C102.191 6.94482 102.214 6.64284 102.279 6.34837C102.312 6.12948 102.306 5.91059 102.323 5.69718C102.323 5.57132 102.366 5.45093 102.377 5.33054C102.38 5.2141 102.396 5.0984 102.426 4.98579C102.442 4.8385 102.442 4.68982 102.426 4.54254C102.426 4.34554 102.464 4.14854 102.486 3.95154C102.397 3.88836 102.29 3.85573 102.181 3.85851C101.986 3.86609 101.795 3.80833 101.637 3.69434C101.46 3.61144 101.303 3.48992 101.179 3.33865C101.11 3.21919 101.053 3.09261 101.01 2.96106C100.953 2.85803 100.93 2.739 100.945 2.62178C100.978 2.48498 100.945 2.3427 100.994 2.19495C101.025 2.0948 101.09 2.00923 101.179 1.95417C101.304 1.87756 101.424 1.77906 101.549 1.68603L101.702 1.64226C102.073 1.51375 102.456 1.4239 102.845 1.37412C103.21 1.33581 103.575 1.37412 103.934 1.33581C104.043 1.33581 104.13 1.2592 104.245 1.27562C104.343 1.27984 104.441 1.26497 104.533 1.23184C104.592 1.20737 104.657 1.19805 104.72 1.20474C104.784 1.21143 104.845 1.2339 104.898 1.27014C104.944 1.29684 104.997 1.3101 105.05 1.30845H105.709C105.774 1.30845 105.851 1.26467 105.916 1.30845C106.166 1.37412 106.428 1.36317 106.678 1.42337C106.929 1.48356 107.223 1.53828 107.49 1.60942C107.54 1.61466 107.591 1.61466 107.642 1.60942C107.817 1.62334 107.988 1.66778 108.148 1.74076C108.242 1.78317 108.341 1.81439 108.442 1.83378C108.703 1.84848 108.956 1.92339 109.183 2.05267C109.339 2.12394 109.502 2.1825 109.667 2.22778C109.775 2.25731 109.88 2.29955 109.978 2.35365C110.075 2.42646 110.183 2.48199 110.299 2.51781C110.434 2.56044 110.556 2.63777 110.653 2.74217C110.749 2.83841 110.853 2.92628 110.963 3.00484C111.237 3.21423 111.484 3.45685 111.698 3.72718C111.834 3.86911 111.961 4.01894 112.079 4.1759C112.129 4.24388 112.188 4.30465 112.254 4.35648C112.295 4.39039 112.329 4.43288 112.352 4.48106C112.376 4.52923 112.388 4.58193 112.39 4.63556C112.389 4.67998 112.398 4.72403 112.416 4.76466C112.434 4.80529 112.46 4.84153 112.493 4.87087C112.69 5.10622 112.795 5.40601 112.787 5.71359L113 6.13496V8.63029C112.874 8.71785 113 8.87107 112.902 8.98599C112.804 9.1009 112.951 9.20488 112.902 9.32527C112.902 9.32527 112.902 9.38546 112.902 9.40735C112.778 9.68364 112.681 9.97137 112.613 10.2665C112.568 10.368 112.535 10.4746 112.515 10.5839C112.502 10.7067 112.465 10.8257 112.406 10.9341C112.232 11.3062 112.101 11.7002 111.9 12.0669C111.85 12.1377 111.806 12.2128 111.769 12.2912C111.726 12.4116 111.698 12.5429 111.671 12.636L111.197 13.2543C111.17 13.2883 111.15 13.3274 111.138 13.3692C111.063 13.5963 110.936 13.8025 110.767 13.9712C110.648 14.1135 110.541 14.2654 110.446 14.4254C110.358 14.588 110.252 14.7403 110.13 14.8796C109.989 15.0437 109.831 15.1915 109.695 15.3666C109.559 15.5417 109.488 15.6347 109.39 15.7715C109.315 15.8568 109.227 15.929 109.128 15.985C109.096 16.0123 109.041 16.0233 109.025 16.0561C108.818 16.3392 108.577 16.5948 108.306 16.8167C108.157 16.9414 108.02 17.0808 107.898 17.2326C107.801 17.3362 107.689 17.4247 107.566 17.4953C107.521 17.5237 107.479 17.5567 107.441 17.5938C107.327 17.733 107.176 17.8357 107.005 17.8893C106.903 17.9206 106.812 17.9815 106.744 18.0644C106.6 18.2266 106.426 18.3587 106.232 18.4529C106.055 18.5574 105.874 18.6524 105.687 18.7375C105.453 18.836 105.235 18.9783 104.99 19.0713C104.822 19.1551 104.662 19.254 104.511 19.3668C104.363 19.3877 104.217 19.4244 104.076 19.4762C103.93 19.5409 103.772 19.5726 103.613 19.5693H103.335C103.275 19.6623 103.134 19.624 103.085 19.7334L101.827 19.7444ZM103.88 16.9645C104.011 16.8989 104.137 16.822 104.255 16.7347C104.491 16.5696 104.736 16.4197 104.99 16.2859C105.039 16.2531 105.127 16.2586 105.154 16.2203C105.276 16.103 105.416 16.0052 105.568 15.9302L106.03 15.6293C106.169 15.5376 106.289 15.4207 106.384 15.2845C106.52 15.0875 106.755 14.9726 106.885 14.7701C106.899 14.745 106.92 14.7241 106.945 14.7099C107.165 14.5712 107.352 14.3841 107.49 14.1627C107.653 13.9361 107.835 13.7237 108.034 13.5279C108.159 13.4007 108.264 13.2549 108.344 13.0956C108.419 12.9539 108.512 12.8232 108.622 12.7071C108.687 12.6414 108.742 12.5539 108.807 12.4773C108.981 12.2803 109.058 12.0067 109.27 11.8315C109.314 11.7908 109.345 11.7373 109.357 11.6783C109.412 11.4732 109.517 11.2851 109.662 11.1311C109.707 11.0889 109.738 11.0333 109.749 10.9724C109.774 10.8442 109.826 10.7228 109.902 10.6167C109.902 10.551 109.951 10.4854 109.972 10.4197C110.001 10.294 110.041 10.1712 110.092 10.0531C110.271 9.71609 110.366 9.3406 110.37 8.95863C110.55 8.64403 110.644 8.28722 110.642 7.92437C110.669 7.76021 110.604 7.57962 110.696 7.41546C110.707 7.39532 110.713 7.37274 110.713 7.34979C110.713 7.32684 110.707 7.30426 110.696 7.28412C110.631 7.22393 110.653 7.14732 110.653 7.08165C110.664 6.86731 110.631 6.65294 110.555 6.45234C110.532 6.34984 110.501 6.24924 110.462 6.15137C110.402 6.0474 110.326 5.9489 110.272 5.83946C110.131 5.5491 109.932 5.29039 109.689 5.07882C109.374 4.84565 109.038 4.64058 108.687 4.46593C108.687 4.46593 108.644 4.41668 108.628 4.41668C108.414 4.37761 108.208 4.30368 108.018 4.19779C107.871 4.14754 107.722 4.10552 107.571 4.07192L106.972 3.90776C106.853 3.86828 106.728 3.84797 106.602 3.84756C106.363 3.89026 106.116 3.85377 105.9 3.74359C105.882 3.73811 105.863 3.73811 105.845 3.74359C105.567 3.70268 105.282 3.75255 105.034 3.88587C105.018 3.95096 104.998 4.01494 104.974 4.0774C104.918 4.30817 104.9 4.5466 104.92 4.78331C104.936 4.87378 104.936 4.96646 104.92 5.05693C104.864 5.1854 104.829 5.32215 104.816 5.46187C104.828 5.61361 104.81 5.76625 104.762 5.91059C104.764 6.2872 104.744 6.6636 104.702 7.03787C104.702 7.21298 104.669 7.39357 104.647 7.5851C104.533 7.65076 104.62 7.7821 104.549 7.8806C104.526 7.93045 104.518 7.98591 104.526 8.04029C104.534 8.09467 104.557 8.14564 104.593 8.18704C104.598 8.20301 104.598 8.22032 104.593 8.23629C104.49 8.34574 104.593 8.50443 104.522 8.59746C104.451 8.69049 104.522 8.83824 104.522 8.95315C104.527 8.98762 104.527 9.02265 104.522 9.05712C104.43 9.33407 104.382 9.62413 104.381 9.91627C104.392 10.1625 104.37 10.4092 104.315 10.6495C104.265 10.8273 104.248 11.0129 104.266 11.1968C104.266 11.3172 104.266 11.4375 104.266 11.5579C104.266 11.6826 104.246 11.8063 104.206 11.9246C104.16 12.0559 104.127 12.1916 104.108 12.3295C104.095 12.4769 104.095 12.6253 104.108 12.7728C104.108 12.8165 104.07 12.8549 104.07 12.8986C104.07 13.0409 103.929 13.1613 104.07 13.3255C104.092 13.3727 104.103 13.424 104.103 13.4759C104.103 13.5279 104.092 13.5792 104.07 13.6264C103.977 13.8894 103.94 14.169 103.961 14.4473C103.967 14.5624 103.938 14.6765 103.88 14.7756C103.857 14.8188 103.847 14.8678 103.852 14.9166C103.857 14.9653 103.876 15.0115 103.907 15.0492C103.853 15.3174 103.798 15.5581 103.76 15.7989C103.722 16.0397 103.798 16.1437 103.705 16.3078C103.705 16.3078 103.705 16.379 103.705 16.4063C103.738 16.4669 103.755 16.5346 103.755 16.6033C103.755 16.6721 103.738 16.7398 103.705 16.8003L103.88 16.9645Z" fill="white"/>
<path d="M97.8206 19.7442C97.7825 19.6402 97.6518 19.7442 97.6028 19.6348C97.4456 19.6115 97.2966 19.5493 97.1693 19.4538C97.0419 19.3583 96.9402 19.2324 96.8732 19.0875C96.8732 19 96.8351 18.9015 96.9222 18.8139C97.0094 18.7264 96.9222 18.7428 96.9222 18.7045C96.9222 18.5786 96.8351 18.4692 96.8678 18.3378C96.874 18.2226 96.8455 18.1082 96.7861 18.0095C96.7727 17.9823 96.7657 17.9523 96.7657 17.922C96.7657 17.8916 96.7727 17.8616 96.7861 17.8344C96.8366 17.7403 96.8662 17.6362 96.8728 17.5294C96.8794 17.4227 96.8628 17.3157 96.8242 17.216C96.8049 17.1691 96.7973 17.1182 96.8021 17.0676C96.8068 17.0171 96.8238 16.9685 96.8515 16.926C96.8659 16.8741 96.8659 16.8192 96.8515 16.7673C96.8305 16.5855 96.8305 16.4019 96.8515 16.2201C96.9114 15.952 96.797 15.6729 96.8515 15.4266C96.8515 15.3664 96.8133 15.2953 96.8025 15.2296C96.7975 15.0764 96.8235 14.9238 96.8787 14.7809C96.9166 14.6842 96.9166 14.5766 96.8787 14.4799C96.873 14.4363 96.873 14.3922 96.8787 14.3486C96.8959 14.204 96.8772 14.0573 96.8242 13.9218C96.808 13.8776 96.808 13.8291 96.8242 13.785C96.8856 13.5644 96.904 13.334 96.8787 13.1064C96.8787 12.8383 96.8787 12.5592 96.8787 12.2965C96.8787 12.1925 96.846 12.0886 96.8297 11.9736C96.7245 11.9793 96.6191 11.9793 96.5139 11.9736C96.356 11.9736 96.2035 11.9189 96.0456 11.897C95.9694 11.897 95.866 11.8368 95.8115 11.8697C95.7571 11.9025 95.5828 11.908 95.4685 11.9189C95.3258 11.9175 95.1833 11.9322 95.0438 11.9627C94.9858 11.9923 94.9205 12.0045 94.8558 11.9977C94.7911 11.9909 94.7297 11.9654 94.679 11.9244C94.679 11.9244 94.6246 11.9244 94.5974 11.9244C94.3321 11.9901 94.0573 12.0068 93.7861 11.9736C93.5084 11.9736 93.2416 11.9736 92.9531 11.9736C92.6645 11.9736 92.5229 12.0065 92.3106 12.0284C92.2571 12.044 92.2071 12.07 92.1636 12.105C92.0746 12.288 92.007 12.4809 91.9621 12.6796C91.9267 12.8941 91.8776 13.1061 91.8151 13.3143C91.7498 13.5168 91.728 13.7248 91.6518 13.9218C91.6046 14.038 91.5823 14.1629 91.5864 14.2884C91.5682 14.4798 91.5127 14.6657 91.4231 14.8356L91.483 14.9177C91.409 15.1621 91.3491 15.4106 91.3033 15.6619C91.2859 15.937 91.1936 16.2021 91.0365 16.428C91.0404 16.7784 90.9757 17.1261 90.846 17.4513C90.7981 17.5737 90.7705 17.7031 90.7643 17.8344C90.7607 17.9752 90.7213 18.1127 90.6499 18.2339C90.4828 18.5351 90.2612 18.8023 89.9966 19.0219C89.9214 19.0928 89.8264 19.1386 89.7243 19.1532C89.5665 19.1532 89.4031 19.1532 89.2507 19.1532C89.1155 19.1881 88.9764 19.2047 88.8369 19.2025C88.5701 19.0438 88.2379 18.9672 88.1182 18.6169C88.1182 18.4911 88.1563 18.3707 88.1889 18.2503C88.224 18.0001 88.2786 17.7531 88.3523 17.5115L88.4666 17.2872C88.4425 17.1846 88.4425 17.0778 88.4666 16.9753C88.5156 16.8658 88.4666 16.7345 88.5646 16.6524C88.5635 16.3594 88.6209 16.0691 88.7334 15.7987C88.6844 15.5415 88.8641 15.3227 88.8532 15.06C88.8826 14.8817 88.9319 14.7073 89.0002 14.5401C89.0508 14.4152 89.075 14.281 89.071 14.1461C89.0645 14.0844 89.0799 14.0224 89.1145 13.971C89.1799 13.8233 89.1962 13.6482 89.2615 13.5059C89.3269 13.3636 89.2615 13.2432 89.3378 13.1119C89.4015 12.9931 89.4245 12.8566 89.4031 12.7233C89.4019 12.6422 89.4186 12.5619 89.4521 12.488C89.5066 12.3348 89.5229 12.1652 89.5719 12.0065C89.6209 11.8478 89.6645 11.7493 89.7026 11.6125C89.7407 11.4757 89.7026 11.3389 89.806 11.2075C89.8721 11.0847 89.9076 10.9477 89.9095 10.8081C89.9438 10.6683 89.997 10.5339 90.0674 10.4086V10.1733C90.0708 10.112 90.0875 10.0523 90.1164 9.99817C90.1946 9.8591 90.2394 9.70355 90.247 9.54398C90.2558 9.38877 90.2986 9.23741 90.3723 9.10073C90.4866 8.85448 90.5356 8.58634 90.6227 8.34009C90.7098 8.09384 90.7262 7.97345 90.7915 7.79287C90.8568 7.61228 90.8786 7.38245 90.9603 7.19092C90.9719 7.13245 90.9901 7.07552 91.0147 7.02128C91.1371 6.80151 91.2287 6.5658 91.287 6.32084C91.3632 6.11289 91.434 5.89948 91.5211 5.69153C91.5604 5.59665 91.5949 5.49985 91.6246 5.4015C91.67 5.21461 91.73 5.03163 91.8042 4.85428C91.9085 4.62636 91.9995 4.39248 92.0765 4.15383C92.1309 4.00638 92.21 3.8694 92.3106 3.74889C92.3939 3.62867 92.4651 3.50034 92.5229 3.36583C92.6311 3.14847 92.7529 2.93828 92.8877 2.73653C92.9694 2.62708 92.9857 2.47386 93.0565 2.35894C93.1273 2.24403 93.2307 2.15647 93.3015 2.04155C93.3685 1.9194 93.4468 1.80396 93.5356 1.6968C93.6326 1.61642 93.7154 1.52023 93.7806 1.41225C93.8188 1.33016 93.944 1.3028 94.0039 1.22619C94.3086 0.906629 94.6807 0.659797 95.0928 0.503858L95.1745 0.454608C95.3377 0.456884 95.5005 0.438498 95.6591 0.399886C95.7952 0.350636 95.9368 0.443663 96.0729 0.471025C96.2249 0.499752 96.3718 0.551409 96.5084 0.624247C96.6446 0.695386 96.7861 0.761053 96.9168 0.843136C96.9973 0.901503 97.072 0.96747 97.14 1.04014C97.14 1.04014 97.14 1.08391 97.14 1.09486C97.4007 1.32679 97.6086 1.61232 97.7498 1.93211C97.788 2.00872 97.8206 2.08533 97.8587 2.16742C97.8754 2.20737 97.8954 2.24581 97.9186 2.28233C98.0538 2.51256 98.1547 2.76145 98.2181 3.02108C98.237 3.05032 98.2465 3.08472 98.2453 3.11958C98.2562 3.36788 98.3213 3.61074 98.4359 3.83097C98.5278 4.02268 98.5796 4.23125 98.5883 4.44386C98.5945 4.5402 98.6109 4.6356 98.6373 4.72842C98.6373 4.81597 98.5992 4.91447 98.6918 4.98561C98.6961 5.13655 98.7144 5.28677 98.7462 5.43434C98.743 5.66741 98.7817 5.89916 98.8606 6.11836C98.8687 6.1636 98.8687 6.20994 98.8606 6.25517C98.8446 6.55122 98.8815 6.84774 98.9694 7.13073C98.9831 7.17717 98.9831 7.22657 98.9694 7.27301C98.9574 7.41483 98.9857 7.55718 99.0511 7.68342C99.0834 7.74959 99.093 7.82463 99.0783 7.89684C99.0351 8.03767 99.0351 8.18832 99.0783 8.32914C99.1026 8.40755 99.1026 8.49152 99.0783 8.56992C99.042 8.65073 99.0231 8.73842 99.0231 8.82712C99.0231 8.91582 99.042 9.0035 99.0783 9.08431C99.1437 9.28131 99.258 9.47831 99.1273 9.69173C99.1218 9.70469 99.1189 9.71866 99.1189 9.73277C99.1189 9.74688 99.1218 9.76085 99.1273 9.77381C99.1532 9.84837 99.1714 9.92538 99.1818 10.0036C99.1818 10.0803 99.1219 10.1623 99.1328 10.2335C99.1655 10.4086 99.1872 10.5837 99.2036 10.7807C99.2036 10.7807 99.2036 10.8081 99.2036 10.7807C99.2036 10.8573 99.1546 10.9285 99.1709 10.9722C99.2331 11.1927 99.2498 11.4236 99.2199 11.6508C99.1893 11.8738 99.1748 12.0987 99.1763 12.3239C99.2198 12.8279 99.2361 13.3339 99.2253 13.8397C99.2253 13.9546 99.2689 14.0695 99.2798 14.179C99.2907 14.2884 99.2798 14.4197 99.3342 14.5237C99.3605 14.7852 99.3346 15.0494 99.258 15.3008C99.2335 15.3458 99.224 15.3976 99.2308 15.4485C99.2824 15.6086 99.2824 15.7809 99.2308 15.941C99.1926 16.1122 99.1926 16.2897 99.2308 16.4609C99.2683 16.621 99.2683 16.7878 99.2308 16.9479C99.1847 17.0789 99.1847 17.2218 99.2308 17.3528C99.2708 17.4548 99.2708 17.5683 99.2308 17.6702C99.2037 17.7557 99.2037 17.8475 99.2308 17.9329C99.2619 18.0317 99.2874 18.1322 99.307 18.2339C99.3138 18.3478 99.2952 18.4619 99.2526 18.5677C99.2165 18.6287 99.1994 18.6993 99.2036 18.7702C99.2054 18.984 99.1647 19.1962 99.0838 19.394C99.0273 19.5134 98.9539 19.624 98.866 19.7223L97.8206 19.7442ZM96.5738 9.4017C96.6213 9.35398 96.6581 9.29654 96.6816 9.23328C96.705 9.17001 96.7147 9.10241 96.7099 9.03506C96.7099 8.90373 96.7099 8.7724 96.7099 8.64106C96.7099 8.50973 96.6718 8.37839 96.6609 8.24706C96.6609 7.98439 96.6173 7.69984 96.601 7.45906C96.604 7.44278 96.604 7.42609 96.601 7.40981C96.5275 7.21779 96.4906 7.0136 96.4921 6.80787C96.5032 6.76479 96.5032 6.7196 96.4921 6.67653C96.4304 6.54815 96.3952 6.40854 96.3887 6.26611C96.3804 6.11576 96.364 5.96597 96.3397 5.81739C96.3397 5.71342 96.3397 5.60945 96.3397 5.51095C96.2957 5.42607 96.2575 5.33831 96.2253 5.24828C96.16 5.10053 96.2253 4.93089 96.1654 4.79956C96.0865 4.57104 96.0496 4.32998 96.0565 4.08817C96.0613 3.99107 96.0345 3.89505 95.9803 3.81456C95.8279 3.66133 95.8496 3.45886 95.7789 3.30017L95.6373 3.12506C95.5502 3.16496 95.475 3.22724 95.4195 3.30564C95.2562 3.57378 95.0438 3.80908 94.875 4.08817C94.8151 4.20308 94.6954 4.2797 94.6518 4.4165C94.6128 4.65098 94.5047 4.8683 94.3415 5.04034C94.3385 5.05662 94.3385 5.0733 94.3415 5.08959L94.0474 5.91589C94.0305 6.00005 93.9972 6.08002 93.9494 6.1512C93.7752 6.34273 93.8242 6.62181 93.6718 6.82428C93.6465 7.08503 93.5607 7.33619 93.4213 7.55756C93.4213 7.58492 93.4213 7.62323 93.3941 7.65606C93.3497 7.85915 93.2802 8.05586 93.1872 8.24159C93.1814 8.25352 93.1784 8.26662 93.1784 8.27989C93.1784 8.29317 93.1814 8.30627 93.1872 8.3182C93.1892 8.52236 93.1304 8.72247 93.0184 8.89278C92.968 8.96621 92.9332 9.04933 92.9163 9.13693C92.8995 9.22452 92.9009 9.31467 92.9204 9.4017C92.9844 9.44851 93.0517 9.49057 93.1218 9.52756C93.1763 9.55492 93.2634 9.58228 93.3015 9.5604C93.4171 9.50651 93.5462 9.48933 93.6718 9.51115C93.855 9.48971 94.0408 9.50838 94.2162 9.56587C94.3197 9.60965 94.4177 9.51662 94.5266 9.51115C94.7707 9.51345 95.0146 9.49699 95.2562 9.4619C95.4857 9.43175 95.7181 9.43175 95.9476 9.4619C96.1763 9.4619 96.3887 9.37434 96.6228 9.40717" fill="white"/>
<path d="M81.3122 12.198C81.1108 12.2528 81.0999 12.4115 81.0781 12.5154C80.9985 12.7912 80.9563 13.0765 80.9529 13.3636C80.9503 13.4783 80.9339 13.5922 80.9039 13.7029C80.9039 13.8069 80.9474 13.9273 80.8494 14.0203C80.8494 14.0203 80.8494 14.075 80.8494 14.1024C80.8876 14.3869 80.7787 14.6496 80.7896 14.9451C80.789 14.9797 80.7796 15.0136 80.7623 15.0436C80.7254 15.1555 80.7254 15.2764 80.7623 15.3884C80.7883 15.4833 80.7883 15.5835 80.7623 15.6784C80.7079 15.7769 80.7623 15.8918 80.7079 15.9629C80.6534 16.0341 80.6752 16.1545 80.6589 16.2475C80.6534 16.3261 80.6311 16.4027 80.5935 16.4719C80.4738 16.6305 80.5935 16.74 80.6534 16.8549C80.6916 16.9088 80.7375 16.9567 80.7896 16.9972C80.9638 16.9972 81.1435 17.0464 81.334 17.0574C81.4235 17.0779 81.5174 17.0622 81.5954 17.0136C81.632 16.9965 81.672 16.9876 81.7124 16.9876C81.7529 16.9876 81.7928 16.9965 81.8295 17.0136C81.8787 17.0378 81.9327 17.0503 81.9874 17.0503C82.0421 17.0503 82.0961 17.0378 82.1453 17.0136C82.228 16.9795 82.3177 16.9663 82.4066 16.9753H83.2124C83.4164 16.9736 83.6187 16.9385 83.8114 16.8713C83.8655 16.8631 83.9206 16.8631 83.9747 16.8713C84.1435 16.8713 84.3068 16.8713 84.4756 16.8713C84.6444 16.8713 84.884 16.8275 85.0909 16.8166C85.2935 16.8386 85.498 16.8386 85.7007 16.8166C85.9614 16.7722 86.2262 16.7575 86.4902 16.7728C86.6634 16.7539 86.8378 16.7951 86.9844 16.8897C87.131 16.9843 87.241 17.1265 87.296 17.2927C87.3094 17.3181 87.3279 17.3405 87.3504 17.3584C87.3632 17.5175 87.325 17.6767 87.2415 17.8125C87.1653 17.9548 87.1816 18.1409 87.0727 18.2722C87.0727 18.2996 87.0727 18.3488 87.0183 18.3598C86.8666 18.4589 86.7292 18.5786 86.6099 18.7155C86.5591 18.7653 86.5002 18.806 86.4357 18.8359L85.717 19.1149C85.6812 19.1232 85.644 19.1232 85.6081 19.1149C85.4666 19.0821 85.3468 19.1751 85.2107 19.1697C85.0798 19.1744 84.9515 19.208 84.835 19.2682C84.7315 19.3119 84.6008 19.2682 84.5028 19.3393C84.2225 19.341 83.9425 19.3593 83.6644 19.394C83.5881 19.394 83.5065 19.394 83.4302 19.3502C83.4016 19.3354 83.3699 19.3276 83.3377 19.3276C83.3055 19.3276 83.2737 19.3354 83.2451 19.3502C83.0797 19.4018 82.9055 19.4185 82.7333 19.3995C82.6026 19.3995 82.472 19.4433 82.3413 19.4542C82.2037 19.4404 82.0651 19.4404 81.9275 19.4542C81.7998 19.4981 81.6641 19.513 81.53 19.498C81.1694 19.4469 80.805 19.4286 80.4411 19.4433C80.3921 19.4433 80.3485 19.3995 80.2941 19.3886C80.0262 19.3515 79.7608 19.2985 79.4992 19.2299C79.4303 19.2044 79.3562 19.1971 79.2838 19.2086C79.2113 19.2201 79.1431 19.25 79.0854 19.2955C78.6959 19.131 78.3588 18.8622 78.1108 18.5185C78.128 18.3187 78.0903 18.1181 78.0019 17.9384C78.0296 17.9013 78.0482 17.8582 78.0563 17.8125C78.0499 17.585 78.0681 17.3575 78.1108 17.134C78.1212 16.9908 78.1394 16.8483 78.1652 16.7072C78.2033 16.5868 78.1325 16.439 78.2251 16.3132C78.2335 16.2864 78.2335 16.2578 78.2251 16.2311C78.1815 15.8973 78.3122 15.5799 78.2795 15.2461C78.2795 15.1421 78.3721 15.0491 78.334 14.9342C78.4592 14.7317 78.334 14.4854 78.4483 14.283C78.4483 14.1516 78.4973 14.0094 78.3993 13.8835C78.3927 13.8709 78.3892 13.8568 78.3892 13.8424C78.3892 13.8281 78.3927 13.814 78.3993 13.8014C78.4919 13.6865 78.3993 13.5223 78.5082 13.4019C78.54 13.3488 78.5587 13.2887 78.5627 13.2268C78.5627 13.1557 78.5627 13.0791 78.5627 13.0079C78.5627 12.8328 78.6008 12.6687 78.6171 12.499C78.5103 12.3565 78.3587 12.2543 78.187 12.209C78.0632 12.1758 77.9492 12.1133 77.8544 12.0266C77.7597 11.94 77.687 11.8318 77.6425 11.711C77.6425 11.6508 77.5772 11.5906 77.5391 11.514C77.5346 11.3959 77.5182 11.2785 77.4901 11.1638C77.4411 11.0379 77.5282 10.8902 77.5772 10.7588C77.6262 10.6275 77.7024 10.5126 77.7569 10.3867C77.7974 10.2832 77.859 10.1893 77.9378 10.1111C78.0166 10.0329 78.1107 9.97206 78.2142 9.93254C78.2414 9.93254 78.2578 9.90518 78.285 9.88876C78.4647 9.84498 78.6661 9.94896 78.8295 9.81215C78.8986 9.72353 78.9334 9.6127 78.9275 9.50023C78.9357 9.36802 78.9521 9.23643 78.9765 9.10623C78.9765 8.9749 78.9765 8.83809 79.0309 8.70676C79.0581 8.65751 79.0309 8.57543 79.0309 8.51523C79.0066 8.32703 79.0408 8.13588 79.1289 7.96801C79.1377 7.93391 79.1377 7.89814 79.1289 7.86404C79.1082 7.61978 79.1284 7.37375 79.1888 7.13623C79.2284 6.87551 79.2466 6.61195 79.2433 6.34823C79.2433 6.08009 79.314 5.80101 79.3522 5.55476C79.3522 5.55476 79.3957 5.50003 79.412 5.47815C79.4284 5.45626 79.3195 5.33587 79.3739 5.24284C79.4497 5.09058 79.48 4.91952 79.461 4.75034C79.4289 4.47188 79.4663 4.18976 79.5699 3.92951C79.5782 3.88428 79.5782 3.83792 79.5699 3.7927C79.5447 3.60508 79.577 3.41417 79.6625 3.24548C79.674 3.17481 79.674 3.10273 79.6625 3.03206C79.6674 2.83128 79.7404 2.63821 79.8694 2.48484C80.0436 2.26943 80.2927 2.12859 80.5663 2.09084C80.6206 2.08044 80.6736 2.06392 80.7242 2.04159C80.7726 2.06942 80.8265 2.08623 80.8821 2.09084C81.1059 2.12907 81.3348 2.12536 81.5573 2.07989C81.6716 2.03064 81.824 2.07989 81.9493 2.0197C81.9493 2.0197 82.0146 2.0197 82.0527 2.0197C82.0908 2.0197 82.1181 2.05253 82.1507 2.0197C82.1834 1.98686 82.3195 1.98139 82.4066 1.96497C82.4937 1.94856 82.57 1.96497 82.6516 1.96497C82.8474 1.90871 83.0548 1.90871 83.2506 1.96497C83.3898 2.01377 83.5414 2.01377 83.6807 1.96497C83.6807 1.96497 83.7297 1.96497 83.7515 1.96497H83.8386C84.4593 2.00875 85.08 1.88836 85.7061 1.90478C85.8199 1.89913 85.933 1.88264 86.0437 1.85553C86.158 1.85553 86.2778 1.88836 86.3867 1.80081C86.3867 1.80081 86.4738 1.80081 86.5228 1.80081C87.0346 1.80081 87.541 1.80081 88.0528 1.80081C88.1419 1.79789 88.2301 1.81865 88.3087 1.861C88.4626 1.94046 88.6101 2.03195 88.7497 2.13461C88.895 2.26471 89.007 2.42799 89.0764 2.6107C89.1472 2.7475 89.0764 2.87884 89.1199 2.97734C89.1635 3.07584 89.0328 3.17434 88.9893 3.26189L89.0328 3.29473C88.9705 3.33443 88.9138 3.38228 88.864 3.437C88.6323 3.6975 88.3323 3.88714 87.9983 3.98423C87.8212 4.04467 87.639 4.08863 87.4539 4.11556C87.178 4.1867 86.8947 4.22527 86.6099 4.23048C86.5337 4.23048 86.4575 4.2852 86.3813 4.27973C86.305 4.27426 86.1635 4.32898 86.0709 4.23048C86.0709 4.23048 85.9947 4.23048 85.962 4.23048C85.6778 4.29237 85.386 4.31082 85.0963 4.2852C84.8281 4.32793 84.5566 4.34625 84.285 4.33992C84.0564 4.45484 83.8168 4.37276 83.5827 4.40012C83.4411 4.40012 83.2941 4.36181 83.158 4.44937C83.1344 4.46139 83.1083 4.46765 83.0818 4.46765C83.0553 4.46765 83.0292 4.46139 83.0055 4.44937C82.9504 4.41468 82.884 4.40291 82.8204 4.41653C82.5716 4.45235 82.3259 4.50724 82.0854 4.5807C81.9329 4.66278 81.9112 4.82148 81.8785 4.96376C81.8703 5.03832 81.8703 5.11356 81.8785 5.18812C81.8756 5.30276 81.8591 5.41665 81.8295 5.5274C81.7957 5.67541 81.7703 5.82522 81.7533 5.97612C81.7252 6.19205 81.7107 6.40955 81.7097 6.62731C81.6973 6.68557 81.6791 6.74242 81.6553 6.79695C81.5991 7.00911 81.5807 7.22955 81.6008 7.44815C81.6099 7.56399 81.5912 7.68032 81.5464 7.78743C81.4906 7.89109 81.4696 8.01008 81.4865 8.12671C81.501 8.16927 81.501 8.21548 81.4865 8.25804C81.4614 8.2857 81.445 8.32014 81.4392 8.3571C81.4334 8.39405 81.4384 8.4319 81.4538 8.46598C81.5109 8.61382 81.5109 8.77781 81.4538 8.92565C81.4157 9.04057 81.4538 9.18832 81.383 9.28682C81.3122 9.38532 81.383 9.52212 81.334 9.64251L81.5518 9.83951H82.913C82.9993 9.8289 83.0848 9.81245 83.1689 9.79026C83.2614 9.78479 83.3541 9.78479 83.4466 9.79026C83.517 9.79696 83.5864 9.81164 83.6535 9.83404C83.7779 9.87762 83.9083 9.90162 84.04 9.90518C84.6335 9.90518 85.2324 9.90518 85.8259 9.90518C85.9324 9.89384 86.0399 9.9128 86.1363 9.9599C86.2135 9.99991 86.2999 10.0188 86.3867 10.0146C86.4847 10.0146 86.5609 10.0693 86.6426 10.0693C86.7448 10.0819 86.8422 10.1201 86.9259 10.1803C87.0096 10.2406 87.077 10.3209 87.1217 10.4141L87.2306 10.5564C87.2501 10.8609 87.1635 11.1627 86.9856 11.41C86.9622 11.4682 86.9291 11.5219 86.8876 11.5687C86.7678 11.7001 86.6971 11.8916 86.4684 11.9025C86.2798 11.8896 86.0914 11.9294 85.9239 12.0175C85.8991 12.0254 85.8725 12.0254 85.8477 12.0175C85.6081 11.9846 85.3849 12.0941 85.1453 12.0777C85.1114 12.0817 85.0784 12.0909 85.0473 12.105C84.7634 12.2146 84.4492 12.2146 84.1653 12.105C84.1157 12.0889 84.0646 12.0779 84.0128 12.0722C83.9257 12.0722 83.844 12.1105 83.7569 12.1269C83.6698 12.1433 83.5936 12.0886 83.5282 12.1762C83.3322 12.1433 83.1362 12.3348 82.9402 12.1762C82.6571 12.1762 82.3957 12.1762 82.1017 12.1762C82.024 12.1835 81.9492 12.2098 81.8839 12.2528C81.8361 12.2782 81.7829 12.2914 81.7288 12.2914C81.6747 12.2914 81.6214 12.2782 81.5736 12.2528C81.4593 12.1871 81.3558 12.2528 81.285 12.2145" fill="white"/>
<path d="M77.2014 4.81062C77.2152 4.75864 77.2152 4.7039 77.2014 4.65192C77.1376 4.5152 77.1077 4.365 77.1143 4.21415C77.1226 4.17815 77.1226 4.1407 77.1143 4.1047C76.9816 3.76403 76.8118 3.43919 76.6079 3.13612C76.5165 3.03924 76.4311 2.9369 76.352 2.82967C76.3001 2.72175 76.2238 2.62749 76.1293 2.55434C76.0348 2.4812 75.9246 2.4312 75.8075 2.40831C75.7899 2.40232 75.7746 2.39082 75.764 2.37548C75.5669 2.21896 75.3438 2.09856 75.1052 2.01978C74.8384 1.88298 74.5607 1.76806 74.283 1.64767C74.1687 1.60936 74.0489 1.64767 73.9237 1.57106C73.8262 1.53377 73.7231 1.51341 73.6188 1.51086L72.9436 1.45614H72.8728C72.6257 1.39373 72.3747 1.34802 72.1215 1.31934C72.0888 1.31934 72.0344 1.31934 72.018 1.31934C72.0017 1.31934 71.8275 1.36859 71.7295 1.36859H70.9944C70.9348 1.36103 70.8744 1.36103 70.8147 1.36859C70.7477 1.40107 70.6741 1.41794 70.5997 1.41794C70.5252 1.41794 70.4517 1.40107 70.3846 1.36859C70.1684 1.47296 69.9329 1.53074 69.6931 1.53823C69.6049 1.52223 69.5146 1.52223 69.4263 1.53823C69.2045 1.62116 68.9713 1.66915 68.7349 1.6805C68.6915 1.67523 68.6476 1.67523 68.6042 1.6805C68.2959 1.78025 68.0395 1.99865 67.8909 2.28792C67.7529 2.57373 67.6733 2.88449 67.6568 3.20178C67.6568 3.32764 67.6568 3.46445 67.6078 3.60126C67.5588 3.73806 67.6078 3.85845 67.5534 3.99526C67.5397 4.1293 67.5508 4.26473 67.586 4.39473C67.5186 4.49016 67.4705 4.59801 67.4445 4.71212C67.4445 4.87628 67.3737 5.02951 67.3791 5.1882C67.3846 5.3469 67.3791 5.52748 67.3791 5.69165C67.3903 5.83459 67.364 5.97798 67.3029 6.10754C67.27 6.1715 67.2585 6.24444 67.2702 6.31548C67.3084 6.44774 67.3084 6.58816 67.2702 6.72043C67.2855 6.9797 67.2447 7.23922 67.1505 7.48107C67.1505 7.76562 67.0579 8.02829 67.0906 8.32926C67.1147 8.44462 67.0973 8.56484 67.0416 8.66854C66.9889 8.78303 66.9682 8.90977 66.9817 9.03518C66.9971 9.11469 66.9971 9.19645 66.9817 9.27596C66.9352 9.40818 66.9077 9.54637 66.9 9.68637C66.8991 9.93143 66.8846 10.1762 66.8564 10.4197C66.8219 10.6809 66.8037 10.9441 66.802 11.2077C66.7431 11.5122 66.7193 11.8225 66.7312 12.1325C66.7312 12.1325 66.7312 12.1817 66.7312 12.1872C66.7312 12.1927 66.6931 12.3623 66.6768 12.4444C66.6604 12.5265 66.6387 12.6195 66.6223 12.7016C66.5994 12.7954 66.5813 12.8904 66.5679 12.9861C66.5679 13.1667 66.606 13.3528 66.508 13.5334C66.5034 13.8208 66.4687 14.1069 66.4045 14.387C66.3681 14.7123 66.3482 15.0392 66.3446 15.3665C66.3608 15.492 66.34 15.6195 66.2848 15.7332C66.2372 15.8395 66.2184 15.9565 66.2303 16.0725C66.2303 16.4008 66.1922 16.7291 66.1759 17.0575C66.1759 17.0575 66.1759 17.1012 66.1759 17.1122C66.0506 17.2435 66.1759 17.4077 66.0996 17.5554C66.0556 17.7063 66.0445 17.865 66.067 18.0206C66.0681 18.1963 66.1212 18.3677 66.2194 18.5131C66.3023 18.6137 66.3953 18.7054 66.4971 18.7867C66.5599 18.8489 66.6368 18.8949 66.7213 18.9206C66.8057 18.9464 66.895 18.9511 66.9817 18.9344C67.0733 18.8982 67.1724 18.8851 67.2702 18.8961C67.3951 18.8998 67.5193 18.8774 67.635 18.8305C67.741 18.7704 67.8574 18.7314 67.9781 18.7156C68.0379 18.7156 68.0978 18.6499 68.1523 18.6061C68.2067 18.5623 68.2884 18.4802 68.3592 18.4201H68.3265L68.4572 18.1246C68.4572 18.1246 68.4572 18.0425 68.4572 18.0042C68.5715 17.7689 68.4572 17.5062 68.5552 17.2599C68.6096 17.1067 68.5552 16.9261 68.6151 16.7565C68.6513 16.6375 68.6714 16.5142 68.675 16.3899C68.675 16.2585 68.675 16.1272 68.675 15.9959C68.6615 15.8615 68.6821 15.726 68.7349 15.6019C68.7745 15.5223 68.7915 15.4333 68.7839 15.3447C68.7839 15.3009 68.7839 15.2352 68.7839 15.2079C68.8764 15.0929 68.7839 14.9507 68.8438 14.8412C68.8838 14.7121 68.9004 14.5768 68.8928 14.4417V14.2283C68.8857 14.1413 68.9068 14.0544 68.9529 13.9804C68.999 13.9065 69.0677 13.8495 69.1487 13.8179C69.3028 14.0424 69.4739 14.2546 69.6605 14.4527C69.8783 14.6606 70.0144 14.9288 70.2049 15.1531C70.3955 15.3775 70.4663 15.5143 70.6242 15.673C70.6732 15.7168 70.7385 15.7551 70.7603 15.8098C70.8365 15.9904 71.0053 16.0834 71.1196 16.2202C71.1578 16.264 71.2449 16.2749 71.2667 16.3242C71.426 16.5608 71.6228 16.7697 71.8492 16.9425C72.0387 17.0669 72.2077 17.2201 72.3501 17.3967C72.4164 17.4952 72.5089 17.5729 72.6169 17.6211C72.7936 17.6817 72.9413 17.8067 73.0307 17.9713C73.0754 18.0403 73.1349 18.0983 73.205 18.141C73.3538 18.2495 73.5083 18.35 73.6678 18.4419C73.8202 18.524 73.9291 18.6718 74.1088 18.721C74.2633 18.7576 74.4036 18.8395 74.5117 18.9563C74.5634 19.0049 74.6314 19.0323 74.7023 19.0329C75.0398 18.9946 75.3665 19.115 75.666 19.0931C75.7321 19.0594 75.7958 19.021 75.8565 18.9782C75.9545 18.9071 76.058 18.8305 76.1506 18.7484C76.2175 18.6928 76.2649 18.617 76.2855 18.5322C76.3061 18.4474 76.2988 18.3581 76.2649 18.2778C76.2268 18.1793 76.2649 18.0808 76.2268 18.0096C76.1887 17.9385 76.156 17.8892 76.1179 17.84C75.8938 17.5564 75.6883 17.2584 75.5026 16.948C75.4883 16.9138 75.4635 16.8851 75.4318 16.8659C75.2086 16.7893 75.1106 16.5595 74.9146 16.4391C74.7295 16.2988 74.5613 16.1372 74.4137 15.9575C74.3695 15.8968 74.3163 15.8432 74.2558 15.7989C74.0271 15.6566 73.8529 15.4432 73.6351 15.2845C73.6351 15.2845 73.5589 15.2297 73.5589 15.2024C73.5589 15.0765 73.4119 15.0546 73.3846 14.9397C73.3574 14.8248 73.2267 14.8193 73.1342 14.7755C73.0946 14.7486 73.0597 14.7153 73.0307 14.677C72.8942 14.5452 72.7686 14.4025 72.655 14.2502C72.5903 14.163 72.5065 14.0918 72.41 14.0423C72.3175 13.9875 72.263 13.8672 72.1923 13.7741C72.1215 13.6811 71.9962 13.495 71.8819 13.3747C71.6854 13.1813 71.5234 12.9555 71.4028 12.707C71.4028 12.6523 71.3102 12.614 71.2667 12.5648C71.162 12.4795 71.0844 12.3654 71.0434 12.2364C71.0434 12.1653 70.9509 12.1106 70.9127 12.0394C70.8961 12.0011 70.8851 11.9606 70.8801 11.919C70.9758 11.7996 71.0992 11.7057 71.2394 11.6454C71.419 11.5809 71.5864 11.4866 71.7349 11.3663C71.9037 11.235 72.1106 11.1803 72.2794 11.038C72.3284 11.0021 72.3875 10.9829 72.4482 10.9833C72.526 10.9802 72.6006 10.9513 72.6605 10.9012C72.7705 10.8215 72.8759 10.7357 72.9763 10.644L73.1233 10.5346L74.1687 9.89432C74.2848 9.83292 74.3943 9.75957 74.4954 9.67543C74.7186 9.44012 75.0398 9.29785 75.2358 9.04612C75.47 8.9531 75.5298 8.68496 75.7259 8.55362C75.8349 8.34022 75.9892 8.15343 76.1778 8.0064C76.2968 7.89823 76.3915 7.76577 76.4555 7.61787C76.5208 7.46465 76.6079 7.32237 76.6787 7.17462C76.7612 7.03443 76.8287 6.88585 76.8801 6.73137C76.9268 6.57402 76.985 6.42038 77.0544 6.2717C77.1239 6.08196 77.1643 5.88267 77.1742 5.6807C77.1742 5.40162 77.1742 5.13348 77.1742 4.84345M74.724 5.63692C74.6696 5.76826 74.5934 5.8777 74.5498 6.01451C74.4955 6.16929 74.4184 6.31501 74.3211 6.44681C74.1758 6.6648 74.0098 6.86821 73.8257 7.05423C73.5425 7.3169 73.2322 7.5522 72.9491 7.82582C72.8473 7.92136 72.7316 8.00071 72.606 8.06112C72.4016 8.18405 72.2084 8.32507 72.0289 8.48248C71.9033 8.57512 71.766 8.65057 71.6206 8.70685C71.4489 8.77035 71.2875 8.85885 71.1414 8.96951C70.9314 9.15303 70.6871 9.29256 70.4227 9.37993C70.3186 9.42285 70.22 9.47796 70.1287 9.5441L69.6605 9.76299C69.5842 9.76299 69.4645 9.81224 69.3773 9.66449C69.3855 9.41154 69.4091 9.15934 69.4481 8.90932C69.4558 8.80411 69.4937 8.7034 69.557 8.61929C69.6278 8.53721 69.606 8.4606 69.557 8.36757C69.5255 8.27349 69.5255 8.17162 69.557 8.07754C69.6078 7.94471 69.6155 7.79911 69.5788 7.66165C69.5656 7.48329 69.5974 7.30447 69.6714 7.14179C69.6796 7.0984 69.6796 7.05384 69.6714 7.01045C69.6579 6.8663 69.6746 6.72092 69.7204 6.58362C69.753 6.5289 69.7204 6.44134 69.7204 6.3702C69.6981 6.28453 69.6889 6.19597 69.6931 6.10754C69.7313 5.93243 69.7966 5.76279 69.8565 5.56031L69.802 5.4837C69.9055 5.23198 69.802 4.93648 69.9763 4.67928C69.8075 4.47681 69.9763 4.25792 69.9763 4.03903C70.0457 3.9527 70.1351 3.88467 70.2366 3.84081C70.3381 3.79695 70.4487 3.77859 70.5588 3.78731C71.2449 3.78731 71.9309 3.78731 72.6169 3.78731C72.7406 3.79307 72.8623 3.82086 72.9763 3.86939C73.1318 3.93201 73.299 3.96001 73.4663 3.95148C73.5465 3.94255 73.6274 3.96189 73.695 4.0062C73.9128 4.14301 74.1469 4.2634 74.3647 4.4002C74.4666 4.46256 74.5554 4.54436 74.626 4.64098C74.6814 4.71078 74.7103 4.79803 74.7077 4.88723C74.7077 5.11706 74.7077 5.35237 74.7077 5.5822" fill="white"/>
</svg>
