<svg width="144" height="33" viewBox="0 0 144 33" fill="none" xmlns="http://www.w3.org/2000/svg">
<g clip-path="url(#clip0_995_7648)">
<path d="M31.7609 12.0265C32.1491 11.9429 32.5166 11.7829 32.842 11.5558C33.1675 11.3286 33.4442 11.0389 33.6562 10.7037C33.8681 10.3684 34.0109 9.99434 34.0762 9.60331C34.1415 9.21227 34.128 8.81216 34.0365 8.4264C33.945 8.04063 33.7774 7.67697 33.5434 7.35669C33.3094 7.03641 33.0137 6.76596 32.6738 6.56117C32.3338 6.35638 31.9563 6.22136 31.5634 6.16403C31.1705 6.10669 30.7701 6.12819 30.3856 6.22726C29.6291 6.42221 28.9793 6.90552 28.5757 7.57344C28.172 8.24137 28.0468 9.04067 28.2268 9.79975C28.4068 10.5588 28.8778 11.2172 29.5385 11.6335C30.1993 12.0498 30.9971 12.1909 31.7609 12.0265Z" fill="white"/>
<path d="M49.6396 7.85073L48.8063 7.87496H48.7982C41.9218 8.28689 35.6521 13.6419 29.5766 18.8273C23.9137 23.6734 18.0566 28.6811 12.5636 28.6811C10.4416 28.6947 8.39542 27.8939 6.84788 26.4443C5.30033 24.9947 4.36966 23.0069 4.24816 20.8917C4.12665 18.7765 4.82359 16.6956 6.19499 15.0788C7.56638 13.462 9.50743 12.4329 11.6171 12.2042C12.9816 12.0516 14.3627 12.2407 15.6357 12.7545C16.9087 13.2682 18.0335 14.0904 18.9086 15.1468C19.7837 16.2032 20.3814 17.4606 20.6479 18.8054C20.9144 20.1502 20.8413 21.5401 20.4351 22.8496C20.4108 22.9465 20.516 23.0192 20.5969 22.9707C22.0881 21.9166 23.5347 20.8011 24.933 19.6269C25.0301 19.5461 25.0787 19.425 25.0706 19.3038C24.7921 16.1813 23.3549 13.2755 21.0409 11.1565C18.727 9.03759 15.7034 7.85853 12.5636 7.85073C9.46517 7.85073 6.63371 8.9815 4.44944 10.8392C4.43882 10.855 4.42297 10.8665 4.40469 10.8717C4.3864 10.877 4.36685 10.8756 4.34946 10.8679C4.33208 10.8602 4.31797 10.8466 4.30962 10.8295C4.30128 10.8125 4.29922 10.793 4.30382 10.7746V0.533039C4.30389 0.50012 4.29136 0.468417 4.26881 0.4444C4.24626 0.420384 4.21538 0.405866 4.18247 0.403809H0.129438C0.0951091 0.403809 0.0621859 0.417424 0.0379116 0.441659C0.0136372 0.465895 0 0.498765 0 0.533039L0 20.4184C0.00100634 22.1349 0.354175 23.833 1.03773 25.4079C1.72128 26.9829 2.72073 28.4014 3.97444 29.5759C5.22816 30.7504 6.70956 31.656 8.32732 32.237C9.94507 32.818 11.6649 33.0619 13.3807 32.9538H13.4454C18.8414 32.6065 23.8814 29.1577 28.7515 25.1596C28.7666 25.145 28.7859 25.1353 28.8066 25.1317C28.8274 25.1282 28.8487 25.1309 28.8679 25.1396C28.8871 25.1483 28.9032 25.1626 28.9142 25.1806C28.9252 25.1985 28.9305 25.2193 28.9294 25.2403V31.92C28.9294 31.9927 28.9861 32.0492 29.0508 32.0492H33.1038C33.1766 32.0492 33.2333 31.9927 33.2333 31.92V21.5411C33.2333 21.4361 33.2737 21.3311 33.3546 21.2665C38.9933 16.4607 44.7937 11.7842 50.2948 12.18C52.3834 12.3245 54.3367 13.264 55.7517 14.8044C57.1667 16.3449 57.9354 18.3689 57.8993 20.4588C57.8945 21.6066 57.65 22.7409 57.1813 23.789C56.7127 24.8372 56.0302 25.7762 55.1776 26.5462C54.3249 27.3161 53.3208 27.9001 52.2293 28.2607C51.1378 28.6214 49.983 28.7508 48.8387 28.6407C47.0698 28.4552 45.4069 27.7089 44.0938 26.5113C42.7806 25.3136 41.8862 23.7275 41.5416 21.9853C41.2584 20.5315 41.3798 19.1584 41.7843 17.8984C41.8166 17.8096 41.7115 17.7288 41.6306 17.7773C40.1246 18.8256 38.667 19.9413 37.262 21.1211C37.216 21.1574 37.1795 21.2043 37.1556 21.2577C37.1316 21.3112 37.121 21.3696 37.1245 21.428C37.6422 27.8896 43.0544 32.978 49.6396 32.978C52.6894 32.978 55.4966 31.8877 57.6728 30.0703C57.7375 30.0138 57.8346 30.0704 57.8184 30.1511C57.5473 32.1247 56.5712 33.934 55.0698 35.246C53.5685 36.558 51.6429 37.2843 49.6476 37.2911C46.7353 37.2911 44.0737 35.7565 42.5933 33.3334C42.5793 33.3092 42.5593 33.2891 42.5352 33.2749C42.5111 33.2608 42.4837 33.2531 42.4557 33.2527H37.9578C37.8849 33.2527 37.8283 33.3334 37.8607 33.398C38.8738 36.1325 40.8083 38.4298 43.3323 39.8961C45.8563 41.3624 48.8127 41.9063 51.6944 41.4346C57.8103 40.425 62.2031 34.973 62.2031 28.77V20.4184C62.2031 13.4884 56.5645 7.85073 49.6396 7.85073ZM85.4858 24.5942C85.502 24.6265 85.5425 24.6346 85.5667 24.6184C86.1885 24.1591 86.8034 23.6906 87.4112 23.213L88.7946 22.155C88.8611 22.1063 88.907 22.0347 88.9234 21.954C88.9399 21.8734 88.9257 21.7896 88.8836 21.7188C87.6863 19.7965 85.502 18.3265 82.7676 17.64C81.3438 17.2765 79.6692 16.4284 79.1353 15.3623C78.9735 15.0392 78.8036 14.4819 79.2162 13.5046C79.5964 12.5919 80.7209 11.9457 81.9506 11.9457C83.6494 11.9457 85.049 13.3107 85.1056 15.0069C85.1056 15.0553 85.1461 15.1038 85.2027 15.1038H89.3124C89.3609 15.1038 89.4094 15.0553 89.4094 15.0069C89.384 13.0472 88.5874 11.1762 87.1918 9.79791C85.7962 8.41965 83.9136 7.64481 81.9506 7.64073C78.9492 7.64073 76.3119 9.28842 75.236 11.8407C74.8374 12.6942 74.6342 13.6256 74.6412 14.5672C74.6482 15.5089 74.8652 16.4371 75.2764 17.2846C76.773 20.273 80.284 21.42 81.7079 21.8077C83.2744 22.227 84.624 23.2225 85.4858 24.5942Z" fill="white"/>
<path d="M143.984 19.8531C143.838 16.6272 142.455 13.5811 140.12 11.3464C137.785 9.11168 134.679 7.85993 131.444 7.85075C128.271 7.83492 125.21 9.02585 122.884 11.1816C120.558 13.3374 119.141 16.2963 118.921 19.4573C118.913 19.5381 118.954 19.6188 119.026 19.6592C120.097 20.3247 121.132 21.0473 122.125 21.8238L123.5 22.8577C123.524 22.8738 123.557 22.8577 123.549 22.8254C123.188 21.6653 123.089 20.4401 123.257 19.2372C123.426 18.0343 123.859 16.8835 124.525 15.867C125.191 14.8505 126.073 13.9934 127.109 13.357C128.146 12.7206 129.31 12.3205 130.519 12.1855C131.728 12.0504 132.952 12.1837 134.103 12.5757C135.255 12.9677 136.305 13.6089 137.18 14.4533C138.054 15.2977 138.731 16.3246 139.162 17.4605C139.593 18.5964 139.767 19.8133 139.672 21.0242C139.324 25.7815 134.923 29.0931 130.182 28.6165C126.671 28.2531 124.228 26.4115 121.445 24.3115C119.965 23.1447 118.411 22.0736 116.794 21.105C116.769 21.093 116.749 21.0746 116.735 21.0518C116.721 21.029 116.713 21.0026 116.713 20.9757C116.729 20.79 116.729 20.6042 116.729 20.4104C116.729 13.0846 110.435 7.20459 102.968 7.90728C101.225 8.08335 99.5385 8.61965 98.0148 9.48207C96.491 10.3445 95.1638 11.5141 94.1175 12.9166C93.0712 14.319 92.3288 15.9236 91.9374 17.6281C91.5461 19.3327 91.5144 21.0999 91.8444 22.8173C91.8444 22.8577 91.8363 22.8981 91.7959 22.9223C90.804 23.6243 89.8302 24.3514 88.8754 25.1031C86.2705 27.1223 84.2237 28.7215 81.902 28.7215C80.9443 28.7177 80.0257 28.3423 79.3403 27.6745C78.6549 27.0068 78.2564 26.0991 78.2291 25.1434C78.2291 25.1156 78.2181 25.0889 78.1983 25.0692C78.1786 25.0495 78.1519 25.0384 78.124 25.0384H74.0224C73.9945 25.0384 73.9678 25.0495 73.948 25.0692C73.9283 25.0889 73.9172 25.1156 73.9172 25.1434C73.9449 27.241 74.7978 29.2435 76.2917 30.7184C77.7857 32.1934 79.8009 33.0225 81.902 33.0265C85.6961 33.0265 88.5195 30.8377 91.5127 28.5034C92.1357 28.0269 92.7586 27.5423 93.3977 27.0738C93.4084 27.0648 93.421 27.0582 93.4345 27.0545C93.4481 27.0508 93.4622 27.0501 93.4761 27.0524C93.4899 27.0547 93.5031 27.06 93.5147 27.0679C93.5263 27.0758 93.5361 27.086 93.5433 27.0981C94.6718 28.8964 96.2391 30.3792 98.0983 31.4076C99.9576 32.4361 102.048 32.9764 104.173 32.9781C108.647 32.9781 112.166 30.8619 114.448 27.6311C114.461 27.6105 114.465 27.5857 114.461 27.5618C114.456 27.5378 114.443 27.5164 114.423 27.5019C113.299 26.775 112.158 26.1611 110.864 25.725C110.779 25.6963 110.688 25.6933 110.601 25.7163C110.515 25.7393 110.437 25.7873 110.378 25.8542C109.526 26.8319 108.454 27.5943 107.251 28.0793C106.047 28.5642 104.745 28.7579 103.452 28.6444C102.159 28.531 100.911 28.1137 99.8103 27.4266C98.7096 26.7395 97.7874 25.8022 97.119 24.6911C99.8481 23.2563 102.893 22.526 105.977 22.5669C112.004 22.5669 115.329 25.0788 118.857 27.7442C122.254 30.3207 125.782 32.9781 131.436 32.9781C134.51 32.9781 137.326 31.8715 139.502 30.0381C139.583 29.9734 139.696 30.0219 139.696 30.1188V32.3965C139.696 32.4692 139.753 32.5257 139.817 32.5257H143.87C143.943 32.5257 144 32.4692 144 32.3965V19.8531H143.984ZM96.0107 20.4427C96.0005 20.4468 95.9894 20.4483 95.9785 20.447C95.9675 20.4457 95.9571 20.4416 95.9482 20.4351C95.9393 20.4286 95.9322 20.42 95.9275 20.41C95.9229 20.4 95.9209 20.389 95.9217 20.3781C95.9303 18.1972 96.8029 16.1083 98.349 14.5677C99.8951 13.0271 101.989 12.16 104.173 12.1557C108.267 12.1557 111.665 15.1604 112.312 19.0777C112.312 19.1181 112.279 19.1423 112.247 19.1342C110.214 18.5407 108.104 18.2468 105.986 18.2619C101.941 18.2619 98.7208 19.1665 96.0107 20.4427Z" fill="white"/>
</g>
<defs>
<clipPath id="clip0_995_7648">
<rect width="144" height="33" fill="white"/>
</clipPath>
</defs>
</svg>
