<svg width="144" height="48" viewBox="0 0 144 48" fill="none" xmlns="http://www.w3.org/2000/svg">
<path d="M0 27.9301C0 19.9344 6.14304 15.2703 13.2278 15.2703C19.3334 15.2703 22.8154 18.7201 22.8154 21.7372C22.8154 23.2256 21.9168 24.5582 20.1139 24.5582C18.4694 24.5582 17.5709 23.4621 17.4528 21.7747C17.2973 19.346 15.7709 16.6404 11.9347 16.6404C7.62912 16.6404 4.89024 20.168 4.89024 25.8504C4.93056 33.3759 9.86112 37.8064 15.4973 37.8064C17.9626 37.8064 20.1542 36.9036 22.1904 34.6306L22.9738 35.2566C21.9571 37.1372 18.7459 40.6274 12.9168 40.6274C6.22368 40.6303 0 36.0065 0 27.9301Z" fill="white"/>
<path d="M24.1604 31.3798C24.1604 25.3427 28.6992 22.2073 33.5924 22.2073C37.6244 22.2073 40.4007 24.3245 40.4007 27.4598C40.4007 30.3616 37.9757 31.0654 33.1604 31.3019L29.834 31.4981C29.0909 31.5384 28.8173 31.8903 28.8173 32.7528C28.8173 35.6545 31.752 38.0054 35.3924 38.0054C36.9965 38.0054 38.8772 37.5727 40.2452 35.8882L41.0659 36.5949C40.3229 38.0054 37.6992 40.4744 33.434 40.4744C28.5408 40.4744 24.1575 37.2208 24.1575 31.3798H24.1604ZM29.8743 30.3212L32.2215 30.2433C35.5882 30.0472 36.4868 29.4213 36.4868 27.5002C36.4868 25.4234 35.4701 23.5399 32.9242 23.5399C29.8311 23.5399 28.5812 26.4416 28.5812 28.7925C28.5812 30.0472 28.9728 30.3616 29.8714 30.3212H29.8743Z" fill="white"/>
<path d="M56.5632 37.1429V29.6953C56.5632 26.7936 55.1549 24.6389 52.5312 24.6389C49.9075 24.6389 48.3437 26.7936 48.3437 29.6953V36.8285C48.3437 38.4755 49.009 38.9832 50.8493 39.1794V40.2379H41.7312V39.1794C43.5715 38.9832 44.2368 38.4727 44.2368 36.8285V26.5195C44.2368 24.7168 43.6493 24.1687 41.7312 24.3245V23.3063L46.7798 22.2881C47.7965 22.0919 48.3466 22.5621 48.3466 23.5024C48.3466 24.9533 48.8938 25.3456 49.4035 24.7571C50.1091 23.9726 51.673 22.1698 54.8813 22.1698C57.816 22.1698 60.673 23.7389 60.673 28.7954V37.1054C60.673 38.4784 61.416 38.9082 62.5507 38.5938V39.1822C62.041 40.0851 60.8285 40.4745 59.6938 40.4745C57.8938 40.4745 56.5632 39.4563 56.5632 37.1429Z" fill="white"/>
<path d="M63.291 31.5355C63.291 25.4609 67.4382 22.2073 71.8215 22.2073C75.7354 22.2073 77.1841 24.8725 77.1841 22.0111V18.7979C77.1841 17.0355 76.5966 16.447 74.6785 16.6432V15.5846L79.7271 14.6039C80.7438 14.4077 81.2938 14.8779 81.2938 15.8586V37.1025C81.2938 38.4755 82.0369 38.8649 83.1716 38.5909V39.1793C82.7022 40.0822 81.4897 40.4715 80.3924 40.4715C79.1022 40.4715 77.9271 39.9235 77.5354 38.7467C77.3396 38.1582 76.9882 37.9621 76.634 37.9621C75.6174 37.9621 74.3646 40.4715 70.802 40.4715C66.8103 40.4715 63.2881 37.0996 63.2881 31.5355H63.291ZM73.155 37.965C74.955 37.965 77.187 36.9843 77.187 33.497V29.9693C77.187 25.3052 74.2897 23.5024 71.9828 23.5024C69.1662 23.5024 67.5591 26.1676 67.5591 29.8914C67.5591 34.3219 69.7911 37.965 73.155 37.965Z" fill="white"/>
<path d="M84.2399 45.2165C84.2399 44.0396 85.0607 43.0618 86.4719 43.0618C89.0927 43.0618 87.6469 46.4712 89.4066 46.4712C90.2274 46.4712 90.933 45.4126 91.4025 44.2358C92.1081 42.3551 91.7164 40.8264 91.1289 39.3755L86.3164 27.1455C85.4149 24.8725 84.8303 24.2437 83.1455 23.6178V22.5592H91.8345V23.6178C89.7205 24.2437 89.6428 24.7946 90.5817 27.1455L93.79 35.0633C94.3372 36.4363 94.7692 36.4363 95.3164 35.0229L96.8428 31.025C99.19 24.91 98.5247 24.2437 96.1775 23.6178V22.5592H103.536V23.6178C101.226 24.2437 100.639 24.8725 99.7401 27.1455L93.5567 42.8253C92.1858 46.2751 90.8553 48 88.0386 48C85.7289 48 84.2428 46.8231 84.2428 45.2165H84.2399Z" fill="white"/>
<path d="M119.321 37.1429V29.6953C119.321 26.7936 117.913 24.6389 115.289 24.6389C112.666 24.6389 111.102 26.7936 111.102 29.6953V36.8285C111.102 38.4755 111.767 38.9832 113.607 39.1794V40.2379H104.489V39.1794C106.33 38.9832 106.995 38.4727 106.995 36.8285V26.5195C106.995 24.7168 106.407 24.1687 104.489 24.3245V23.3063L109.538 22.2881C110.555 22.0919 111.105 22.5621 111.105 23.5024C111.105 24.9533 111.652 25.3456 112.162 24.7571C112.867 23.9726 114.431 22.1698 117.639 22.1698C120.574 22.1698 123.431 23.7389 123.431 28.7954V37.1054C123.431 38.4784 124.174 38.9082 125.309 38.5938V39.1822C124.799 40.0851 123.587 40.4745 122.452 40.4745C120.652 40.4745 119.321 39.4563 119.321 37.1429Z" fill="white"/>
<path d="M111.177 8.64467C106.67 8.64467 105.941 15.0078 111.177 15.0078C121.764 15.0078 124.189 0 133.508 0C146.022 0 148.896 22.1698 133.508 22.1698C120.459 22.1698 118.616 8.64756 111.177 8.64756V8.64467ZM111.177 18.446C101.238 18.446 104.633 7.5832 111.177 7.5832C120.007 7.5832 121.919 20.9526 133.508 20.9526C143.534 20.9526 142.77 4.23725 133.508 4.23725C124.246 4.23725 122.668 18.4431 111.177 18.4431V18.446Z" fill="white"/>
</svg>
