<svg width="144" height="25" viewBox="0 0 144 25" fill="none" xmlns="http://www.w3.org/2000/svg">
<g clip-path="url(#clip0_995_7633)">
<path d="M143.741 25.0088H131.505V21.7979H143.741V25.0088ZM44.5059 5.66797C48.7359 5.66808 51.165 7.6877 51.165 11.4629V17.8496C51.1651 18.6592 51.5111 18.8779 52.1934 18.8779H52.875V21.8066H51.1016C48.9184 21.8066 48.172 20.8428 48.1719 19.251C47.1166 20.8702 45.4966 21.9893 42.9131 21.9893C39.429 21.9892 37.0002 20.2787 37 17.3223C37 14.0562 39.3655 12.2178 43.8232 12.2178H47.8447V11.2539C47.8447 9.48007 46.5708 8.38784 44.3604 8.3877C42.368 8.3877 41.0301 9.32564 40.7754 10.7266H37.4727C37.8184 7.61531 40.4938 5.68652 44.5059 5.68652V5.66797ZM84.1973 5.66797C89.0553 5.66797 92.3212 8.97025 92.3213 13.8281C92.3213 18.6862 89.0554 21.9893 84.1973 21.9893C79.3393 21.9892 76.0732 18.7226 76.0732 13.8281C76.0734 8.93389 79.3394 5.66801 84.1973 5.66797ZM27.5391 5.66797C32.2332 5.66812 35.2262 8.59775 35.3262 13.2646C35.3262 13.6648 35.299 14.1015 35.2354 14.5381H23.2178V14.7568C23.3089 17.4676 25.0279 19.2412 27.666 19.2412C29.7221 19.2412 31.2138 18.2134 31.6777 16.4395H35.0439C34.4799 19.5871 31.805 21.9795 27.8477 21.9795C22.8351 21.9793 19.6875 18.7408 19.6875 13.8555H19.6963C19.6964 8.93389 22.8447 5.66797 27.5391 5.66797ZM13.8828 15.4473V0H17.4033V21.7979H14.1377L3.52051 6.34961V21.7979H0V0H3.26562L13.8828 15.4473ZM75.6729 2.95703H72.8984C71.8067 2.95703 71.3428 3.421 71.3428 4.5127V5.84961H75.6738V8.99707H71.4062V21.7891H68.0127V8.99707H62.4453C59.4524 8.9972 58.4883 11.3357 58.4883 13.792V21.7979H55.1221V5.84961H58.1152L58.4883 8.25098C59.2979 6.91382 60.5716 5.84965 63.1914 5.84961H68.0127V4.35742C68.0128 1.49189 69.3871 0 72.4619 0H75.6729V2.95703ZM97.8711 8.25098C98.6808 6.91379 99.9547 5.84961 102.574 5.84961H103.32V8.99707H101.828C98.8354 8.99707 97.8711 11.3356 97.8711 13.792V21.7979H94.5049V5.84961H97.498L97.8711 8.25098ZM123.717 5.6582C127.019 5.6582 129.694 7.5596 129.694 12.5996V21.7881H126.328V12.8184C126.328 10.0163 125.172 8.55083 122.998 8.55078C120.697 8.55078 119.232 10.2983 119.232 13.1641V21.7881H115.838V12.8184C115.838 10.0163 114.683 8.55078 112.472 8.55078C110.262 8.55093 108.733 10.4166 108.733 13.2549V21.7881H105.367V5.84961H108.306L108.679 7.93262C109.579 6.74999 110.953 5.69466 113.346 5.6582C115.429 5.6582 117.303 6.4951 118.267 8.55078C119.296 6.80419 121.097 5.65825 123.717 5.6582ZM43.6592 14.6924C41.576 14.6924 40.4209 15.4755 40.4209 17.0947C40.4211 18.4318 41.5397 19.369 43.377 19.3691H43.3867C46.1885 19.3691 47.8076 17.7221 47.835 15.2568V14.6924H43.6592ZM84.1973 8.53418C81.359 8.53422 79.5304 10.7442 79.5303 13.8281C79.5303 16.9122 81.368 19.123 84.1973 19.123C87.0267 19.123 88.9004 16.9122 88.9004 13.8281C88.9003 10.7442 87.0357 8.53418 84.1973 8.53418ZM27.5752 8.37891C25.4281 8.37891 23.5903 9.80768 23.3447 12.082H31.8418C31.5598 9.71673 29.9131 8.37894 27.5752 8.37891Z" fill="white"/>
</g>
<defs>
<clipPath id="clip0_995_7633">
<rect width="144" height="25" fill="white"/>
</clipPath>
</defs>
</svg>
