<svg width="500" height="118" viewBox="0 0 500 118" fill="none" xmlns="http://www.w3.org/2000/svg">
<g clip-path="url(#clip0_974_354)">
<path d="M344.54 10.0215C347.624 10.0218 354.168 15.4941 354.168 23.0068C354.167 30.0294 295.518 86.1237 287.851 102.871C292.996 101.054 304.499 97.3418 312.561 97.3418C324.744 97.3419 333.654 110.176 333.679 110.212L333.434 112.921C333.434 112.921 324.435 108.849 319.243 108.849C297.241 108.849 291.601 117.108 285.476 117.108C279.351 117.108 274.728 113.921 274.728 107.979C274.728 84.0141 330.653 30.2779 341.395 20.1777L337.136 14.3838C337.178 14.3408 341.474 10.0215 344.54 10.0215Z" fill="#EBE9E6"/>
<path fill-rule="evenodd" clip-rule="evenodd" d="M102.999 0.4375C132.313 0.437595 145.293 11.2017 145.293 23.2969C145.293 56.2312 67.1932 65.0735 57.2393 73.2334C60.3195 88.1329 88.5304 106.043 88.6143 106.096L88.8047 108.009C68.9542 108.009 44.882 93.0897 44.8818 73.5566C44.8818 72.3426 45.1376 71.1836 45.6191 70.0723L14.7676 105.14C14.7236 105.12 11.7705 103.774 11.7705 97.6299C11.7705 80.4684 65.1082 23.9805 72.501 23.9805C75.4052 23.9812 78.2321 32.9023 78.2559 32.9775L51.0703 63.876C61.3961 56.2521 82.7646 50.8117 100.57 43.8936C117.504 37.3156 130.205 29.7099 132.393 23.3711C129.733 17.8859 111.878 13.6455 102.808 13.6455C58.5584 13.6456 11.4733 33.0753 9.4668 51.3008C11.4651 54.4597 17.457 57.6689 17.457 57.6689C17.4549 57.695 17.2124 60.5388 14.9648 60.5391H14.9619C12.7008 60.5391 0 58.4551 0 48.8613C0.000635205 22.0947 60.4766 0.4375 102.999 0.4375ZM8.8252 49.4385C8.82524 49.7424 8.88697 50.0533 8.99902 50.3682L8.8252 49.4385Z" fill="#EBE9E6"/>
<path fill-rule="evenodd" clip-rule="evenodd" d="M245.638 10.0215C248.557 10.0215 252.306 14.0109 252.306 19.7285C252.304 24.7805 219.68 59.6659 212.064 71.627C222.995 61.3357 264.198 34.9785 278.423 34.9785C281.311 34.9786 282.324 38.028 282.324 42.5352C282.324 46.8029 249.306 74.8477 242.039 84.5635C249.491 82.1965 267.727 71.5781 267.727 71.5781L268.004 72.9648C268.004 72.9648 243.287 96.3945 234.522 96.3945C230.263 96.3945 227.58 93.4918 227.58 89.7627C227.581 79.6837 250.949 56.7916 258.879 49.3125C247.436 52.2608 227.462 68.4302 213.791 80.876C204.461 89.3687 198.956 95.9473 198.431 95.9473C197.059 95.9468 194.827 93.846 194.827 87.374C194.827 82.3146 197.513 75.6621 201.592 68.4727C187.954 80.8191 166.704 98.4717 156.665 98.4717C148.299 98.4716 144.357 93.5746 144.357 85.7158C144.358 82.2017 145.374 78.1715 147.128 73.9746L111.29 97.918C111.29 97.918 104.345 98.313 104.345 88.3535C104.345 78.3938 135.68 39.2754 147.829 39.2754V39.2725C153.348 39.2725 152.831 46.3447 152.831 46.3447L123.122 79.4346C133.137 72.3508 148.698 61.9677 159.126 55.0684C167.366 45.451 177.537 38.0244 185.479 38.0244C195.047 38.0244 196.314 45.9585 196.314 50.2266C196.313 54.4953 180.477 70.1914 175.753 70.1914C171.029 70.1912 171.725 66.7246 171.725 66.7246H171.728C171.728 66.7246 182.486 55.1343 184.766 50.1943C177.896 54.5792 154.78 75.8951 154.779 86.9639C154.779 89.6671 156.27 91.6787 159.781 91.6787C166.188 91.6781 204.652 58.0245 214.371 49.4297C227.077 32.5672 241.298 17.6774 241.329 17.6445L240.913 12.9297C240.913 12.9297 242.718 10.0195 245.638 10.0195V10.0215ZM185.168 48.5371C185.099 48.1965 184.846 48.0068 184.37 48.0068L185.168 48.5371Z" fill="#EBE9E6"/>
<path d="M364.78 40.249C367.815 40.2493 369.964 47.6387 369.964 47.6387C369.964 47.6387 340.001 77.806 334.531 88.9893C341.755 83.2825 392.743 43.2707 402.358 43.2695L402.237 43.4248C404.187 41.8429 405.594 40.9329 406.218 40.9326C410.497 40.9326 412.641 45.0565 412.641 47.3418C412.639 48.6947 404.282 58.4421 397.454 66.1846C409.39 57.6653 429.104 44.0073 432.809 44.0068C438.191 44.0068 438.203 47.0444 438.203 49.7764C438.203 51.3883 434.401 57.1668 431.284 61.6348C440.485 55.727 459.503 43.8776 464.025 43.877C470.049 43.877 472.762 47.6382 472.762 51.3125C472.762 54.5716 446.081 76.7129 440.05 85.2959C446.263 83.7377 471.192 77.8486 493.06 77.8486C497.325 77.8487 499.996 82.9873 499.996 85.9268C499.996 88.866 490.933 92.8479 489.849 92.8486C488.766 92.8486 488.049 91.4395 488.049 91.4395C488.049 91.4395 491.586 88.4605 492.862 85.874C484.24 87.6795 437.963 97.3359 434.354 97.3359C430.371 97.3358 425.745 93.5315 425.745 87.0791C425.746 77.7194 446.488 60.4334 456.964 52.2998C438.778 60.945 396.886 96.3843 395.297 96.3906C393.495 96.3906 391.684 94.3879 391.684 90.9268C391.684 81.9354 413.964 60.6666 421.784 53.4785C408.834 60.4878 368.831 94.2839 368.83 97.3359C367.265 97.3359 367.045 95.6534 367.032 95.5459L364.724 97.3389C364.724 97.3389 360.741 97.3101 360.741 92.4688C360.741 87.8256 372.569 73.3632 384.207 60.9365C368.579 67.8074 340.412 96.3962 335.16 96.3965C329.191 96.3965 324.051 93.6357 324.051 84.0996C324.051 74.5631 361.745 40.252 364.78 40.252V40.249Z" fill="#EBE9E6"/>
<path d="M377.701 21.4854C381.435 21.4854 384.776 22.6897 384.776 24.2373C384.776 25.7751 382.872 27.3725 382.848 27.3926C383.544 30.77 380.474 38.0268 376.137 38.0273C371.799 38.0273 368.567 34.7935 368.567 30.4766C368.567 26.1596 373.967 21.4856 377.701 21.4854Z" fill="#EBE9E6"/>
<path d="M162.831 16.5332C166.368 16.5332 167.137 20.1237 167.137 21.5244C167.137 22.925 165.471 27.7636 161.581 27.7637V27.7607C157.691 27.7607 154.775 24.8736 154.774 22.1475C154.774 19.4213 159.294 16.5334 162.831 16.5332Z" fill="#EBE9E6"/>
</g>
<defs>
<clipPath id="clip0_974_354">
<rect width="500" height="118" fill="white"/>
</clipPath>
</defs>
</svg>
