<svg width="844" height="257" viewBox="0 0 844 257" fill="none" xmlns="http://www.w3.org/2000/svg">
<path d="M695.299 4.92163C708.82 4.91912 722.403 4.66816 735.92 5.04858C765.757 5.88836 799.216 10.6082 820.732 33.4148C833.755 47.2147 839.422 65.713 838.865 84.4695C838.09 110.805 828.681 134.918 809.333 153.117C774.596 185.793 724.076 185.797 679.346 184.436C678.719 189.189 673.477 208.103 671.969 213.187C668.61 224.524 665.268 240.57 661.522 251.386C651.826 251.567 641.7 251.417 631.97 251.414C614.975 251.437 595.948 251.885 579.117 251.324C581.149 241.343 613.318 121.786 614.336 120.741C615.09 119.962 616.952 119.802 617.999 119.721C624.828 119.199 632.04 119.707 638.918 119.694C655.151 119.561 671.384 119.627 687.617 119.89L713.987 119.959C732.071 119.972 746.277 120.863 760.659 107.205C766.618 101.323 769.865 94.0595 769.882 85.7322C769.898 73.534 758.866 66.0331 747.797 64.4314C737.4 62.9274 725.993 63.033 715.377 62.7781C686.818 62.344 658.25 62.2663 629.69 62.5447L640.27 22.8269C641.197 19.3618 644.094 7.52369 645.31 4.97729C661.963 4.74875 678.641 4.92472 695.299 4.92163ZM359.301 138.997C360.714 140.601 362.033 153.024 362.465 155.894L367.403 188.676C370.462 208.954 374.235 231.056 376.716 251.209C372.102 251.82 353.801 251.444 348.297 251.438L288.847 251.468C286.667 238.501 285.105 221.616 283.536 208.388C258.413 208.679 230.422 208.795 205.369 208.329L188.255 234.77C185.021 239.749 180.724 246.777 177.184 251.359C168.207 251.87 154.581 251.419 145.262 251.425C126.001 251.501 106.739 251.476 87.4775 251.35C91.7251 243.776 100.733 231.417 105.858 223.931C109.38 218.727 112.963 213.563 116.604 208.441C79.8723 207.681 41.9396 209.296 5.22266 208.15C12.4173 205.355 24.0544 202.277 31.8262 200.123C48.5241 195.505 65.3017 191.177 82.1504 187.143C173.118 165.949 265.2 149.858 357.966 138.944L359.301 138.997ZM522.987 123.453C523.543 124.692 492.244 241.206 489.137 251.382C481.307 251.812 469.47 251.441 461.459 251.439L408.298 251.385C407.94 251.352 407.522 251.129 407.174 250.976C406.728 249.175 408.227 244.496 408.752 242.587C418.604 206.718 428.025 170.73 437.759 134.83C438.146 133.4 438.794 131.639 439.676 130.448C442.94 129.313 456.729 128.584 460.833 128.138C481.092 125.941 502.444 125.343 522.571 123.319L522.987 123.453ZM730.835 230.292C736.497 229.455 741.801 233.26 742.823 238.889C743.841 244.519 740.206 249.941 734.609 251.139C730.822 251.95 726.899 250.636 724.364 247.712C721.834 244.787 721.097 240.716 722.444 237.09C723.788 233.464 727.006 230.858 730.835 230.292ZM738.491 234.675C736.307 232.471 733.105 231.614 730.109 232.432C725.568 233.673 722.864 238.328 724.043 242.883C725.222 247.438 729.838 250.203 734.412 249.092C737.428 248.358 739.818 246.06 740.663 243.074C741.508 240.088 740.68 236.878 738.491 234.675ZM729.021 235.126C735.652 234.628 739.353 236.389 734.865 242.004C734.478 242.486 736.403 245.214 736.79 246.099L736.373 246.623L734.984 246.479L731.123 240.953C731.008 242.753 731.577 245.723 729.896 246.609C728.639 245.104 729.009 237.495 729.021 235.126ZM256.519 4.97827C266.698 4.72069 277.803 4.92128 288.071 4.91968L339.886 4.97534C340.529 12.4954 342.526 23.2795 343.707 31.1091L351.646 84.0691C342.62 85.7803 330.11 87.0867 320.729 88.4363C301.782 91.1512 282.868 94.0947 263.993 97.2664C238.961 101.576 206.981 106.805 182.56 112.736C187.448 104.913 193.375 96.5928 198.636 88.9373L224.851 50.7937L244.771 21.7214C248.291 16.5827 252.737 9.66864 256.519 4.97827ZM400.505 4.98901C426.983 4.46061 455.118 4.91997 481.694 4.91968L627.069 4.95679C622.017 24.0987 616.52 43.4289 611.686 62.5876C604.663 63.1407 595.919 63.2135 588.802 63.4519C569.515 63.657 545.088 65.4967 525.839 66.7722C477.115 70.0444 428.491 74.6379 380.016 80.5476C384.494 62.9326 389.503 45.28 394.12 27.6863C395.027 24.2302 399.377 6.89423 400.505 4.98901Z" fill="#FEFEFE" fill-opacity="0.988235"/>
</svg>
