<svg width="404" height="94" viewBox="0 0 404 94" fill="none" xmlns="http://www.w3.org/2000/svg">
<path fill-rule="evenodd" clip-rule="evenodd" d="M46.5548 31.4398C44.3229 32.6628 43.57 33.0012 43.4055 33.0711C44.1234 33.1798 54.8869 35.0142 51.6659 46.8438C48.6447 57.8914 43.6164 64.8117 24.8894 65.854C3.43087 67.0421 5.04491 56.2447 6.20371 49.6161C7.63152 41.466 10.9217 34.7332 12.4323 31.6691C16.7731 22.9238 22.9779 17.995 24.912 16.4587L24.9721 16.4109C26.8345 14.931 27.269 14.7851 28.1174 15.5146C28.8003 16.0983 28.4278 16.6819 27.7036 17.6408C27.6408 17.726 27.5726 17.812 27.4946 17.9104C26.9049 18.6545 25.7559 20.1044 22.1372 27.2292C17.6882 35.9839 16.9847 45.9267 16.9847 47.3858C17.0261 54.3687 17.6469 55.0565 27.538 55.4317C39.2916 55.8695 43.2439 49.5744 44.6924 44.7594C46.4927 38.7353 41.2367 37.0886 37.1602 36.1923C33.7895 35.4684 31.0413 35.3858 29.2432 35.3318C28.8666 35.3205 28.5318 35.3104 28.2416 35.296C28.0237 35.2852 27.7935 35.2793 27.5574 35.2732C25.9777 35.2327 24.1328 35.1853 23.9168 33.6076C23.7132 32.004 25.1488 32.0184 28.7273 32.0542C29.1492 32.0584 29.6009 32.0629 30.0833 32.0651C30.5061 32.0651 30.9667 32.0682 31.4444 32.0714H31.4446H31.4448H31.4449C33.118 32.0826 35.0012 32.0952 36.2083 31.9817C38.6708 31.7316 41.4229 30.1891 43.7198 28.6466C44.1446 28.3614 44.6269 28.0836 45.1377 27.7895C47.3142 26.5363 50.007 24.9858 50.9623 21.2885C52.2867 16.0774 51.4383 14.9727 47.5273 13.0758C43.6164 11.1998 35.1944 10.3035 30.2488 11.179C28.4072 11.505 26.2298 12.3426 23.8781 13.2473C19.9144 14.7721 15.4554 16.4874 11.2735 16.265C4.58967 15.9107 1.27882 8.78187 0.285561 6.48898C-0.666614 4.29093 0.948443 3.66365 2.39623 3.10134C2.45869 3.07708 2.52085 3.05294 2.58247 3.0288C4.05166 2.42432 18.1642 -1.22346 36.1463 0.423249C54.1076 2.02827 57.6461 7.03094 57.6461 7.03094L57.7192 7.14835C58.4693 8.35116 59.9143 10.6683 59.674 15.327C59.2087 24.6425 50.5151 29.3105 47.1566 31.1139C46.9304 31.2353 46.7284 31.3438 46.5548 31.4398ZM181.513 40.4237C180.764 38.0067 181.789 36.1922 182.578 34.7959C183.204 33.6875 183.681 32.8427 183.003 32.1693C181.41 30.5643 176.32 30.5226 174.147 33.4617C172.668 35.4673 173.258 37.0301 173.754 38.3454C174.118 39.3129 174.433 40.1466 173.836 40.924C173.324 41.5896 172.891 42.1091 172.032 43.1401C171.815 43.4005 171.571 43.6936 171.291 44.0298C170.8 44.6213 170.501 44.9752 170.243 45.2806L170.241 45.2827L170.241 45.2831C169.61 46.0309 169.221 46.4911 166.842 49.4494C163.511 53.5974 161.297 54.723 158.627 54.4937C156.092 54.276 157.271 52.3282 158.017 51.0973C158.056 51.0322 158.094 50.9692 158.131 50.9085C158.451 50.3655 159.045 49.5981 159.749 48.6891L159.749 48.689C160.774 47.3647 162.032 45.7401 163.014 44.0715C164.69 41.2784 164.814 38.7562 164.256 37.4013C163.697 36.0464 162.021 35.7337 159.041 36.0464C158.939 36.0574 158.841 36.0683 158.746 36.0788C157.762 36.1879 157.086 36.2628 155.275 36.1298C154.696 36.0881 154.158 35.9839 153.682 35.8796L153.682 35.8791C153.723 35.775 153.764 35.671 153.806 35.5461C153.945 35.2077 154.163 34.7965 154.397 34.355C155.173 32.8928 156.125 31.099 154.965 30.5226C153.206 29.6263 150.329 29.2094 147.598 31.0229C144.494 33.0656 145.942 35.963 147.267 37.4221C148.819 39.1105 147.205 43.5296 143.087 48.5739C138.969 53.6183 135.141 56.3072 131.23 56.3072C128.829 56.3072 126.946 55.3692 125.85 53.6183C127.133 53.0555 128.685 52.3676 130.237 51.6172C133.051 50.2415 139.735 46.0934 140.252 41.7995C141.059 35.296 135.058 34.7541 132.409 34.629C124.774 34.2955 117.51 39.1105 116.662 50.4499C116.579 51.638 116.662 52.722 116.89 53.6808C116.224 54.0521 115.619 54.3959 115.175 54.6489C114.845 54.8362 114.604 54.9736 114.489 55.0357C111.075 56.7866 109.896 57.0784 108.178 56.6824C106.171 56.2447 104.371 51.1378 104.495 50.3457C104.564 49.8131 105.195 49.5915 106.312 49.1992L106.312 49.1992C106.856 49.0081 107.516 48.7766 108.281 48.4488C110.62 47.4483 114.965 45.4264 114.965 40.6113C114.965 36.7968 111.303 35.6087 109.958 35.567C107.185 35.4628 104.371 37.0678 101.701 38.652C100.612 39.3011 99.7727 39.8242 99.2177 40.1702L99.2169 40.1707L99.2164 40.171L99.2163 40.171C99.0234 40.2913 98.8648 40.3902 98.7421 40.4654C98.8157 40.2571 98.8887 40.0499 98.9613 39.8441C99.3169 38.8354 99.6606 37.8603 100.004 36.9427C100.108 36.6717 100.17 36.4633 100.232 36.234C102.104 31.1496 105.082 23.3023 106.655 19.1578L106.655 19.1576C107.255 17.5762 107.651 16.534 107.702 16.3901C107.768 16.2187 107.834 16.0462 107.901 15.8731L107.906 15.8612L107.908 15.8538C108.977 13.0839 110.108 10.1541 108.592 9.13623C107.081 8.11485 101.991 11.45 99.5077 17.8909C96.7142 25.1656 90.6512 42.7375 88.5612 49.3035C88.3439 49.9247 88.1438 50.5021 87.958 51.0383C86.1796 56.1701 85.7058 57.537 83.926 57.537C81.029 57.537 81.3808 53.9726 81.8774 51.0961C82.374 48.1779 84.1743 42.5082 86.1815 39.1522C88.1887 35.7754 87.0713 35.3377 85.2917 35.567C83.5121 35.7754 82.0637 36.4633 79.8288 37.8182C79.3529 38.11 78.9183 38.4644 78.5459 38.8812C78.2975 37.3804 74.0969 34.1287 69.9376 34.2329C66.3785 34.2329 55.8458 37.443 54.9146 49.2618C54.1076 59.5381 58.8049 62.0394 65.0541 61.9352C71.1585 61.831 76.2903 55.4317 76.2903 55.4317C77.0353 59.288 79.3115 62.1228 83.4501 62.3938C87.8163 62.6648 90.9616 60.3093 92.6791 56.9325C93.9827 54.3687 95.4519 50.1164 96.9418 45.7391C99.3215 44.2174 103.791 42.5499 104.598 42.3206C105.922 41.9454 107.371 41.6536 107.371 43.1127C107.371 44.5718 105.488 45.9058 102.363 47.0314C101.341 47.3996 100.441 47.6697 99.6805 47.8978C98.1162 48.367 97.1439 48.6587 96.9211 49.2618C96.59 50.1581 97.2522 53.3056 99.0318 56.203L99.1797 56.4457C100.908 59.2841 102.625 62.102 105.26 62.102C108.55 62.102 114.531 59.6632 118.607 57.266C121.339 60.6845 126.305 61.8101 129.45 61.8101C129.45 61.8101 137.645 62.4772 145.094 53.8476C150.474 47.6151 151.736 43.0293 152.668 39.4024L152.83 39.4146C154.724 39.5572 156.99 39.7279 156.91 40.9032C156.866 41.6071 155.808 43.2912 154.486 45.3966L154.486 45.3967C153.929 46.2838 153.325 47.2456 152.73 48.2404C150.722 51.5964 148.467 55.8695 149.419 58.6835C150.143 60.8096 153.433 63.4568 159.207 61.4975C163.593 59.9967 167.173 55.4526 167.173 55.4526C167.851 54.7278 169.449 52.8478 171.134 50.8652C173.616 47.9444 176.288 44.8011 176.485 44.8011C176.792 44.8011 177.88 46.7699 178.829 48.4851L179.051 48.8866C179.111 48.9923 179.17 49.097 179.229 49.201C180.171 50.8595 180.992 52.3053 180.934 53.9726C180.872 55.536 179.279 58.7877 176.257 58.2457C174.574 57.9327 173.402 56.7303 172.541 55.8484C172.027 55.3208 171.624 54.908 171.291 54.8689C170.401 54.7647 168.932 55.2024 169.056 56.4531C169.16 57.6829 173.071 62.1228 177.892 62.1645C183.603 62.2062 187.411 59.6006 186.687 52.6386C186.321 49.1152 184.364 45.7262 182.943 43.2674L182.943 43.2672C182.271 42.104 181.719 41.149 181.513 40.4863V40.4237ZM76.1662 44.6552C75.8351 47.5942 73.1657 54.327 66.3785 54.6188C60.9156 54.8481 63.0469 44.009 66.813 41.0282C68.2822 39.8609 70.7447 38.2768 73.6623 39.2356C75.0074 39.6733 76.7249 41.8412 76.3731 43.1752C76.3317 43.3211 76.3731 43.342 76.4145 43.2586C76.311 43.7172 76.2283 44.1757 76.1869 44.6552H76.1662ZM124.794 49.4494C124.794 45.072 126.015 37.9849 131.354 38.0683C134.003 38.11 134.354 40.2153 133.879 42.3206C133.527 43.8839 131.871 46.0517 127.857 48.0528C126.783 48.5936 125.982 48.9626 125.37 49.2447C125.156 49.3432 124.966 49.431 124.794 49.5119V49.4494ZM203.986 3.88343C207.442 2.6536 223.127 0.819293 230.493 1.44463L230.473 1.40294C231.166 1.46186 231.855 1.51776 232.54 1.57328C246.151 2.67668 257.896 3.6289 257.187 25.0822C256.67 40.9448 252.262 50.5333 247.358 57.2452C240.144 67.1505 222.847 66.3956 220.242 66.2819C220.089 66.2753 219.987 66.2708 219.94 66.2708C213.712 66.2917 209.076 64.2281 206.986 60.6428C205.517 58.1415 205.455 54.9731 206.097 51.0336C207.69 41.1741 210.815 35.025 213.981 29.3136C217.353 23.2062 222.009 19.2875 225.031 16.807C226.686 15.4312 227.307 15.2645 228.052 15.8273C228.897 16.4561 228.646 16.8481 228.25 17.4642L228.217 17.5157C227.873 18.0559 227.452 18.6136 226.972 19.2487L226.972 19.2489L226.972 19.2493C225.23 21.5547 222.718 24.8795 220.333 32.086C218.16 38.6936 217.312 43.0084 217.126 47.761C216.981 51.4296 217.436 53.389 218.699 54.3478C220.168 55.4317 223.21 55.5776 226.417 55.7235C230.99 55.932 236.308 55.6193 240.074 52.5969C244.151 49.3243 246.489 44.5092 247.027 43.1752C247.173 42.8031 247.356 42.3725 247.563 41.8823L247.563 41.8822C248.915 38.6931 251.335 32.9818 251.766 24.436C252.24 15.0208 247.902 14.1404 243.402 13.227L243.401 13.2269C243.189 13.1839 242.977 13.1408 242.764 13.0967C232.688 11.0029 227.782 12.8971 222.707 14.8568C219.496 16.0967 216.217 17.3627 211.518 17.6616C206.945 17.9534 202.62 13.4302 201.172 10.4077C198.881 5.66004 199.01 5.61538 202.733 4.32386C203.113 4.19212 203.53 4.04742 203.986 3.88343ZM312.913 33.9203C315.024 33.9203 317.134 33.2532 317.134 29.4387C317.134 25.6242 313.803 25.3949 313.347 25.3949C310.906 25.3949 308.671 27.3126 308.671 29.9807C308.671 32.6488 310.782 33.8994 312.913 33.8994V33.9203ZM399.634 27.7357C399.85 27.7424 400.089 27.7497 400.34 27.7712L400.32 27.6878C400.535 27.7062 400.768 27.7142 401.005 27.7223C402.113 27.7604 403.32 27.8019 403.32 28.9176C403.32 31.273 402.078 32.1485 400.961 32.7113C399.844 33.2741 396.181 33.0865 396.181 33.0865C396.181 33.0865 393.822 40.4237 391.608 46.1976C390.501 49.0931 389.678 51.0829 389.134 52.3974C388.691 53.4676 388.433 54.0902 388.359 54.3895C387.242 59.0378 394.608 55.9737 396.284 54.2436C397.298 53.2014 397.878 55.7027 397.298 56.6824C395.622 59.4964 389.601 62.1436 385.214 61.831C383.178 61.69 382.261 60.6349 381.573 59.8431C381.142 59.3471 380.8 58.9544 380.33 58.9544C379.96 58.9544 379.37 59.2231 378.549 59.5973C376.664 60.4566 373.556 61.8727 369.073 61.8727C363.207 61.8727 364.253 57.3348 364.656 55.5848C364.695 55.4149 364.728 55.2714 364.749 55.1608C365.102 53.2269 366.309 50.7066 367.452 48.3206C368.65 45.8202 369.777 43.4672 369.777 42.0913C369.777 40.8615 369.218 40.6113 368.018 40.382C366.839 40.1528 365.018 40.4654 363.714 41.3409C361.805 42.5914 361.241 43.7584 360.579 45.1261C360.51 45.2683 360.441 45.4125 360.368 45.5593C360.376 45.5384 360.382 45.5137 360.382 45.4889L360.271 45.8208C359.489 48.1442 358.796 50.205 358.065 52.0758C357.419 53.7212 356.961 55.1534 356.572 56.3708C355.525 59.6411 354.975 61.3608 352.623 61.4975C350.057 61.6434 348.794 61.6017 348.463 60.6012C348.277 60.0175 349.622 56.0571 351.215 51.4088C349.834 52.5321 345.386 55.4627 341.621 57.9441C340.705 58.5475 339.829 59.1244 339.048 59.6423C338.723 60.5385 338.433 61.2931 338.135 62.069C337.483 63.7655 336.792 65.564 335.613 69.1682C333.482 75.6508 331.04 82.9881 329.591 86.4483C327.377 91.7219 322.225 95.3071 317.507 93.3061C317.486 93.2852 317.445 93.2852 317.445 93.2852C316.182 92.8058 314.693 91.8053 313.575 89.9084C312.437 88.1575 311.692 85.8021 311.961 82.863V82.5503L312.003 82.592C312.313 79.7364 313.575 76.3595 316.307 72.4199C319.564 67.7458 323.517 65.2806 327.452 62.8267C328.167 62.3807 328.882 61.9351 329.591 61.4766C328.102 61.956 325.763 62.4355 322.452 61.9143C320.714 61.6434 317.714 60.4552 316.307 57.1201V57.1827C316.307 57.1827 310.678 61.6851 304.346 61.6851C301.182 61.6851 300.203 60.181 299.018 58.3601C298.94 58.2399 298.861 58.1183 298.78 57.9956C297.911 58.9961 293.979 61.8101 289.861 61.8101C285.933 61.8101 285.319 59.2869 284.408 55.5436C284.364 55.3632 284.32 55.1799 284.274 54.994C278.915 60.4761 273.659 61.8101 269.127 61.8101C265.423 61.8101 256.318 58.9336 257.084 49.908C257.911 39.9235 263.685 34.4622 271.589 34.4622C276.183 34.4622 280.549 35.4836 280.674 40.2987C280.827 46.1538 273.489 49.9623 271.393 51.05C271.221 51.1395 271.084 51.2106 270.989 51.2628C270.493 51.5338 267.865 52.8262 266.209 53.4724C267.078 55.0774 269.023 56.2238 271.382 56.1613C272.645 56.1404 275.231 56.0571 279.163 53.118C281.584 51.2837 283.881 49.3868 285.95 44.1757C288.516 36.0464 292.427 23.7482 294.641 17.9951C297.124 11.5542 302.215 8.21907 303.725 9.24045C305.241 10.2584 304.111 13.1882 303.042 15.9582C302.973 16.1378 302.904 16.3167 302.836 16.4943C302.654 16.9757 299.311 26.6953 296.964 33.5192C296.363 35.2651 295.828 36.8214 295.428 37.9849C293.938 42.3831 290.999 51.8673 290.958 53.5349C290.917 54.994 291.392 56.4323 293.772 56.4323C295.386 56.4323 297.683 55.3275 298.676 52.451V52.576C299.159 51.5432 299.915 49.5461 300.811 47.1775L300.89 46.9689C302.132 43.7172 304.119 39.1522 305.112 37.8182C306.126 36.4633 308.94 35.4628 310.388 35.2335C311.837 35.0042 312.623 35.9005 312.623 37.1303C312.623 37.9279 311.64 39.9442 310.519 42.2409C309.912 43.4855 309.265 44.8125 308.712 46.0726C307.016 49.9705 305.919 52.7011 305.919 54.056C305.919 55.4109 306.25 56.2864 307.574 56.4114C308.919 56.5156 310.306 56.4531 312.396 55.1399C313.244 54.5979 315.003 53.4098 315.727 51.3462C316.907 44.6343 324.398 34.9 331.247 34.9C336.813 34.9 339.048 39.3815 339.048 39.8401C339.048 39.8477 339.045 39.8581 339.042 39.8714C339.036 39.8942 339.027 39.9255 339.027 39.9652C339.144 39.7739 339.23 39.5722 339.314 39.3748C339.349 39.2925 339.384 39.2111 339.421 39.1314C340.828 35.8171 343.042 35.7337 344.221 35.8171C345.318 35.9005 346.042 36.1298 346.042 37.9224C346.042 39.0811 343.92 45.0961 342.046 50.4097C341.594 51.692 341.156 52.9335 340.766 54.056C341.418 53.595 342.343 52.9927 343.388 52.3116C345.889 50.6827 349.081 48.6028 350.905 46.9272C352.312 45.6557 353.223 44.4259 354.071 42.5082C356.616 34.4414 360.175 23.3521 362.245 17.9743C364.728 11.5333 369.818 8.19823 371.329 9.2196C372.845 10.2375 371.714 13.1674 370.645 15.9374C370.576 16.1169 370.507 16.2958 370.439 16.4735C370.343 16.745 369.288 19.8135 367.967 23.6579C366.448 28.0772 364.577 33.5219 363.404 36.9219C363.366 37.0099 363.336 37.0979 363.305 37.1905C363.284 37.2514 363.263 37.3143 363.238 37.3804C366.383 35.0667 369.384 34.9208 371.225 34.9208C373.108 34.9416 378.571 35.7129 377.578 41.0282C377.142 43.3577 376.449 44.785 375.607 46.5167C375.41 46.9233 375.204 47.3468 374.992 47.8027C373.915 50.1372 372.281 53.7433 372.115 54.1811C371.453 55.9737 371.639 57.266 372.736 57.4328C376.13 57.9331 380.868 54.5146 381.903 52.1383C382.842 49.9808 384.076 46.3767 385.271 42.8863C385.947 40.9139 386.61 38.9778 387.2 37.3596C387.8 35.7337 388.194 34.6707 388.545 33.7327C387.076 33.7327 384.179 33.6701 384.179 32.1068C384.179 28.7508 388.483 28.3131 390.035 28.2506H390.594C390.801 27.6878 391.028 27.0833 391.297 26.3746C393.346 20.9133 397.816 17.3281 399.699 17.9743C401.106 18.4537 400.506 21.6012 399.388 24.5194C398.698 26.3561 398.721 26.4506 398.735 26.5074C398.743 26.5408 398.748 26.5612 398.602 26.9165C398.29 27.6944 398.8 27.7101 399.634 27.7357ZM360.341 45.614C360.35 45.5957 360.359 45.5774 360.368 45.5593C360.356 45.5911 360.341 45.614 360.341 45.614ZM274.404 40.9032C274.404 38.5686 273.183 37.9641 271.32 37.9641V37.9849C266.023 37.9849 265.009 46.5312 265.133 49.3452C265.961 49.1367 269.603 47.2607 270.327 46.7604C273.079 44.8428 274.404 43.2377 274.404 40.9032ZM319.411 85.7604C321.294 86.6359 322.908 84.2387 324.48 79.5487C326.425 73.8165 329.136 66.25 329.136 66.25C328.371 66.7086 326.922 67.7091 325.205 69.0848C323.777 70.2313 321.666 72.3574 319.804 76.1511C318.066 79.6947 317.196 84.7182 319.411 85.7604ZM335.201 48.4221C335.812 46.6099 336.359 44.9862 336.855 43.7588V43.738C336.917 41.8412 335.22 39.6942 332.323 39.715C326.529 39.7776 323.756 49.0325 323.756 52.2842C323.756 55.536 325.991 56.4323 327.895 56.4323C329.798 56.4323 332.964 54.7439 332.964 54.7439C333.795 52.5923 334.536 50.3955 335.201 48.4221Z" fill="#862633"/>
</svg>
