<svg width="308" height="55" viewBox="0 0 308 55" fill="none" xmlns="http://www.w3.org/2000/svg">
<path d="M20.5651 0C20.8974 0.13935 21.245 0.238673 21.6007 0.295876H22.7398C23.6268 0.280806 24.5044 0.478657 25.2991 0.872834C25.368 0.87996 25.4374 0.87996 25.5063 0.872834C26.504 1.21162 27.4575 1.66854 28.3467 2.23386L28.465 2.33742L30.5214 4.26061C30.682 4.44282 30.8303 4.63557 30.9652 4.83757C31.0453 4.98103 31.1342 5.11937 31.2315 5.2518C31.5273 5.62164 31.838 5.9619 32.1339 6.31695C32.2422 6.44504 32.3183 6.59723 32.3558 6.76077C32.4446 7.48566 33.0215 8.07741 32.9623 8.84669C32.9546 8.98466 32.9546 9.12295 32.9623 9.26092C32.7848 9.73432 32.6517 10.1042 32.5037 10.474C32.3766 10.9503 32.0826 11.365 31.6753 11.6427C31.3921 11.849 31.1382 12.0929 30.9208 12.3676C30.6201 12.6374 30.2747 12.8526 29.9 13.0037C29.7881 13.0621 29.6638 13.0925 29.5376 13.0925C29.4114 13.0925 29.287 13.0621 29.1751 13.0037C28.3193 12.6056 27.6251 11.9271 27.2075 11.0806C26.6871 9.85715 25.8743 8.78021 24.8405 7.94427C24.2771 7.42817 23.5599 7.11116 22.799 7.04185C22.7047 7.03246 22.6138 7.00213 22.5327 6.95308C21.7649 6.66479 20.9187 6.66479 20.1509 6.95308C19.5256 7.06398 18.9278 7.29508 18.3904 7.6336C18.3165 7.6336 18.1981 7.6336 18.1094 7.6336C18.0206 7.6336 17.6212 8.107 17.3105 8.29932C17.0399 8.50176 16.8092 8.75255 16.63 9.03901C16.3028 9.43509 15.9131 9.77491 15.4761 10.045C15.1088 10.2789 14.8041 10.5988 14.5884 10.977C14.4673 11.1846 14.3234 11.3781 14.1594 11.554C13.7767 11.9043 13.4343 12.2963 13.1386 12.7227C13.033 12.8756 12.9437 13.0392 12.8724 13.2109C12.7412 13.6663 12.5085 14.0861 12.1918 14.4387C11.7884 14.9389 11.4458 15.4852 11.1711 16.0661C10.9788 16.5395 10.7568 17.0129 10.6089 17.5454C10.5575 17.8014 10.4344 18.0374 10.2539 18.226C10.0136 18.4641 9.86215 18.7774 9.82484 19.1136C9.74741 19.4546 9.62293 19.7832 9.45499 20.09C9.00752 21.0893 8.62697 22.1173 8.31587 23.1671C8.16793 23.6257 8.21231 24.1139 8.03479 24.5577C7.85726 25.0015 7.78329 25.5045 7.63535 26.0371C7.47883 26.3903 7.40787 26.7756 7.42824 27.1614C7.42824 27.3833 7.33948 27.5313 7.2803 27.7088C7.20145 27.9333 7.15173 28.167 7.13237 28.4041C7.13237 28.7296 7.13237 29.055 7.13237 29.3805C6.812 29.8605 6.65624 30.4316 6.68855 31.0078C6.77731 31.6587 6.49623 32.2653 6.52582 32.9162C6.61481 33.5641 6.61481 34.2211 6.52582 34.869C6.42684 35.471 6.36753 36.0788 6.34829 36.6886C6.33301 37.2189 6.42354 37.747 6.61458 38.242C6.65183 38.4623 6.65183 38.6873 6.61458 38.9077C6.66842 39.9989 6.91901 41.0714 7.35427 42.0736C7.54659 42.6209 7.88685 43.1091 8.09396 43.6565C8.218 43.9646 8.39304 44.2497 8.61174 44.4997C8.92241 44.8844 9.36623 45.1359 9.57334 45.6093C10.3139 46.2679 11.1792 46.771 12.1179 47.0887C12.4245 47.1607 12.736 47.2102 13.0499 47.2366C13.3602 47.2269 13.6688 47.2876 13.9523 47.4141C14.1444 47.5258 14.3709 47.5626 14.5884 47.5177C15.1968 47.4364 15.7995 47.3179 16.3933 47.1626C16.5581 47.1186 16.7264 47.0889 16.8963 47.0739C17.8159 47.0131 18.7128 46.7612 19.5296 46.3342C20.1554 45.9177 20.8133 45.5516 21.4971 45.2394C21.7782 45.1359 21.9705 44.84 22.222 44.6329C22.7546 44.1743 23.4647 43.9376 23.8789 43.331C24.0713 43.0795 24.2636 42.828 24.4707 42.5913C24.6778 42.3546 24.8701 42.044 25.1216 41.9848C25.3731 41.9256 25.4915 41.4966 25.7282 41.3043C25.9472 41.1191 26.1456 40.9108 26.3199 40.6829C26.7795 40.1785 27.3193 39.7536 27.9177 39.4255C28.2727 39.1888 28.539 38.8041 28.9976 38.745C29.1159 38.745 29.2787 38.6118 29.3231 38.6562C29.3674 38.7006 29.8261 38.7893 30.0775 38.8485C30.4058 38.9432 30.6975 39.1354 30.9142 39.3995C31.1308 39.6637 31.2621 39.9875 31.2906 40.3279C31.3646 40.6682 31.5717 40.9936 31.409 41.3783C31.2463 41.7629 31.2463 42.0588 31.1427 42.399C31.0391 42.7393 30.7285 43.3902 30.6397 43.8784C30.6397 44.1151 30.3586 44.3074 30.2551 44.5441C30.1515 44.7808 29.9592 45.343 29.7373 45.6833C29.4326 45.9981 29.1508 46.3343 28.894 46.6892C28.761 46.968 28.5973 47.231 28.4058 47.4733C28.1119 47.8835 27.7635 48.2518 27.3703 48.568C26.8263 48.9519 26.3297 49.3988 25.8909 49.8995C25.2672 50.5695 24.5117 51.1034 23.6718 51.4676C22.9913 51.8966 22.1925 52.1925 21.5415 52.5624C21.0644 52.915 20.4922 53.116 19.8994 53.1393C19.4018 53.3569 18.8805 53.5157 18.3461 53.6127C18.2205 53.6744 18.0855 53.7144 17.9466 53.7311C17.5125 53.7135 17.0784 53.7635 16.6596 53.879C16.1834 54.0367 15.6793 54.0922 15.1802 54.0417C14.6421 54.1077 14.0962 54.052 13.5825 53.879C13.3606 53.7755 13.1534 54.1601 12.9463 53.879C12.1691 53.808 11.4092 53.608 10.6977 53.2873C10.5349 53.1837 10.2539 53.2873 10.0763 53.1245C9.59738 53.0944 9.14318 52.9013 8.78927 52.5772C8.56078 52.455 8.3083 52.3843 8.04958 52.37C7.81441 52.3413 7.59304 52.2435 7.41345 52.089C7.06357 51.7658 6.66396 51.501 6.22994 51.3049C6.16339 51.2778 6.103 51.2376 6.05242 51.1865L4.12922 49.4557C3.89245 49.251 3.72671 48.9765 3.65582 48.6716C3.59342 48.4622 3.48912 48.2677 3.34925 48.0999C3.20938 47.932 3.03686 47.7943 2.84216 47.6952C2.666 47.4068 2.51266 47.1051 2.38356 46.7928C2.18462 46.2466 1.94221 45.7173 1.65866 45.2098C1.48024 44.6554 1.25762 44.1162 0.992939 43.5973C0.970364 43.505 0.970364 43.4086 0.992939 43.3162C0.946828 42.6768 0.75991 42.0554 0.445568 41.4966C0.445568 40.4906 0.17928 39.529 0.297631 38.5378C-0.027833 38.1384 0.223661 37.6502 0.105311 37.1916C0.0261837 36.7325 -0.00849545 36.2668 0.0017545 35.801C0.0017545 35.298 0.223661 34.8542 0.164486 34.3216C0.109401 33.83 0.109401 33.3338 0.164486 32.8422C0.175669 32.5564 0.240928 32.2753 0.356806 32.0138C0.42626 31.8604 0.462188 31.694 0.462188 31.5256C0.462188 31.3572 0.42626 31.1908 0.356806 31.0374C0.304678 30.8738 0.304678 30.698 0.356806 30.5344C0.356806 30.1941 0.534331 29.8539 0.623094 29.5136C0.711857 29.1734 0.623094 29.2178 0.623094 29.0698C0.63216 28.4355 0.686543 27.8027 0.785826 27.1762C0.842339 26.5605 0.991981 25.9569 1.22964 25.3862C1.35146 25.0966 1.40219 24.7821 1.37758 24.4689V23.3446C1.52552 23.0487 1.70304 22.7677 1.82139 22.457C1.94921 22.1549 2.05309 21.8433 2.13206 21.525C2.44382 20.2587 2.90051 19.0326 3.49309 17.8709C3.715 17.4271 3.75938 16.9241 3.9369 16.4655C4.08142 15.9359 4.31668 15.4353 4.63221 14.9861C4.8269 14.7493 4.95007 14.4619 4.98726 14.1577C5.03082 13.8773 5.15407 13.6154 5.34232 13.4032C5.45501 13.2765 5.54508 13.1314 5.6086 12.9742C5.98808 12.1687 6.41795 11.3881 6.89566 10.6367C7.08798 10.3557 7.08798 9.86746 7.39865 9.49762C7.70932 9.12777 8.16793 8.28453 8.70051 7.78154C8.78251 7.69448 8.85676 7.60042 8.92241 7.50045C9.20328 7.03033 9.58784 6.63059 10.0467 6.33175C10.3897 6.13269 10.6634 5.8332 10.8308 5.4737C10.9897 5.18401 11.2251 4.9435 11.5113 4.7784C12.1507 4.30644 12.7318 3.76017 13.2422 3.15108C13.8133 2.64464 14.4564 2.22584 15.1506 1.9084C15.1506 1.9084 15.3429 1.9084 15.3725 1.9084C15.7128 1.71608 15.8163 1.34624 16.1862 1.28706C16.1862 1.28706 16.2897 1.15392 16.3489 1.15392C17.0363 1.00537 17.7094 0.797475 18.3609 0.532577C19.071 0.369845 19.8402 0.207113 20.4912 0.0147938V0H20.5651Z" fill="#840029"/>
<path d="M74.5184 9.8082L74.045 9.60109C73.2609 10.0005 72.6544 9.51233 72.0479 9.14248C71.6696 8.83643 71.3829 8.43206 71.2194 7.97377L71.0419 7.61872C71.0748 7.0191 71.139 6.4216 71.2342 5.82867C71.3175 5.41032 71.5117 5.02202 71.7964 4.70434C72.4798 4.08144 73.2655 3.58099 74.119 3.22496C74.5635 3.16873 74.9944 3.03346 75.3913 2.82553C75.7907 2.69239 76.2493 2.72197 76.5896 2.4261C76.9275 2.43825 77.2644 2.38293 77.5807 2.26337L78.4388 1.96749C78.5368 1.95269 78.6366 1.95269 78.7347 1.96749C79.1193 1.96749 79.5039 1.96749 79.9034 1.84914C80.3028 1.73079 80.6874 1.9379 81.0425 1.67161C81.0425 1.67161 81.1904 1.67161 81.2644 1.67161C82.2112 1.716 83.1284 1.47929 84.016 1.47929C84.2756 1.45527 84.5328 1.41075 84.7853 1.34615C85.022 1.34615 85.2883 1.34615 85.5398 1.34615C86.0466 1.32402 86.5519 1.41498 87.0192 1.61244C87.0925 1.6268 87.1678 1.6268 87.2411 1.61244C87.6026 1.58666 87.9655 1.63705 88.3062 1.76038C88.6713 1.90994 89.068 1.96588 89.4602 1.92311H89.5341C89.8664 2.10832 90.2348 2.21936 90.6141 2.24857C90.9893 2.26834 91.3567 2.36396 91.694 2.52965C92.0051 2.69458 92.3064 2.87734 92.5964 3.07702C92.7592 3.18058 92.9071 3.3729 93.0846 3.38769C93.5955 3.462 94.0573 3.73268 94.3717 4.14218C94.638 4.40847 94.8895 4.68955 95.1706 4.94104C95.61 5.38153 95.9881 5.87912 96.2949 6.42042C96.5541 6.99622 96.7573 7.59568 96.9014 8.21047C97.0336 8.69177 97.0836 9.19192 97.0494 9.68985C97.0494 9.92655 97.0494 10.1633 97.1825 10.4C97.2252 10.5006 97.2473 10.6087 97.2473 10.718C97.2473 10.8273 97.2252 10.9355 97.1825 11.0361C96.9601 11.6576 96.787 12.2957 96.6647 12.9445C96.4577 13.6885 96.149 14.4003 95.7475 15.06C95.644 15.2375 95.5256 15.4151 95.4369 15.6074C95.1455 16.2397 94.7449 16.8156 94.2533 17.3087C94.0386 17.505 93.8716 17.7479 93.7652 18.0188C93.6127 18.4595 93.3086 18.8318 92.9071 19.0691C92.4159 19.4269 92.0073 19.886 91.7088 20.4154C91.2682 20.5771 90.9005 20.8923 90.6733 21.303C90.5236 21.5272 90.3202 21.7103 90.0815 21.8356C89.6622 22.168 89.2803 22.545 88.9424 22.9599V23.67C89.0822 23.7744 89.2442 23.8452 89.4158 23.8771C90.1045 23.9157 90.7832 24.0604 91.4277 24.3061C91.8686 24.379 92.3184 24.379 92.7592 24.3061L96.0878 25.6524C96.4675 26.0968 96.9297 26.4636 97.4488 26.7323C97.5541 26.7981 97.6406 26.8898 97.7003 26.9986C97.7743 27.0874 97.8039 27.2353 97.8926 27.2797C98.4844 27.6495 98.6767 28.33 99.1057 28.7591C99.5347 29.1881 99.4608 29.6319 99.6531 30.0609C99.7958 30.3121 99.8529 30.6029 99.8158 30.8894C99.8158 31.0373 99.9194 31.1704 99.9342 31.2888C100.038 31.7918 100.348 32.3096 99.9342 32.7682C99.9153 33.3888 99.8209 34.0048 99.6531 34.6026C99.5275 35.1257 99.4679 35.6624 99.4756 36.2003C99.4764 36.3905 99.408 36.5746 99.2832 36.7181C98.9227 37.2688 98.639 37.866 98.44 38.4934C98.3501 38.7398 98.2202 38.9698 98.0554 39.1739C97.7713 39.489 97.5414 39.8489 97.3748 40.239C97.1662 40.6731 96.8918 41.0723 96.5612 41.4225C96.4576 41.5409 96.3985 41.7036 96.2949 41.8368C95.8175 42.5229 95.2272 43.1232 94.5492 43.612C94.2457 43.8377 93.9723 44.1011 93.7356 44.3961C93.7356 44.4849 93.7356 44.6328 93.5728 44.7068C93.1108 45.1977 92.6166 45.6573 92.0935 46.0826C91.8336 46.256 91.5952 46.4596 91.3834 46.6891C90.8056 47.2595 90.1596 47.7564 89.4602 48.1685C89.2087 48.346 88.9424 48.494 88.6909 48.6863C88.4394 48.8786 88.0695 49.2189 87.7293 49.4852C87.6047 49.5843 87.4572 49.6505 87.3003 49.6775C86.6601 49.8427 86.0575 50.1289 85.525 50.5207C85.2439 50.6539 85.0368 50.9054 84.6966 50.8906C83.8588 51.3648 82.9494 51.6996 82.0041 51.8818C81.4068 52.0096 80.8329 52.2292 80.3028 52.5327C80.2347 52.549 80.1638 52.549 80.0957 52.5327C79.8052 52.5407 79.5169 52.5855 79.2376 52.6658C78.3414 52.8836 77.4231 52.9977 76.5008 53.0061C75.6943 52.9486 74.9012 52.7691 74.1486 52.4735C73.7693 52.283 73.3663 52.1437 72.9503 52.0593C72.6017 51.9954 72.2756 51.8425 72.0035 51.6155C71.4598 51.3006 71.0103 50.846 70.7016 50.2988C70.3418 49.6205 70.1586 48.8624 70.169 48.0945C70.169 47.7543 70.169 47.3992 70.169 47.0442C70.0872 46.5197 70.0872 45.9857 70.169 45.4613C70.3318 45.0026 70.169 44.4997 70.4205 43.9819C70.4945 43.8783 70.4205 43.686 70.4205 43.5381C70.3998 43.173 70.4449 42.8072 70.5537 42.4581C70.6868 42.1622 70.4501 41.7776 70.7312 41.4817C70.5389 40.8308 71.1454 40.1947 70.7312 39.5437C70.7312 39.5437 70.8348 39.3958 70.8496 39.3218C71.086 38.2438 71.1904 37.1409 71.1602 36.0376C71.1634 35.8238 71.2086 35.6126 71.2934 35.4163C71.4191 34.9151 71.5722 34.4213 71.752 33.9369C71.752 33.8185 71.752 33.6114 71.752 33.4487C71.731 33.3089 71.7014 33.1706 71.6632 33.0345C71.6446 32.4071 71.7554 31.7827 71.9887 31.2C72.0417 31.0713 72.0813 30.9374 72.107 30.8006C72.0586 29.9466 72.1588 29.0907 72.4029 28.2709C72.4401 28.0754 72.4401 27.8746 72.4029 27.6791C72.3376 27.1431 72.4247 26.5996 72.6544 26.111C72.7007 25.9717 72.7007 25.8212 72.6544 25.6819C72.6139 25.1007 72.7101 24.518 72.9355 23.9807C72.9499 23.9124 72.9499 23.8418 72.9355 23.7735C72.9455 22.9821 72.9998 22.1919 73.0982 21.4065C73.1146 21.0974 73.1592 20.7904 73.2314 20.4893C73.2314 20.1787 73.113 19.8532 73.3793 19.5573C73.3793 19.5573 73.3793 19.3206 73.3793 19.1875C73.4329 18.4756 73.5619 17.7714 73.7639 17.0868C73.7764 17.0183 73.7764 16.9481 73.7639 16.8796C73.6604 16.1695 73.9711 15.4003 73.9119 14.7641C73.9119 14.4387 74.0598 14.202 74.0746 13.9061C74.0894 13.6102 73.9415 13.2995 74.2225 13.0628C74.2341 12.4658 74.3287 11.8733 74.5036 11.3024C74.6428 10.7724 74.5849 10.21 74.3409 9.71944M78.4832 30.8894C78.2164 31.5405 78.1001 32.2434 78.1429 32.9457C78.1429 33.212 78.2613 33.4931 78.0541 33.7446C77.847 33.9961 78.1577 34.3511 77.847 34.5582C77.847 35.002 77.492 35.4606 77.7287 35.8453C77.9654 36.2299 77.7287 36.4518 77.7287 36.7181C77.6334 36.9631 77.5881 37.2247 77.5955 37.4874C77.5955 37.6205 77.5955 37.7833 77.5955 37.8572C77.5955 37.9312 77.5955 38.5378 77.4328 38.7745C77.2701 39.0112 77.344 39.455 77.3145 39.7804C77.2849 40.1059 77.3884 40.4314 77.3145 40.6829C77.2125 40.9825 77.1673 41.2986 77.1813 41.6149C77.1813 41.9107 77.063 42.2214 77.0334 42.5321C77.0628 43.1499 77.0331 43.7691 76.9446 44.3813C76.854 44.8694 76.8045 45.3643 76.7967 45.8607L77.4772 46.2305L77.8618 46.0382C78.1128 46.0604 78.3653 46.0604 78.6163 46.0382C78.8678 46.0382 79.0897 45.8163 79.3264 45.7423C79.5631 45.6684 80.0365 45.6092 80.4064 45.5352C80.7762 45.4613 80.8354 45.2985 81.0721 45.195C81.8266 44.8843 82.5515 44.4553 83.2911 44.1446C83.7304 43.9932 84.152 43.7948 84.5486 43.5529C85.2587 43.109 85.8949 42.5469 86.5902 42.0735C87.1684 41.7107 87.7 41.2785 88.1731 40.7864C88.4369 40.4952 88.735 40.2369 89.0607 40.0171C89.4428 39.7969 89.7792 39.5056 90.0519 39.1591C90.2294 38.9224 90.4218 38.7153 90.6141 38.4934C90.8064 38.2715 90.8064 38.1827 90.8952 38.0939C90.9839 38.0052 91.2058 37.4282 91.4721 37.1915C91.8166 36.856 92.0798 36.4461 92.2414 35.9932C92.2958 35.8349 92.3813 35.689 92.4929 35.5642C92.7707 35.2092 92.9448 34.7842 92.9959 34.3363C93.0679 33.8955 93.1718 33.4604 93.3065 33.0345C93.4128 32.8339 93.4683 32.6105 93.4683 32.3835C93.4683 32.1566 93.4128 31.9331 93.3065 31.7326L91.9307 31.0669C91.6746 31.0449 91.4217 30.9953 91.1762 30.919C90.4524 30.6163 89.6816 30.4411 88.898 30.4012C88.6547 30.4059 88.413 30.3606 88.1879 30.268C87.8755 30.1532 87.5443 30.098 87.2115 30.1053C86.1759 30.1053 85.1404 30.1053 84.1048 30.1053C83.9622 30.0901 83.8184 30.0901 83.6758 30.1053C83.3379 30.2169 82.9916 30.301 82.6402 30.3568C82.3281 30.4469 81.9929 30.4097 81.7082 30.2532C81.5963 30.1949 81.472 30.1644 81.3458 30.1644C81.2196 30.1644 81.0952 30.1949 80.9833 30.2532C80.764 30.3636 80.5164 30.4049 80.2732 30.3716C79.9478 30.3716 79.6223 30.3716 79.3116 30.3716C79.0897 30.6083 78.8678 30.8154 78.6607 31.0225M80.2288 21.5101C80.8345 21.1537 81.3956 20.7266 81.9005 20.2378C81.9005 20.2378 82.0633 20.1491 82.1372 20.0899C82.489 19.8939 82.8253 19.6714 83.1432 19.4242C84.2971 18.359 85.4215 17.2643 86.5606 16.1695C86.6641 16.066 86.7529 15.9032 86.886 15.8737C87.1929 15.7639 87.4466 15.5419 87.5961 15.2523C87.8469 14.8886 88.1399 14.5559 88.469 14.2611C88.8495 13.8939 89.1558 13.4569 89.3714 12.9741C89.4997 12.7002 89.643 12.4335 89.8004 12.1752C90.0699 11.8009 90.2613 11.3761 90.3629 10.9262C90.4646 10.4763 90.4745 10.0105 90.3922 9.55671L90.0223 9.17207C89.8227 8.9294 89.5685 8.73728 89.2806 8.61132C88.9927 8.48537 88.6792 8.42912 88.3654 8.44717C88.2692 8.47778 88.1658 8.47778 88.0695 8.44717C87.8033 8.19568 87.463 8.44717 87.2263 8.29923C86.9363 8.16136 86.6113 8.11492 86.2943 8.16609C86.0428 8.16609 85.7913 8.28444 85.525 8.31403H84.9333C84.7409 8.31403 84.5634 8.18089 84.3859 8.16609H82.5367C82.4163 8.17119 82.2992 8.20682 82.1964 8.26965C81.999 8.35391 81.8223 8.48011 81.6786 8.63949C81.565 8.87135 81.4948 9.12205 81.4715 9.37918C81.4715 9.63068 81.4715 9.88217 81.4715 10.1337C81.4364 10.3682 81.387 10.6004 81.3236 10.829C81.2489 10.9985 81.199 11.1778 81.1756 11.3616C81.1567 12.3116 81.0477 13.2577 80.8502 14.1872C80.8068 14.4931 80.7222 14.7916 80.5987 15.0748C80.5987 15.3115 80.7614 15.5482 80.7022 15.7257C80.5543 16.1843 80.5247 16.6577 80.4064 17.1163C80.4064 17.2939 80.1845 17.501 80.2732 17.6489C80.362 17.7969 80.362 18.2111 80.2732 18.5217C80.1845 18.8324 80.362 19.0691 80.2732 19.2614C80.1845 19.4538 80.2732 19.9567 80.1253 20.2526C80.0592 20.3939 80.025 20.5479 80.025 20.7038C80.025 20.8598 80.0592 21.0138 80.1253 21.155C80.1253 21.2734 80.1253 21.4065 80.2436 21.5249" fill="#840029"/>
<path d="M56.3218 3.4173C56.9137 3.77962 57.5647 4.03501 58.245 4.17179C59.4621 4.59717 60.6165 5.18433 61.6772 5.91745C61.7955 5.91745 61.9582 6.10977 61.9878 6.24292C61.9982 6.32748 62.0293 6.40818 62.0783 6.47786C62.1273 6.54754 62.1928 6.60404 62.2689 6.64235C63.0826 7.14534 63.5264 8.01817 64.2365 8.62472C64.7161 9.15444 65.0879 9.77249 65.3312 10.4444C65.3591 10.5568 65.4094 10.6625 65.4792 10.755C65.8982 11.3761 66.227 12.0535 66.4556 12.767C66.6035 13.0924 66.4556 13.4031 66.5739 13.699C66.7128 13.9447 66.7985 14.2169 66.8254 14.4979C66.7962 14.9796 66.8984 15.4603 67.1213 15.8885C67.1364 15.9617 67.1364 16.0372 67.1213 16.1104C67.135 16.696 67.1943 17.2797 67.2988 17.856C67.3806 18.3451 67.4251 18.8396 67.4319 19.3354C67.4977 19.7055 67.5867 20.0712 67.6982 20.4302C67.6429 20.5785 67.6032 20.7322 67.5799 20.8888C67.5577 21.3175 67.5577 21.7471 67.5799 22.1758C67.6834 23.2262 67.3728 24.247 67.4319 25.2973C67.2568 25.9123 67.2065 26.5562 67.284 27.1909C67.2618 27.4666 67.2618 27.7437 67.284 28.0194C67.29 28.285 67.2343 28.5483 67.1213 28.7887C67.015 29.0313 66.9597 29.2931 66.9585 29.5579C66.9585 29.6615 66.8254 29.7651 66.8254 29.8834C66.8733 30.341 66.7749 30.802 66.5443 31.2001C66.5064 31.295 66.5064 31.4009 66.5443 31.4959C66.5217 32.199 66.4275 32.8979 66.2632 33.5819C66.0413 33.7298 66.1005 33.9369 66.1153 34.1292C66.1048 34.6557 65.9458 35.1685 65.6567 35.6086C65.6719 35.9699 65.5736 36.3268 65.3756 36.6294C65.0888 37.2432 64.8752 37.8887 64.7395 38.5526C64.6253 39.1736 64.4262 39.7759 64.1477 40.3426C63.8635 40.7997 63.6537 41.299 63.5264 41.822C63.4641 41.9978 63.3742 42.1626 63.2601 42.3102C62.7127 43.3606 62.0766 44.3369 61.4553 45.269C60.5353 46.58 59.4571 47.7725 58.245 48.8195C57.6816 49.3516 57.0836 49.8458 56.4549 50.2988C56.3458 50.3866 56.2266 50.4611 56.0999 50.5208C55.4786 50.8018 54.872 51.0977 54.2507 51.3492C53.6293 51.6007 52.9784 51.8078 52.3275 52.0149C51.9632 52.118 51.5926 52.1971 51.2179 52.2516C50.9369 52.2516 50.641 52.2516 50.3747 52.3996C50.2554 52.4437 50.1242 52.4437 50.0049 52.3996C49.5531 52.2516 49.066 52.2516 48.6142 52.3996H48.5107C48.3087 52.3341 48.1005 52.2895 47.8893 52.2664C47.6794 52.2966 47.4718 52.3411 47.268 52.3996C46.9357 52.4184 46.6055 52.3359 46.3212 52.1629C45.8478 51.9557 45.3596 51.8078 44.8418 51.6155C43.9502 51.287 43.1048 50.8445 42.3269 50.2988C42.0613 50.1065 41.7791 49.9381 41.4836 49.7959C40.6826 49.3248 39.9995 48.6771 39.4865 47.9023C39.3533 47.7395 39.2498 47.5324 39.1018 47.3845C38.6436 46.9497 38.25 46.4515 37.9331 45.9051C37.8479 45.7756 37.7372 45.6648 37.6077 45.5796C37.282 45.3258 37.0482 44.9726 36.9419 44.5737C36.72 43.9079 36.4094 43.2718 36.1431 42.6357C36.1431 42.4877 36.0543 42.325 35.9803 42.1771C35.907 41.8789 35.7977 41.5908 35.6549 41.319C35.423 41.0548 35.2828 40.7227 35.2554 40.3722C35.2053 39.868 35.0961 39.3715 34.93 38.8928C34.93 38.8041 34.7968 38.7301 34.782 38.6413C34.782 38.2715 34.6785 37.8869 34.6341 37.5022C34.5897 37.1176 34.7524 36.8513 34.4714 36.585C34.5303 35.9775 34.4282 35.3653 34.1755 34.8097C34.168 34.7607 34.168 34.7108 34.1755 34.6618C34.1755 34.3215 34.4566 34.0405 34.2495 33.6262C34.138 33.2698 34.138 32.8879 34.2495 32.5315C34.3893 31.6264 34.434 30.7091 34.3826 29.7946C34.3826 28.8774 34.3826 27.975 34.3826 27.0726C34.3842 26.8538 34.4294 26.6375 34.5157 26.4365C34.6489 26.0717 34.714 25.6856 34.7081 25.2973C34.691 24.5596 34.7405 23.8219 34.856 23.0931C34.93 22.6492 35.0927 22.1906 35.1963 21.732C35.1963 21.732 35.285 21.6137 35.285 21.5397C35.285 21.0367 35.3738 20.5189 35.4478 20.0603C35.5312 19.6258 35.6809 19.2067 35.8916 18.8176C35.9639 18.6995 36.014 18.5691 36.0395 18.433C36.1328 17.7985 36.2864 17.1743 36.4981 16.569C36.4981 16.569 36.4981 16.4506 36.4981 16.4211C36.9041 15.6611 37.2599 14.8753 37.5633 14.0688C37.8444 13.5363 38.0071 12.9297 38.303 12.4119C38.5128 12.0096 38.7605 11.6282 39.0427 11.2728C39.1825 11.1421 39.2891 10.9798 39.3533 10.7994C39.4559 10.351 39.706 9.94987 40.0634 9.66029C40.4502 9.20466 40.8013 8.71997 41.1138 8.21049C41.5817 7.60266 42.129 7.06032 42.7411 6.59797C43.1109 6.30209 43.5252 6.0506 43.895 5.73993C44.5625 5.1698 45.33 4.72839 46.1585 4.43808C46.2324 4.43808 46.3212 4.43808 46.3804 4.43808C46.975 4.00126 47.685 3.74915 48.4219 3.71318C48.7144 3.6345 49.0011 3.53564 49.28 3.4173C49.6233 3.30343 49.9834 3.24842 50.3451 3.25457C51.3067 3.25457 52.2683 3.06225 53.2299 3.09184C53.7329 3.09184 54.1915 3.25457 54.7093 3.28416C54.961 3.35249 55.2185 3.39707 55.4786 3.4173H56.3514M58.3633 37.1324C58.3931 36.5916 58.5341 36.0628 58.7776 35.579C59.1471 34.9731 59.37 34.2892 59.4285 33.5819C59.7096 33.3747 59.4285 33.0197 59.606 32.8274C59.7836 32.6351 59.6948 32.3096 59.7244 32.0433C59.754 31.777 59.7244 31.8214 59.7244 31.7474C59.9579 31.3505 60.0566 30.8885 60.0055 30.4308C59.9972 30.362 59.9972 30.2925 60.0055 30.2237C60.2874 29.456 60.4326 28.6449 60.4345 27.8271C60.3899 27.6273 60.3899 27.4202 60.4345 27.2205C60.6379 26.631 60.7331 26.0095 60.7156 25.3861C60.6888 25.1396 60.7244 24.8903 60.8191 24.6612C60.8708 24.537 60.8974 24.4037 60.8974 24.2692C60.8974 24.1346 60.8708 24.0014 60.8191 23.8771C60.6416 23.4777 60.8191 23.0931 60.7156 22.7084C60.9227 22.5753 60.8487 22.3534 60.8635 22.161C60.8783 21.9687 60.7747 21.3326 61.0114 20.9332C61.0114 20.8444 61.0114 20.6521 61.0114 20.5189C60.9375 20.1639 60.8487 19.8236 60.7747 19.4834C61.0706 19.1727 60.7747 18.862 60.7747 18.5514C60.7117 18.3729 60.6623 18.1899 60.6268 18.004C60.6268 17.6489 60.6268 17.2939 60.6268 16.9536C60.5818 16.5856 60.5176 16.2202 60.4345 15.8589L60.0203 15.06C60.0649 14.7635 60.0485 14.461 59.9722 14.171C59.8959 13.881 59.7612 13.6097 59.5764 13.3735C59.4137 13.1664 59.2806 12.9593 59.1178 12.7374C58.6341 11.9972 58.005 11.363 57.2686 10.8734C56.8916 10.6345 56.5014 10.4172 56.0999 10.2224C55.8378 10.2215 55.5778 10.1765 55.3306 10.0893C54.872 9.84436 54.369 9.69348 53.8512 9.64549C52.8296 9.46561 51.7787 9.55744 50.8037 9.91178C50.3583 10.0794 49.8887 10.1743 49.4131 10.1929C48.3446 10.4336 47.3806 11.0088 46.6615 11.835L46.2324 12.4119C46.1012 12.6166 45.9527 12.8096 45.7886 12.9889C45.2265 13.4919 44.8862 14.202 44.3092 14.7346C44.1473 14.9079 44.0261 15.1151 43.9542 15.3411C43.7471 16.1696 43.2589 16.8205 43.0074 17.6785C42.8742 18.078 42.5488 18.3886 42.5636 18.862C42.5636 19.0691 42.3565 19.2763 42.2825 19.4982C41.9875 20.1486 41.8361 20.855 41.8387 21.5693C41.8428 21.9077 41.7667 22.2423 41.6168 22.5457C41.3057 23.3282 41.1354 24.1596 41.1138 25.0015C41.1138 25.2529 41.2025 25.5488 41.1138 25.7559C40.8327 26.3329 41.1138 26.9542 40.8475 27.5312C40.7584 27.9506 40.7584 28.384 40.8475 28.8035C40.9215 29.2621 40.67 29.6615 40.6848 30.1053C40.6996 30.5491 40.6848 31.1705 40.6848 31.703C40.6957 31.8905 40.7357 32.0752 40.8031 32.2504C40.9277 32.5193 40.9922 32.8121 40.9922 33.1085C40.9922 33.4048 40.9277 33.6976 40.8031 33.9665C40.8623 34.0805 40.9118 34.1992 40.9511 34.3215C40.9511 34.4399 40.9511 34.5878 40.9511 34.6766C41.0254 34.7744 41.0657 34.894 41.0657 35.0169C41.0657 35.1398 41.0254 35.2593 40.9511 35.3571C40.9331 35.3992 40.9239 35.4445 40.9239 35.4903C40.9239 35.536 40.9331 35.5813 40.9511 35.6234C40.9511 35.8305 41.0546 36.0376 41.099 36.2447C41.1202 36.4587 41.1548 36.6712 41.2025 36.8809C41.4041 37.5856 41.5622 38.3019 41.6759 39.026C41.806 39.7222 42.0724 40.3859 42.46 40.9788C42.6586 41.3595 42.9129 41.7086 43.2145 42.0143C43.4859 42.3748 43.6913 42.7805 43.821 43.2126C44.4504 44.0231 45.3045 44.6303 46.2768 44.9583C46.7596 45.0655 47.2235 45.2451 47.6526 45.4909C47.9372 45.6747 48.2792 45.7484 48.6142 45.698C49.4155 45.5629 50.2283 45.5084 51.0404 45.5352C51.0404 45.5352 51.1736 45.5352 51.2327 45.4465C51.7076 45.3115 52.1538 45.0909 52.5494 44.7956C53.37 44.4024 54.0888 43.8253 54.6501 43.1091C54.7683 42.8844 54.9548 42.7031 55.1827 42.5913C55.6783 42.2933 56.0628 41.8413 56.2774 41.3042C56.736 40.5201 57.0319 39.6473 57.5645 38.8928C57.6459 38.8079 57.6978 38.6989 57.7124 38.5822C57.7124 38.02 58.1119 37.6354 58.319 37.1028" fill="#840029"/>
<path d="M119.27 3.12119C120.392 3.47824 121.57 3.62862 122.746 3.565C123.397 3.84608 123.974 4.06799 124.507 4.33428C125.122 4.49371 125.71 4.74296 126.252 5.07397C126.576 5.32157 126.856 5.62159 127.081 5.9616C127.663 6.88575 127.899 7.98658 127.746 9.06829C127.746 9.42335 127.628 9.7784 127.628 10.1482C127.022 11.095 127.022 11.095 126.311 11.4205C126.127 11.364 125.939 11.3195 125.749 11.2874C125.406 11.201 125.074 11.077 124.758 10.9175C124.55 10.7713 124.327 10.6473 124.092 10.5477C123.815 10.4729 123.533 10.4136 123.249 10.3701C122.968 10.3701 122.761 10.1187 122.48 10.0447C122.199 9.9715 121.912 9.92689 121.622 9.91154C121.489 9.87523 121.36 9.82567 121.237 9.7636C120.443 9.56941 119.62 9.52924 118.811 9.64525L117.435 9.7784C117.198 9.78166 116.967 9.8536 116.769 9.98551C116.463 10.1843 116.098 10.273 115.734 10.237C115.275 10.3997 114.891 10.7104 114.402 10.8583C113.914 11.0462 113.467 11.3276 113.086 11.6868C112.676 12.0083 112.241 12.2953 111.784 12.5448C111.11 12.9115 110.52 13.4155 110.053 14.0242C109.58 14.6603 109.091 15.2669 108.677 15.9326C108.169 16.7211 107.776 17.5779 107.509 18.4771C107.415 18.7792 107.365 19.093 107.361 19.4092C107.356 19.6698 107.317 19.9286 107.242 20.1784C107.194 20.4403 107.206 20.7097 107.278 20.9661C107.35 21.2226 107.479 21.4592 107.656 21.6578C108.11 22.1979 108.704 22.6023 109.373 22.8265C109.901 22.9738 110.401 23.2088 110.852 23.5218C111.092 23.7092 111.378 23.8269 111.68 23.8621C112.016 23.8721 112.345 23.9581 112.642 24.1136C112.893 24.2615 113.204 24.3059 113.47 24.4686C113.782 24.6387 114.103 24.7918 114.432 24.9272C114.879 24.954 115.319 25.054 115.734 25.2231C116.207 25.3711 116.681 25.4894 117.213 25.6078C117.746 25.7261 118.338 26.1699 118.959 26.3475C119.311 26.3909 119.658 26.4703 119.994 26.5842C120.614 26.8663 121.264 27.0748 121.932 27.2055C122.073 27.2303 122.202 27.2974 122.302 27.3978C122.711 27.7144 123.165 27.9687 123.649 28.1523C124.418 28.5457 125.13 29.0435 125.764 29.6317C126.016 29.8536 126.311 30.0459 126.548 30.2826C127.317 31.0829 127.987 31.9719 128.545 32.9307C128.913 33.3892 129.171 33.9255 129.3 34.4988C129.596 34.7799 129.3 35.1941 129.596 35.5196C129.892 35.8451 129.684 36.2297 129.773 36.57C129.922 37.4644 129.957 38.3741 129.877 39.2772C129.877 39.8246 129.758 40.3868 129.684 41.0821L128.856 42.2656C128.667 42.9107 128.383 43.524 128.013 44.0852C127.643 44.5734 127.258 45.032 126.888 45.5646C126.657 45.9125 126.384 46.2305 126.075 46.5114C125.365 47.0292 124.832 47.7245 124.166 48.2719C123.501 48.8192 123.012 49.0411 122.465 49.4406C121.966 49.7481 121.435 50.0011 120.882 50.1951C120.364 50.417 119.832 50.6093 119.403 50.8312C118.974 51.0531 117.923 51.201 117.287 51.5561L116.977 51.704C116.653 51.6528 116.324 51.6528 116 51.704C115.689 51.7928 115.334 51.704 115.053 51.9703C114.772 52.2366 114.802 51.9703 114.684 51.9703C114.225 51.9703 113.766 51.9703 113.322 51.9703C112.659 51.9669 111.996 52.0164 111.34 52.1182C111.049 52.1435 110.756 52.1031 110.482 51.9999C110.058 51.8542 109.614 51.7792 109.165 51.778C109.028 51.7493 108.893 51.7047 108.766 51.6448C108.339 51.4284 107.869 51.3121 107.39 51.3046C107.251 51.298 107.115 51.2628 106.991 51.201C106.042 50.8721 105.126 50.4561 104.254 49.9584C104.121 49.9584 104.047 49.7365 103.928 49.6477C103.645 49.4319 103.349 49.2342 103.041 49.0559C102.299 48.6956 101.685 48.1175 101.28 47.399C101.28 47.399 101.28 47.2511 101.177 47.2067C100.549 46.6002 100.046 45.8764 99.6974 45.0764C99.6974 44.6918 99.4311 44.3071 99.5347 43.9965C99.5924 43.6196 99.7626 43.269 100.023 42.9905C100.304 42.7834 100.348 42.3395 100.777 42.2656C101.041 42.2961 101.308 42.2709 101.561 42.1916C101.857 41.9993 102.005 42.1916 102.227 42.1916C102.473 42.2132 102.721 42.2132 102.967 42.1916C103.248 42.3248 103.47 42.3987 103.677 42.5171C104.491 42.9461 105.26 43.4491 106.029 43.9965C106.562 44.3367 107.139 44.603 107.701 44.8989C107.794 44.9158 107.889 44.9158 107.982 44.8989C108.87 44.8989 109.728 45.2539 110.645 45.2243C110.955 45.2243 111.266 45.461 111.592 45.2243C111.622 45.2027 111.658 45.191 111.695 45.191C111.732 45.191 111.769 45.2027 111.799 45.2243C112.035 45.4758 112.316 45.3131 112.583 45.3723C112.849 45.4314 113.322 45.1948 113.722 45.2095C114.101 45.2462 114.482 45.2462 114.861 45.2095C115.246 45.2095 115.601 44.9433 116.015 44.8989C116.429 44.8545 116.414 44.7953 116.636 44.7657C116.822 44.7284 117.005 44.679 117.184 44.6178L117.909 44.4403C118.084 44.2016 118.305 44.0003 118.559 43.8479C118.813 43.6955 119.095 43.5951 119.388 43.5526C119.766 43.1101 120.229 42.7479 120.749 42.4875C120.936 42.3963 121.087 42.2453 121.178 42.0585C121.407 41.6826 121.697 41.3476 122.036 41.0673C122.434 40.6599 122.707 40.1462 122.82 39.5879C122.938 39.1293 123.072 38.6411 123.19 38.1085C123.276 37.8669 123.309 37.6096 123.286 37.3542C123.263 37.0989 123.185 36.8515 123.057 36.6291C122.89 36.3996 122.751 36.1513 122.643 35.8895C122.45 35.3349 122.053 34.8747 121.533 34.6024C121.148 34.3657 120.882 33.9219 120.497 33.6408C120.27 33.5955 120.05 33.5157 119.847 33.4041C119.272 33.0847 118.661 32.8363 118.027 32.6644C117.825 32.6091 117.635 32.519 117.465 32.3981C117.08 32.0431 116.533 32.0579 116.133 31.762C115.675 31.8655 115.364 31.4217 114.905 31.4365C114.509 31.3955 114.128 31.2584 113.796 31.0371C113.604 30.9187 113.308 31.0371 113.115 30.8448C112.656 30.8559 112.208 30.7097 111.843 30.4305C111.508 30.2623 111.149 30.1475 110.778 30.0903C110.393 30.0118 110.02 29.8824 109.668 29.7056C109.151 29.4394 108.588 29.395 108.085 29.0991C107.858 29.0358 107.625 28.9961 107.39 28.9807C106.918 28.8297 106.477 28.5941 106.088 28.2854C105.94 28.1819 105.763 27.9896 105.615 27.9896C105.156 27.9896 104.86 27.6789 104.55 27.4718C104.003 27.0911 103.506 26.6439 103.07 26.1403C102.453 25.4903 101.893 24.7874 101.399 24.0396C101.219 23.7667 101.098 23.4594 101.044 23.1372C100.832 22.135 100.723 21.1139 100.718 20.0897C100.718 19.9269 100.718 19.7494 100.6 19.6015C100.578 19.5579 100.566 19.5098 100.566 19.4609C100.566 19.4121 100.578 19.364 100.6 19.3204C100.851 19.0097 100.6 18.6547 100.748 18.3292C100.833 17.6215 101.017 16.9293 101.295 16.2729C101.608 15.6217 101.86 14.9433 102.05 14.2461C102.143 14.0076 102.252 13.7753 102.375 13.5508C102.821 12.6025 103.404 11.7251 104.106 10.9471C104.313 10.7432 104.488 10.5087 104.624 10.2518C104.748 9.95362 104.966 9.70423 105.245 9.5417C105.629 9.27103 105.981 8.95843 106.295 8.60969C106.851 8.06886 107.45 7.57411 108.085 7.13031C108.224 7.01851 108.353 6.89475 108.47 6.76046C108.681 6.49139 108.989 6.31604 109.328 6.27227C109.491 6.24434 109.64 6.16682 109.757 6.05036C110.04 5.83454 110.337 5.63689 110.645 5.45861C111.285 5.053 111.964 4.71111 112.672 4.43783C112.859 4.34748 113.052 4.26844 113.249 4.20113C113.895 3.80781 114.625 3.56981 115.379 3.50583C115.675 3.26912 116.045 3.50583 116.37 3.34309C117.226 3.20543 118.093 3.15585 118.959 3.19516C119.062 3.19516 119.166 3.10639 119.27 3.06201" fill="#840029"/>
<path d="M144.212 49.6039C144.212 49.6039 144.345 49.5299 144.36 49.4855C144.784 48.5142 145.569 47.7453 146.549 47.3404C146.86 47.1925 147.126 47.3404 147.526 47.1629L147.733 46.8227C147.733 46.6599 147.851 46.512 147.895 46.3641C148.02 46.1266 148.086 45.8628 148.088 45.5948C148.092 45.1931 148.216 44.8018 148.443 44.4704C148.531 44.3225 148.591 44.1302 148.531 44.0562C148.236 43.7455 148.443 43.4793 148.531 43.1982C148.652 42.877 148.708 42.535 148.694 42.1922C148.653 41.7127 148.729 41.2302 148.916 40.7868C148.969 40.5231 148.969 40.2516 148.916 39.9879C148.916 39.7512 148.916 39.5145 148.827 39.263C148.932 38.8891 149.011 38.5085 149.064 38.1239C149.069 37.5698 149.163 37.0201 149.345 36.4966C149.419 36.1554 149.419 35.8022 149.345 35.461C149.345 34.9728 149.537 34.5438 149.508 34.0852C149.745 33.9225 149.685 33.671 149.656 33.4639C149.624 32.7483 149.688 32.0317 149.848 31.3336C149.848 30.9045 149.937 30.4755 149.966 30.0317C149.977 29.7965 150.032 29.5655 150.129 29.3512C150.246 29.0038 150.291 28.6365 150.262 28.2712C150.268 27.8366 150.328 27.4043 150.44 26.9842C150.528 26.7892 150.568 26.5764 150.558 26.3628C150.544 25.6852 150.644 25.0101 150.854 24.3657C150.987 23.981 150.854 23.5372 151.032 23.1378C151.155 22.3353 151.204 21.5231 151.18 20.7116C151.262 20.2975 151.38 19.8915 151.535 19.4985C151.577 19.4147 151.607 19.3249 151.623 19.2322C151.52 18.2115 151.845 17.2203 151.786 16.2735C151.749 15.9806 151.795 15.6832 151.919 15.4154C152.054 15.1346 152.115 14.824 152.097 14.513C152.112 14.2232 152.157 13.9358 152.23 13.655C152.23 13.3739 152.097 13.0632 152.378 12.8117V11.5099L151.83 10.9033C151.414 11.1378 150.94 11.2522 150.462 11.2339C149.984 11.2157 149.521 11.0654 149.123 10.7998C148.779 10.6434 148.448 10.4604 148.132 10.2524C147.762 9.79465 147.582 9.21197 147.629 8.62507C147.549 8.31456 147.549 7.98877 147.629 7.67827C147.846 7.10656 148.202 6.59803 148.665 6.19889C148.931 5.96219 149.316 5.84383 149.537 5.57755C149.841 5.26946 150.235 5.06716 150.662 5.00059C151.091 4.88224 151.416 4.60116 151.83 4.51239C152.126 4.06858 152.659 4.03899 153.088 3.92064C153.849 3.76186 154.599 3.55934 155.337 3.31409C155.784 3.21448 156.24 3.15996 156.698 3.15136C157.371 3.11189 158.039 3.01288 158.695 2.85549C158.897 2.84072 159.099 2.84072 159.301 2.85549C159.716 2.85549 160.13 2.69276 160.603 2.60399C160.81 2.79631 161.151 2.72234 161.461 2.70755C161.994 2.70755 162.541 2.55961 163.237 2.45605L164.228 2.85549H165.707C166.353 2.88151 166.987 3.03748 167.571 3.31409C168.045 3.50641 168.547 3.62476 169.05 3.7875C169.862 4.00393 170.642 4.32205 171.373 4.7343C172.257 5.29816 173.075 5.95803 173.814 6.70188C174.259 7.15625 174.66 7.65157 175.012 8.18125C175.175 8.41796 175.323 8.69904 175.486 8.96533C175.743 9.47189 175.894 10.0256 175.93 10.5926C175.906 11.0318 175.956 11.4719 176.078 11.8945C176.211 12.1608 175.989 12.4567 175.944 12.7377C175.833 13.4818 175.624 14.208 175.323 14.8976C175.175 15.2083 174.953 15.5042 174.79 15.8149C174.649 16.1081 174.526 16.4094 174.421 16.7173C174.421 16.8948 174.421 17.1315 174.243 17.2351C173.725 17.7233 173.415 18.389 172.912 18.8772C172.578 19.2368 172.206 19.5592 171.802 19.8388C171.337 20.1503 170.936 20.5468 170.619 21.0075C170.335 21.4142 169.96 21.7486 169.524 21.9839C169.263 22.1013 169.023 22.2613 168.814 22.4573C168.296 23.0342 167.512 23.3005 166.979 23.9367C167.098 24.0994 167.231 24.2325 167.305 24.3213C167.547 24.4139 167.794 24.4929 168.045 24.558L169.198 24.8687C169.668 24.9227 170.13 25.032 170.574 25.1941C171.289 25.4355 171.962 25.7847 172.571 26.2297C172.705 26.348 172.897 26.4368 173.03 26.5699C173.441 26.9763 173.91 27.3202 174.421 27.5907C174.821 27.8584 175.138 28.2324 175.338 28.6707C175.474 29.025 175.675 29.351 175.93 29.6323C175.93 29.6323 175.93 29.7506 175.93 29.7802C176.166 30.15 176.152 30.5939 176.373 30.9637C176.549 31.3274 176.663 31.7171 176.714 32.1176C176.795 32.4229 176.795 32.7443 176.714 33.0496C176.654 33.4766 176.654 33.9097 176.714 34.3367C176.739 34.9391 176.633 35.5397 176.403 36.0972C176.403 36.2895 176.166 36.467 176.107 36.6593C176.048 36.8516 175.974 37.3102 175.885 37.7245C175.751 37.8804 175.632 38.0488 175.53 38.2275C175.391 38.5773 175.282 38.9387 175.205 39.3074C175.061 39.8705 174.764 40.3827 174.347 40.7868C173.752 41.4355 173.226 42.1446 172.779 42.9023C172.672 43.0408 172.553 43.1695 172.423 43.2869C171.891 43.8787 171.284 44.3965 170.796 45.0326C170.23 45.6403 169.6 46.1858 168.917 46.6599C168.342 47.1332 167.739 47.5728 167.112 47.9766C166.24 48.5831 165.337 49.1453 164.435 49.737C164.213 49.8655 163.965 49.9415 163.71 49.9589C163.445 49.9743 163.196 50.0908 163.015 50.2844C162.549 50.7734 161.925 51.0825 161.254 51.1572C160.591 51.2993 159.949 51.5281 159.346 51.8378C158.801 52.1261 158.21 52.3164 157.6 52.3999C157.259 52.4799 156.927 52.5939 156.609 52.7402C156.505 52.7402 156.328 52.8733 156.283 52.8289C155.928 52.5183 155.603 52.8289 155.263 52.8289C154.922 52.8289 154.582 52.6958 154.257 52.9473C153.931 53.1988 153.916 52.9473 153.739 52.9473H150.262C150.06 52.9619 149.858 52.9619 149.656 52.9473C149.494 52.9342 149.337 52.8835 149.197 52.7994C148.96 52.6218 148.65 52.7994 148.428 52.6366C148.185 52.5342 147.922 52.4887 147.659 52.5035C147.213 52.4426 146.776 52.3284 146.357 52.1632C145.685 51.9345 145.066 51.5721 144.537 51.0981C144.43 51.0462 144.315 51.0112 144.197 50.9945L144.212 49.6039ZM156.653 31.0673C156.653 32.0732 156.52 33.0053 156.461 33.9373C156.477 34.0104 156.477 34.086 156.461 34.1592C156.243 34.6726 156.147 35.2296 156.18 35.7865C156.217 35.9521 156.217 36.1239 156.18 36.2895C155.964 36.996 155.834 37.7263 155.795 38.4642C155.704 39.1462 155.65 39.8326 155.633 40.5205C155.633 40.5205 155.633 40.6093 155.633 40.6536C155.455 41.1418 155.203 41.6152 155.499 42.133C155.528 42.2042 155.528 42.2838 155.499 42.3549C155.34 42.9311 155.231 43.5202 155.174 44.1154C155.056 44.6776 155.174 45.2249 155.041 45.7575L155.263 45.9646C155.828 45.998 156.388 45.8475 156.86 45.5356C157.13 45.5731 157.404 45.5731 157.674 45.5356C158.118 45.4025 158.547 45.1953 158.976 45.0326C159.286 44.8706 159.607 44.7321 159.937 44.6184C160.293 44.5296 160.559 44.2042 160.943 44.1154C161.19 44.0553 161.428 43.9659 161.654 43.8491C161.913 43.7384 162.157 43.5942 162.378 43.4201C162.551 43.247 162.773 43.1331 163.015 43.0946C163.193 43.0353 163.352 42.9278 163.473 42.784C163.828 42.4512 164.215 42.1539 164.627 41.8963C164.999 41.5832 165.336 41.2311 165.633 40.846C166.008 40.5376 166.359 40.2013 166.683 39.84C166.9 39.5235 167.177 39.2521 167.497 39.0411C167.928 38.7228 168.278 38.3071 168.518 37.828C168.91 37.0585 169.261 36.2683 169.568 35.461C169.985 34.6211 170.189 33.6911 170.16 32.7538C169.482 32.0796 168.657 31.5731 167.749 31.2744C167.276 31.0905 166.776 30.9855 166.269 30.9637C166.02 30.9192 165.776 30.8447 165.544 30.7418C164.983 30.7157 164.424 30.6464 163.873 30.5347C163.557 30.4533 163.226 30.4533 162.911 30.5347C162.541 30.5347 162.245 30.3572 161.905 30.372C160.692 30.372 159.494 30.372 158.281 30.372C158.003 30.3588 157.727 30.4078 157.471 30.5153C157.215 30.6228 156.986 30.7861 156.801 30.9933M168.769 10.6962C168.266 10.6962 168 10.2672 167.438 10.0897C167.106 10.0923 166.781 9.99432 166.506 9.80857C165.899 9.42393 165.707 9.43873 164.731 9.48311C164.731 9.48311 164.598 9.48311 164.583 9.48311C164.242 9.20203 163.858 9.36476 163.503 9.34996C163.155 9.25372 162.798 9.19422 162.438 9.17244C162.088 9.28299 161.724 9.34277 161.358 9.34996C161.043 9.31984 160.726 9.31984 160.411 9.34996L159.642 10.0009C159.554 10.3195 159.505 10.6472 159.494 10.9773C159.494 11.3323 159.301 11.643 159.346 11.9685C159.372 12.411 159.307 12.8543 159.153 13.2703C159.064 13.5928 159.024 13.927 159.035 14.2615C158.929 15.0164 158.875 15.7775 158.872 16.5398C158.887 16.5879 158.887 16.6395 158.872 16.6877C158.473 17.2203 158.636 17.9008 158.429 18.4777C158.357 18.7041 158.307 18.937 158.281 19.173C158.301 19.5381 158.256 19.9039 158.147 20.253C158.044 20.4601 158.147 20.756 157.985 21.0075C157.942 21.093 157.929 21.1904 157.947 21.2842C157.966 21.378 158.016 21.4629 158.088 21.5253C158.291 21.5776 158.503 21.5862 158.71 21.5505C158.916 21.5148 159.113 21.4356 159.287 21.3181C159.523 21.1998 159.642 20.9779 159.849 20.8595C160.751 20.3418 161.609 19.75 162.482 19.173C162.601 19.1027 162.715 19.0236 162.822 18.9363C163.04 18.7085 163.302 18.5273 163.592 18.4038C164.089 18.2714 164.521 17.9607 164.805 17.5309C165.012 17.1019 165.426 16.9392 165.737 16.6729L166.402 16.1107C167.277 15.3105 168.056 14.412 168.725 13.4331C169.008 13.1684 169.213 12.8312 169.317 12.4581C169.421 12.0851 169.421 11.6905 169.317 11.3175C169.317 11.3175 169.317 11.3175 169.317 11.2436L168.769 10.711" fill="#840029"/>
<path d="M276.675 53.3762C276.528 53.11 276.365 52.8733 276.025 52.9176C275.488 52.4855 275.083 51.9115 274.856 51.2607V47.7398C274.933 47.3587 274.987 46.9734 275.019 46.5859C274.945 46.221 274.991 45.8419 275.152 45.5059C275.24 45.3284 275.152 45.0621 275.152 44.8402C275.077 44.4692 275.077 44.0869 275.152 43.7159C275.314 43.3756 275.152 42.9762 275.418 42.6951C275.418 42.6951 275.418 42.5916 275.418 42.5472C275.418 41.7039 275.507 40.8755 275.581 40.0322C275.642 39.6186 275.726 39.2087 275.832 38.8043C275.746 38.6976 275.692 38.5687 275.676 38.4326C275.661 38.2964 275.684 38.1586 275.743 38.0351C276.02 37.2787 276.116 36.4682 276.025 35.6681C276.051 35.0065 276.197 34.3551 276.454 33.7449C276.454 33.5526 276.291 33.3454 276.335 33.1975C276.49 32.6243 276.535 32.027 276.468 31.437C276.48 31.1748 276.53 30.9157 276.616 30.6678C276.735 30.3508 276.795 30.015 276.794 29.6766C276.816 29.3191 276.861 28.9634 276.927 28.6114C276.905 28.2415 276.95 27.8707 277.06 27.5167C277.178 27.2948 277.06 26.9693 277.06 26.703C277.06 26.4367 276.971 26.0965 277.178 25.771C277.386 25.4456 277.075 25.1349 277.341 24.8538C277.371 24.7967 277.387 24.7333 277.387 24.6689C277.387 24.6045 277.371 24.541 277.341 24.484C277.09 23.7403 277.09 22.9346 277.341 22.1909C277.411 21.94 277.45 21.6818 277.46 21.4216C277.416 20.963 277.503 20.5014 277.711 20.0902C277.763 19.9266 277.763 19.7508 277.711 19.5872C277.663 18.7735 277.728 17.9571 277.903 17.161C277.992 16.5693 277.977 15.9775 278.022 15.4006C278.022 15.0603 278.14 14.7348 278.17 14.4094C278.178 14.0946 278.222 13.7818 278.303 13.4774C278.347 13.0792 278.347 12.6773 278.303 12.2791C278.303 11.7465 278.406 11.2139 278.466 10.6813C278.224 10.5105 277.933 10.4223 277.637 10.4298C277.108 10.4503 276.588 10.2942 276.158 9.98603C275.677 9.7619 275.253 9.43339 274.915 9.02444C274.726 8.70148 274.572 8.35928 274.456 8.00366C274.3 7.72513 274.237 7.40334 274.279 7.08645C274.368 6.7166 274.279 6.33196 274.412 5.93253C274.495 5.66177 274.674 5.43045 274.915 5.2816C275.255 5.07449 275.581 4.8082 275.921 4.55671L276.335 4.43836C277.343 4.09095 278.384 3.84804 279.442 3.71346C280.433 3.60991 281.424 3.71346 282.401 3.60991C282.697 3.60991 282.933 3.40279 283.244 3.44717C283.51 3.45859 283.777 3.4184 284.028 3.32882C284.189 3.26266 284.364 3.23749 284.537 3.25556C284.71 3.27364 284.875 3.3344 285.019 3.43238C285.145 3.50455 285.288 3.5404 285.433 3.53594H287.223C287.401 3.53594 287.608 3.41759 287.786 3.53594C288.466 3.71346 289.176 3.68387 289.857 3.84661C290.537 4.00934 291.336 4.15728 292.061 4.3496C292.199 4.36374 292.338 4.36374 292.475 4.3496C292.951 4.38723 293.417 4.50737 293.851 4.70465C294.107 4.81932 294.375 4.90372 294.65 4.95614C295.357 4.99587 296.046 5.19839 296.662 5.54789C297.087 5.74056 297.528 5.89886 297.979 6.02129C298.272 6.1011 298.555 6.21532 298.822 6.36155C299.085 6.5584 299.38 6.70852 299.695 6.80537C300.062 6.92061 300.394 7.12966 300.656 7.41191C300.917 7.67208 301.199 7.90964 301.499 8.12201C302.243 8.68809 302.914 9.344 303.497 10.0748C303.865 10.4585 304.211 10.8636 304.532 11.2879C304.667 11.4717 304.826 11.6359 305.006 11.7761C305.118 11.8677 305.209 11.9826 305.273 12.1129C305.337 12.2431 305.372 12.3856 305.375 12.5306C305.373 12.6506 305.397 12.7697 305.446 12.8796C305.495 12.9894 305.566 13.0874 305.657 13.1667C306.192 13.8029 306.477 14.6134 306.455 15.4449L307.032 16.5841V23.33C306.692 23.5667 307.032 23.981 306.766 24.2916C306.5 24.6023 306.899 24.8834 306.766 25.2089C306.766 25.2089 306.766 25.3716 306.766 25.4308C306.43 26.1777 306.167 26.9556 305.982 27.7534C305.86 28.0279 305.77 28.3159 305.716 28.6114C305.68 28.9435 305.58 29.2652 305.42 29.5582C304.946 30.5642 304.591 31.6294 304.044 32.6205C303.908 32.8121 303.79 33.015 303.689 33.2271C303.571 33.5526 303.497 33.9076 303.423 34.1591L302.136 35.8308C302.062 35.9227 302.006 36.0283 301.973 36.1415C301.77 36.7552 301.425 37.3126 300.967 37.7688C300.643 38.1535 300.351 38.5642 300.094 38.9967C299.854 39.4363 299.566 39.8481 299.236 40.2246C298.851 40.6684 298.422 41.0678 298.052 41.5412C297.683 42.0146 297.49 42.2661 297.224 42.6359C297.021 42.8665 296.781 43.0616 296.514 43.2129C296.425 43.2869 296.277 43.3165 296.233 43.4052C295.672 44.1706 295.016 44.8616 294.28 45.4616C293.874 45.7987 293.502 46.1753 293.171 46.5859C292.906 46.8658 292.602 47.105 292.268 47.296C292.146 47.3727 292.032 47.462 291.928 47.5623C291.62 47.9386 291.209 48.2164 290.744 48.3611C290.466 48.4458 290.219 48.6104 290.034 48.8345C289.645 49.2731 289.172 49.6301 288.644 49.8849C288.164 50.1673 287.671 50.4241 287.164 50.6542C286.528 50.9205 285.936 51.3051 285.271 51.5566C284.813 51.7831 284.378 52.0505 283.969 52.3555C283.565 52.4119 283.168 52.5111 282.785 52.6513C282.39 52.8261 281.96 52.9119 281.528 52.9028H280.773C280.611 53.1543 280.226 53.0508 280.093 53.3467L276.675 53.3762ZM282.253 45.861C282.61 45.6836 282.952 45.4757 283.273 45.2397C283.913 44.7934 284.58 44.3882 285.271 44.0266C285.404 43.9378 285.64 43.9526 285.714 43.849C286.047 43.5319 286.426 43.2675 286.839 43.065L288.096 42.2513C288.472 42.0036 288.799 41.6875 289.058 41.3193C289.428 40.7867 290.064 40.476 290.419 39.9287C290.457 39.8606 290.514 39.8044 290.582 39.7659C291.18 39.3909 291.686 38.8851 292.061 38.2866C292.505 37.6738 293 37.0997 293.54 36.5705C293.88 36.2265 294.164 35.8323 294.384 35.4018C294.586 35.0187 294.84 34.6653 295.138 34.3514C295.316 34.1739 295.464 33.9372 295.641 33.7301C296.115 33.1975 296.322 32.4578 296.899 31.9844C297.019 31.8743 297.101 31.7295 297.135 31.5702C297.284 31.0158 297.569 30.5073 297.964 30.0908C298.086 29.9768 298.169 29.8264 298.2 29.6618C298.267 29.3151 298.409 28.987 298.615 28.7002C298.615 28.5227 298.748 28.3451 298.807 28.1676C298.884 27.8277 298.993 27.4959 299.132 27.1764C299.619 26.2654 299.878 25.2503 299.887 24.2177C300.376 23.3672 300.631 22.4026 300.627 21.4216C300.701 20.9778 300.523 20.4896 300.775 20.0458C300.804 19.9914 300.82 19.9303 300.82 19.8683C300.82 19.8062 300.804 19.7452 300.775 19.6908C300.597 19.528 300.656 19.3209 300.656 19.1434C300.687 18.5639 300.596 17.9844 300.39 17.4421C300.326 17.165 300.242 16.893 300.138 16.6284C299.976 16.3474 299.769 16.0811 299.621 15.7852C299.237 15.0002 298.698 14.3008 298.038 13.7289C297.18 13.0985 296.269 12.5441 295.316 12.072C295.316 12.072 295.197 11.9388 295.153 11.9388C294.572 11.8332 294.012 11.6333 293.496 11.3471C293.098 11.2112 292.693 11.0976 292.283 11.0068L290.656 10.563C290.331 10.4563 289.991 10.4013 289.65 10.4003C289 10.5157 288.33 10.417 287.741 10.1192C287.693 10.1043 287.641 10.1043 287.593 10.1192C286.836 10.0086 286.064 10.1434 285.389 10.5038C285.346 10.6798 285.292 10.8528 285.226 11.0216C285.074 11.6455 285.024 12.2901 285.078 12.93C285.123 13.1746 285.123 13.4251 285.078 13.6697C284.926 14.017 284.831 14.3867 284.797 14.7644C284.83 15.1746 284.78 15.5873 284.649 15.9775C284.654 16.9957 284.6 18.0132 284.487 19.025C284.487 19.4984 284.398 19.9866 284.339 20.5044C284.028 20.6819 284.265 21.037 284.072 21.3033C284.01 21.4381 283.988 21.588 284.009 21.735C284.03 21.882 284.093 22.0198 284.191 22.1317C284.205 22.1749 284.205 22.2217 284.191 22.2649C283.91 22.5608 284.191 22.9898 283.998 23.2413C283.806 23.4928 283.998 23.8922 283.998 24.2029C284.012 24.2961 284.012 24.3908 283.998 24.484C283.747 25.2327 283.617 26.0168 283.614 26.8066C283.644 27.4724 283.584 28.1392 283.436 28.7889C283.3 29.2694 283.255 29.7712 283.303 30.2683C283.303 30.5938 283.303 30.9193 283.303 31.2447C283.302 31.5817 283.247 31.9163 283.14 32.2359C283.015 32.591 282.926 32.9577 282.874 33.3306C282.837 33.7292 282.837 34.1304 282.874 34.5289C282.874 34.6473 282.771 34.7508 282.771 34.8692C282.771 35.2538 282.386 35.5793 282.771 36.0231C282.829 36.1508 282.859 36.2895 282.859 36.4299C282.859 36.5704 282.829 36.7091 282.771 36.8368C282.518 37.5478 282.418 38.3036 282.475 39.0558C282.489 39.367 282.412 39.6756 282.253 39.9435C282.19 40.0601 282.164 40.1928 282.177 40.3246C282.19 40.4564 282.242 40.5812 282.327 40.6832C282.179 41.4081 282.031 42.059 281.927 42.7099C281.824 43.3608 282.031 43.6419 281.779 44.0857C281.779 44.0857 281.779 44.2781 281.779 44.352C281.867 44.5157 281.913 44.6987 281.913 44.8846C281.913 45.0705 281.867 45.2535 281.779 45.4172L282.253 45.861Z" fill="#840029"/>
<path d="M265.787 53.3759C265.684 53.0949 265.329 53.3759 265.196 53.0801C264.768 53.0172 264.364 52.849 264.017 52.5908C263.671 52.3326 263.395 51.9923 263.213 51.6007C263.213 51.364 263.11 51.0977 263.346 50.861C263.583 50.6243 263.346 50.6687 263.346 50.5651C263.346 50.2249 263.11 49.929 263.198 49.5739C263.215 49.2625 263.138 48.9532 262.976 48.6863C262.94 48.6127 262.921 48.5317 262.921 48.4496C262.921 48.3675 262.94 48.2865 262.976 48.2129C263.114 47.9584 263.194 47.6771 263.212 47.3884C263.23 47.0998 263.185 46.8107 263.08 46.5412C263.028 46.4144 263.007 46.2766 263.02 46.14C263.033 46.0034 263.079 45.8719 263.154 45.7571C263.193 45.6168 263.193 45.4684 263.154 45.3281C263.097 44.8366 263.097 44.3402 263.154 43.8487C263.317 43.1238 263.006 42.3694 263.154 41.7036C263.154 41.5409 263.05 41.3486 263.021 41.1711C263.007 40.7569 263.078 40.3443 263.228 39.958C263.331 39.6965 263.331 39.4057 263.228 39.1443C263.213 39.0264 263.213 38.9071 263.228 38.7892C263.275 38.3983 263.224 38.0018 263.08 37.6353C263.036 37.516 263.036 37.3848 263.08 37.2655C263.247 36.6692 263.297 36.0464 263.228 35.4311C263.228 34.7062 263.228 33.9517 263.228 33.2416C263.228 32.9605 263.139 32.6794 263.095 32.3687C262.809 32.3839 262.523 32.3839 262.237 32.3687C261.808 32.3687 261.394 32.2208 260.965 32.1616C260.757 32.1616 260.476 31.9989 260.328 32.0877C260.18 32.1764 259.707 32.1912 259.396 32.2208C259.009 32.2169 258.621 32.2566 258.242 32.3392C258.085 32.4193 257.907 32.4521 257.732 32.4337C257.556 32.4154 257.389 32.3466 257.251 32.2356C257.251 32.2356 257.103 32.2356 257.029 32.2356C256.309 32.4132 255.562 32.4583 254.825 32.3687C254.071 32.3687 253.346 32.3687 252.562 32.3687C251.778 32.3687 251.393 32.4575 250.816 32.5167C250.671 32.5588 250.535 32.6292 250.417 32.7238C250.175 33.2187 249.991 33.74 249.869 34.2771C249.773 34.8571 249.639 35.4303 249.47 35.9932C249.292 36.5406 249.233 37.1028 249.026 37.6353C248.898 37.9496 248.837 38.2873 248.848 38.6265C248.799 39.144 248.648 39.6466 248.405 40.1059L248.567 40.3278C248.366 40.9886 248.203 41.6604 248.079 42.3398C248.032 43.0835 247.781 43.7999 247.354 44.4109C247.365 45.3581 247.189 46.2981 246.836 47.1773C246.706 47.5081 246.631 47.8579 246.615 48.2129C246.605 48.5935 246.498 48.9652 246.304 49.2928C245.85 50.1071 245.248 50.8296 244.529 51.4232C244.324 51.6148 244.066 51.7388 243.789 51.7782C243.36 51.7782 242.916 51.7782 242.502 51.7782C242.135 51.8726 241.757 51.9174 241.378 51.9114C240.653 51.4823 239.75 51.2752 239.425 50.3284C239.425 49.9882 239.528 49.6627 239.617 49.3372C239.712 48.6609 239.861 47.9931 240.061 47.3401L240.372 46.7335C240.306 46.4563 240.306 46.1675 240.372 45.8903C240.505 45.5944 240.372 45.2393 240.638 45.0174C240.635 44.2252 240.791 43.4404 241.096 42.7096C240.963 42.0143 241.451 41.4225 241.422 40.7124C241.502 40.2304 241.636 39.759 241.821 39.307C241.959 38.9692 242.024 38.6065 242.014 38.2419C241.996 38.0751 242.038 37.9073 242.132 37.7685C242.31 37.369 242.354 36.8956 242.531 36.511C242.709 36.1264 242.531 35.8009 242.739 35.4459C242.912 35.1248 242.974 34.7556 242.916 34.3955C242.913 34.1762 242.958 33.9589 243.049 33.7594C243.197 33.3451 243.242 32.8865 243.375 32.4575C243.508 32.0285 243.626 31.7622 243.73 31.3924C243.833 31.0225 243.73 30.6527 244.011 30.2976C244.19 29.9656 244.287 29.5951 244.292 29.2177C244.385 28.8399 244.53 28.4766 244.721 28.1377V27.5016C244.73 27.336 244.776 27.1744 244.854 27.0282C245.067 26.6522 245.188 26.2317 245.209 25.8003C245.233 25.3807 245.349 24.9715 245.549 24.602C245.86 23.9363 245.993 23.2114 246.23 22.5457C246.467 21.8799 246.511 21.5545 246.689 21.0663C246.866 20.5781 246.925 19.9567 247.147 19.439C247.179 19.2809 247.228 19.127 247.295 18.9804C247.628 18.3862 247.876 17.749 248.035 17.0868C248.242 16.5246 248.434 15.9476 248.671 15.3855C248.778 15.129 248.871 14.8673 248.952 14.6014C249.075 14.0961 249.239 13.6015 249.44 13.122C249.724 12.5058 249.971 11.8736 250.18 11.2284C250.328 10.8298 250.543 10.4595 250.816 10.1337C251.042 9.80866 251.236 9.46173 251.393 9.0981C251.687 8.51048 252.018 7.94223 252.384 7.39681C252.606 7.10094 252.65 6.68671 252.843 6.37604C253.035 6.06537 253.316 5.82867 253.508 5.518C253.69 5.18778 253.903 4.87569 254.145 4.58599C254.408 4.36868 254.633 4.10863 254.81 3.81671C254.914 3.59481 255.254 3.52084 255.417 3.31372C256.245 2.44981 257.256 1.78251 258.376 1.36094L258.597 1.2278C259.041 1.23395 259.483 1.18425 259.914 1.07986C260.284 0.946718 260.669 1.19821 261.038 1.27218C261.452 1.34984 261.851 1.4895 262.222 1.68641C262.592 1.87873 262.976 2.05625 263.332 2.27816C263.55 2.43595 263.753 2.61429 263.938 2.81074C263.938 2.81074 263.938 2.92909 263.938 2.95867C264.646 3.58568 265.211 4.3576 265.595 5.22213C265.699 5.42924 265.787 5.63635 265.891 5.85826C265.936 5.96626 265.991 6.0702 266.054 6.16893C266.421 6.79133 266.695 7.4642 266.867 8.16609C266.919 8.24514 266.945 8.33812 266.941 8.43238C266.971 9.10363 267.148 9.76018 267.459 10.3556C267.709 10.8738 267.85 11.4377 267.873 12.0125C267.89 12.2729 267.935 12.5308 268.006 12.7818C268.006 13.0185 267.903 13.2847 268.154 13.4771C268.166 13.8851 268.216 14.2912 268.302 14.6902C268.293 15.3203 268.399 15.9468 268.613 16.5394C268.635 16.6617 268.635 16.7869 268.613 16.9092C268.569 17.7096 268.67 18.5112 268.909 19.2762C268.946 19.4018 268.946 19.5353 268.909 19.6609C268.876 20.0443 268.953 20.4291 269.131 20.7704C269.218 20.9493 269.244 21.1522 269.205 21.3474C269.087 21.7281 269.087 22.1354 269.205 22.5161C269.271 22.728 269.271 22.955 269.205 23.167C269.106 23.3855 269.055 23.6225 269.055 23.8623C269.055 24.1021 269.106 24.3391 269.205 24.5576C269.382 25.0902 269.693 25.6228 269.338 26.1997C269.323 26.2348 269.315 26.2725 269.315 26.3107C269.315 26.3488 269.323 26.3866 269.338 26.4216C269.408 26.6232 269.458 26.8314 269.486 27.043C269.486 27.2501 269.323 27.472 269.353 27.6643C269.441 28.1377 269.501 28.6111 269.545 29.1437C269.545 29.1437 269.545 29.2177 269.545 29.1437C269.545 29.3508 269.412 29.5431 269.456 29.6615C269.625 30.2575 269.67 30.8818 269.589 31.4959C269.506 32.0988 269.467 32.7069 269.471 33.3155C269.589 34.6781 269.633 36.0461 269.604 37.4134C269.604 37.7241 269.722 38.0348 269.752 38.3306C269.782 38.6265 269.752 38.9816 269.9 39.2627C269.971 39.9697 269.901 40.6839 269.693 41.3634C269.626 41.4852 269.6 41.6252 269.619 41.7628C269.759 42.1955 269.759 42.6615 269.619 43.0942C269.515 43.557 269.515 44.0369 269.619 44.4997C269.721 44.9326 269.721 45.3834 269.619 45.8163C269.494 46.1705 269.494 46.5569 269.619 46.911C269.728 47.1867 269.728 47.4934 269.619 47.7691C269.545 48.0001 269.545 48.2482 269.619 48.4792C269.704 48.7462 269.773 49.0179 269.826 49.2928C269.845 49.6009 269.794 49.9092 269.678 50.1953C269.58 50.3603 269.534 50.551 269.545 50.7426C269.55 51.3209 269.439 51.8943 269.219 52.4291C269.066 52.7519 268.867 53.0509 268.628 53.3168L265.787 53.3759ZM262.4 25.4157C262.529 25.2866 262.629 25.1314 262.692 24.9603C262.756 24.7893 262.782 24.6066 262.769 24.4245C262.769 24.0694 262.769 23.7144 262.769 23.3593C262.769 23.0043 262.666 22.6492 262.636 22.2942C262.636 21.5841 262.518 20.8148 262.473 20.1639C262.482 20.1198 262.482 20.0747 262.473 20.0307C262.274 19.5116 262.173 18.9596 262.178 18.4034C262.208 18.287 262.208 18.1648 262.178 18.0483C262.01 17.7013 261.914 17.3238 261.897 16.9388C261.874 16.5323 261.83 16.1274 261.763 15.7257C261.763 15.4446 261.763 15.1636 261.763 14.8973C261.644 14.6678 261.54 14.4306 261.453 14.1872C261.275 13.7877 261.453 13.3291 261.29 12.9741C261.075 12.3563 260.975 11.7046 260.994 11.0509C261.007 10.7884 260.934 10.5288 260.787 10.3112C260.373 9.89697 260.432 9.34959 260.24 8.92057L259.855 8.44717C259.618 8.55504 259.414 8.72344 259.263 8.93537C258.819 9.66026 258.242 10.2964 257.784 11.0509C257.621 11.3616 257.296 11.5687 257.177 11.9385C257.071 12.5724 256.778 13.1599 256.334 13.625C256.326 13.669 256.326 13.7141 256.334 13.7581L255.535 15.992C255.489 16.2195 255.399 16.4357 255.269 16.6281C254.795 17.1459 254.929 17.9004 254.514 18.4478C254.446 19.1527 254.213 19.8317 253.834 20.4301C253.834 20.5041 253.834 20.6077 253.76 20.6964C253.639 21.2455 253.451 21.7773 253.198 22.2794C253.182 22.3116 253.174 22.347 253.174 22.3829C253.174 22.4188 253.182 22.4542 253.198 22.4865C253.203 23.0384 253.044 23.5794 252.739 24.0398C252.602 24.2383 252.508 24.4631 252.462 24.6999C252.416 24.9367 252.42 25.1804 252.473 25.4157C252.647 25.5422 252.83 25.6559 253.02 25.7559C253.168 25.8299 253.405 25.9039 253.508 25.8447C253.822 25.699 254.173 25.6525 254.514 25.7115C255.012 25.6536 255.517 25.7041 255.994 25.8595C256.275 25.9778 256.541 25.7263 256.837 25.7115C257.5 25.7178 258.163 25.6733 258.819 25.5784C259.443 25.4969 260.075 25.4969 260.698 25.5784C261.32 25.5784 261.897 25.3417 262.533 25.4305" fill="#840029"/>
<path d="M220.932 32.9754C220.385 33.1233 220.355 33.5524 220.296 33.8334C220.08 34.5789 219.965 35.3503 219.956 36.1265C219.949 36.4365 219.904 36.7445 219.823 37.0437C219.823 37.3248 219.941 37.6502 219.675 37.9017C219.675 37.9017 219.675 38.0497 219.675 38.1236C219.779 38.8929 219.483 39.603 219.512 40.4019C219.511 40.4955 219.485 40.5872 219.438 40.6682C219.338 40.9707 219.338 41.2976 219.438 41.6002C219.509 41.8568 219.509 42.1277 219.438 42.3843C219.29 42.6506 219.438 42.9612 219.29 43.1535C219.142 43.3459 219.202 43.6713 219.157 43.9228C219.142 44.1354 219.082 44.3423 218.98 44.5294C218.654 44.9584 218.98 45.2543 219.142 45.5649C219.246 45.7106 219.371 45.8402 219.512 45.9496C219.986 45.9496 220.474 46.0827 220.992 46.1123C221.235 46.1679 221.49 46.1254 221.702 45.9939C221.801 45.9476 221.91 45.9236 222.02 45.9236C222.13 45.9236 222.238 45.9476 222.338 45.9939C222.471 46.0593 222.618 46.0933 222.767 46.0933C222.916 46.0933 223.062 46.0593 223.196 45.9939C223.421 45.9017 223.664 45.8661 223.906 45.8904H226.095C226.65 45.8859 227.199 45.791 227.723 45.6093C227.87 45.587 228.02 45.587 228.167 45.6093C228.625 45.6093 229.069 45.6093 229.528 45.6093C229.986 45.6093 230.637 45.491 231.199 45.4614C231.75 45.5209 232.306 45.5209 232.856 45.4614C233.565 45.3413 234.284 45.3016 235.001 45.343C235.472 45.2918 235.946 45.4033 236.344 45.659C236.743 45.9147 237.041 46.2992 237.191 46.7484C237.227 46.8172 237.278 46.8777 237.339 46.926C237.373 47.3563 237.27 47.7865 237.043 48.1538C236.836 48.5385 236.88 49.0415 236.584 49.3965C236.584 49.4705 236.584 49.6036 236.436 49.6332C236.024 49.9013 235.651 50.2249 235.327 50.5948C235.189 50.7296 235.029 50.8397 234.853 50.9203L232.901 51.6748C232.803 51.697 232.702 51.697 232.605 51.6748C232.22 51.586 231.895 51.8375 231.525 51.8227C231.169 51.8355 230.821 51.9264 230.504 52.089C230.223 52.2073 229.868 52.089 229.602 52.2813C228.84 52.2859 228.079 52.3353 227.323 52.4292C227.116 52.4292 226.894 52.4293 226.687 52.3109C226.61 52.2707 226.523 52.2497 226.436 52.2497C226.348 52.2497 226.262 52.2707 226.184 52.3109C225.735 52.4501 225.261 52.4955 224.794 52.444C224.439 52.444 224.084 52.5624 223.728 52.592C223.355 52.5546 222.978 52.5546 222.604 52.592C222.257 52.7106 221.889 52.751 221.524 52.7103C220.544 52.5722 219.554 52.5227 218.565 52.5624C218.432 52.5624 218.314 52.444 218.166 52.4145C217.438 52.3143 216.717 52.171 216.006 51.9854C215.819 51.9167 215.618 51.897 215.421 51.9281C215.224 51.9591 215.039 52.04 214.882 52.163C213.824 51.7182 212.908 50.9916 212.234 50.0622C212.281 49.5223 212.178 48.9798 211.938 48.4941C212.013 48.3939 212.064 48.2773 212.086 48.1538C212.068 47.5388 212.118 46.9237 212.234 46.3194C212.262 45.9324 212.311 45.5472 212.382 45.1655C212.485 44.84 212.293 44.4406 212.544 44.1003C212.567 44.0281 212.567 43.9507 212.544 43.8784C212.426 42.976 212.781 42.118 212.692 41.2156C212.692 40.9345 212.944 40.683 212.84 40.3723C213.181 39.8249 212.84 39.1592 213.151 38.6118C213.151 38.2568 213.284 37.8722 213.018 37.5319C213 37.4977 212.99 37.4596 212.99 37.4209C212.99 37.3823 213 37.3442 213.018 37.31C213.269 36.9993 213.018 36.5555 213.314 36.23C213.4 36.0863 213.451 35.924 213.462 35.7566C213.462 35.5643 213.462 35.3572 213.462 35.1649C213.462 34.6915 213.565 34.2477 213.61 33.7891C213.319 33.4037 212.907 33.1275 212.441 33.005C212.104 32.9154 211.795 32.7463 211.537 32.5121C211.28 32.2778 211.082 31.9852 210.961 31.6588C210.961 31.496 210.784 31.3333 210.68 31.1262C210.668 30.8069 210.624 30.4896 210.547 30.1794C210.414 29.8391 210.651 29.4397 210.784 29.0846C210.917 28.7296 211.124 28.4189 211.272 28.0787C211.382 27.7987 211.55 27.5449 211.764 27.3335C211.978 27.122 212.234 26.9576 212.515 26.8508C212.589 26.8508 212.633 26.7768 212.707 26.7324C213.195 26.6141 213.743 26.8952 214.186 26.5253C214.374 26.2857 214.469 25.9861 214.453 25.6821C214.475 25.3246 214.52 24.9689 214.586 24.6169C214.586 24.2619 214.586 23.892 214.734 23.537C214.808 23.4038 214.734 23.1819 214.734 23.0192C214.668 22.5104 214.761 21.9936 215 21.5398C215.024 21.4476 215.024 21.3509 215 21.2587C214.944 20.5984 214.999 19.9333 215.163 19.2911C215.271 18.5863 215.32 17.8738 215.311 17.1608C215.311 16.4359 215.503 15.6815 215.607 15.0157C215.607 15.0157 215.725 14.8678 215.769 14.8086C215.814 14.7494 215.518 14.424 215.666 14.1725C215.872 13.7609 215.954 13.2984 215.903 12.841C215.815 12.0883 215.917 11.3255 216.198 10.622C216.221 10.4997 216.221 10.3744 216.198 10.2521C216.13 9.7449 216.218 9.22879 216.45 8.77275C216.481 8.5817 216.481 8.38685 216.45 8.19579C216.463 7.653 216.662 7.13105 217.012 6.71641C217.485 6.13408 218.162 5.75333 218.906 5.65126C219.053 5.62315 219.197 5.57849 219.335 5.51811C219.466 5.59335 219.613 5.6388 219.764 5.65126C220.372 5.75462 220.994 5.74459 221.598 5.62167C221.909 5.48853 222.323 5.62167 222.663 5.45894C222.663 5.45894 222.841 5.45894 222.944 5.45894C223.048 5.45894 223.122 5.5477 223.211 5.45894C223.299 5.37018 223.669 5.35538 223.906 5.311C224.143 5.26662 224.35 5.311 224.572 5.311C225.104 5.1589 225.667 5.1589 226.199 5.311C226.577 5.44291 226.989 5.44291 227.368 5.311C227.368 5.311 227.501 5.311 227.56 5.311H227.797C229.483 5.42935 231.17 5.10389 232.871 5.14827C233.18 5.13299 233.487 5.08841 233.788 5.01512C234.099 5.01512 234.424 5.10389 234.72 4.86719C234.72 4.86719 234.957 4.86719 235.09 4.86719C236.481 4.86719 237.857 4.86719 239.247 4.86719C239.489 4.85929 239.729 4.91542 239.942 5.02992C240.361 5.24473 240.761 5.49206 241.141 5.76961C241.536 6.12131 241.84 6.56272 242.028 7.05667C242.221 7.42651 242.028 7.78156 242.147 8.04785C242.265 8.31414 241.91 8.58043 241.792 8.81713L241.91 8.90589C241.741 9.01324 241.587 9.14258 241.451 9.29053C240.822 9.99475 240.007 10.5074 239.099 10.7699C238.618 10.9333 238.123 11.0522 237.62 11.125C236.87 11.3173 236.101 11.4216 235.327 11.4356C235.12 11.4356 234.913 11.5836 234.705 11.5688C234.498 11.554 234.114 11.7019 233.862 11.4356C233.862 11.4356 233.655 11.4356 233.566 11.4356C232.794 11.603 232.001 11.6528 231.214 11.5836C230.485 11.6991 229.748 11.7486 229.01 11.7315C228.389 12.0422 227.738 11.8203 227.101 11.8942C226.717 11.8942 226.317 11.7907 225.948 12.0274C225.883 12.0599 225.812 12.0768 225.74 12.0768C225.668 12.0768 225.598 12.0599 225.533 12.0274C225.384 11.9336 225.203 11.9018 225.03 11.9386C224.354 12.0355 223.687 12.1838 223.033 12.3824C222.619 12.6043 222.56 13.0334 222.471 13.418C222.449 13.6196 222.449 13.823 222.471 14.0245C222.463 14.3345 222.418 14.6424 222.338 14.9418C222.246 15.3419 222.177 15.7469 222.131 16.1549C222.055 16.7386 222.015 17.3266 222.012 17.9153C221.979 18.0728 221.929 18.2265 221.864 18.3739C221.712 18.9475 221.662 19.5434 221.717 20.1344C221.741 20.4476 221.69 20.7621 221.569 21.0516C221.417 21.3318 221.36 21.6535 221.406 21.9688C221.445 22.0839 221.445 22.2088 221.406 22.3239C221.338 22.3987 221.293 22.4918 221.277 22.5917C221.262 22.6916 221.275 22.7939 221.317 22.886C221.472 23.2857 221.472 23.729 221.317 24.1287C221.214 24.4394 221.317 24.8388 221.125 25.1051C220.932 25.3714 221.125 25.7412 220.992 26.0667L221.583 26.5993H225.282C225.516 26.5706 225.749 26.5261 225.977 26.4661C226.228 26.4513 226.48 26.4513 226.732 26.4661C226.923 26.4842 227.111 26.5239 227.294 26.5845C227.632 26.7023 227.986 26.7672 228.344 26.7768C229.957 26.7768 231.584 26.7768 233.197 26.7768C233.486 26.7462 233.778 26.7974 234.04 26.9247C234.25 27.0329 234.484 27.0839 234.72 27.0727C234.987 27.0727 235.194 27.2206 235.416 27.2206C235.693 27.2546 235.958 27.3578 236.185 27.5206C236.413 27.6835 236.596 27.9008 236.717 28.1526L237.013 28.5373C237.066 29.3605 236.831 30.1765 236.348 30.8451C236.284 31.0023 236.194 31.1474 236.081 31.2741C235.756 31.6292 235.564 32.147 234.942 32.1765C234.43 32.1415 233.918 32.2491 233.463 32.4872C233.395 32.5087 233.323 32.5087 233.256 32.4872C232.605 32.3984 231.998 32.6943 231.347 32.6499C231.255 32.6608 231.165 32.6857 231.081 32.7239C230.31 33.0201 229.456 33.0201 228.684 32.7239C228.55 32.6802 228.411 32.6505 228.27 32.6351C228.033 32.6351 227.812 32.7387 227.575 32.7831C227.338 32.8275 227.131 32.6795 226.954 32.9162C226.421 32.8275 225.888 33.3453 225.356 32.9162C224.587 32.9162 223.876 32.9162 223.078 32.9162C222.866 32.936 222.663 33.0071 222.486 33.1233C222.356 33.192 222.211 33.2279 222.064 33.2279C221.917 33.2279 221.772 33.192 221.643 33.1233C221.332 32.9458 221.051 33.1233 220.858 33.0198" fill="#840029"/>
<path d="M209.763 13.004C209.801 12.8635 209.801 12.7155 209.763 12.575C209.59 12.2053 209.509 11.7993 209.527 11.3915C209.549 11.2942 209.549 11.1929 209.527 11.0956C209.166 10.1746 208.705 9.29643 208.151 8.47709C207.902 8.21519 207.67 7.93853 207.455 7.64864C207.314 7.35689 207.107 7.10204 206.85 6.90431C206.593 6.70658 206.294 6.57141 205.976 6.50952C205.928 6.49334 205.887 6.46223 205.858 6.42076C205.322 5.99763 204.716 5.67213 204.068 5.45916C203.343 5.08931 202.588 4.77864 201.834 4.45318C201.523 4.34962 201.198 4.45318 200.857 4.24607C200.592 4.14525 200.312 4.09022 200.029 4.08334L198.194 3.9354H198.002C197.331 3.76667 196.649 3.64311 195.961 3.56555C195.872 3.56555 195.724 3.56555 195.68 3.56555C195.635 3.56555 195.162 3.6987 194.895 3.6987H192.898C192.736 3.67827 192.572 3.67827 192.41 3.6987C192.228 3.78652 192.028 3.83213 191.826 3.83213C191.623 3.83213 191.424 3.78652 191.241 3.6987C190.654 3.98085 190.014 4.13707 189.363 4.1573C189.123 4.11406 188.877 4.11406 188.638 4.1573C188.035 4.38152 187.401 4.51126 186.759 4.54194C186.641 4.52769 186.522 4.52769 186.404 4.54194C185.566 4.81161 184.869 5.40202 184.466 6.18405C184.091 6.95673 183.874 7.79684 183.83 8.65462C183.83 8.99488 183.83 9.36472 183.697 9.73457C183.563 10.1044 183.697 10.4299 183.549 10.7997C183.511 11.1621 183.542 11.5282 183.637 11.8797C183.454 12.1377 183.323 12.4292 183.253 12.7377C183.253 13.1815 183.06 13.5957 183.075 14.0248C183.09 14.4538 183.075 14.942 183.075 15.3858C183.106 15.7722 183.034 16.1599 182.868 16.5101C182.779 16.683 182.748 16.8802 182.779 17.0723C182.883 17.4299 182.883 17.8095 182.779 18.167C182.821 18.868 182.71 19.5695 182.454 20.2234C182.454 20.9926 182.202 21.7027 182.291 22.5164C182.357 22.8283 182.31 23.1533 182.158 23.4336C182.015 23.7431 181.959 24.0858 181.995 24.4248C182.037 24.6398 182.037 24.8608 181.995 25.0757C181.869 25.4332 181.794 25.8068 181.773 26.1853C181.771 26.8477 181.731 27.5096 181.655 28.1676C181.561 28.8739 181.512 29.5854 181.507 30.2979C181.347 31.1212 181.282 31.9601 181.315 32.7981C181.315 32.7981 181.315 32.9312 181.315 32.946C181.315 32.9608 181.211 33.4194 181.167 33.6413C181.122 33.8632 181.063 34.1147 181.019 34.3367C180.957 34.5904 180.907 34.8472 180.871 35.1059C180.871 35.5941 180.974 36.0971 180.708 36.5853C180.696 37.3623 180.602 38.1359 180.427 38.8931C180.328 39.7725 180.274 40.6564 180.264 41.5412C180.308 41.8804 180.252 42.2251 180.102 42.5324C179.972 42.8198 179.921 43.1362 179.954 43.4496C179.954 44.3373 179.85 45.2249 179.806 46.1125C179.806 46.1125 179.806 46.2309 179.806 46.2605C179.466 46.6155 179.806 47.0593 179.599 47.4588C179.479 47.8667 179.449 48.2956 179.51 48.7162C179.513 49.1913 179.657 49.6547 179.924 50.0477C180.149 50.3197 180.402 50.5676 180.679 50.7874C180.849 50.9556 181.058 51.0799 181.288 51.1495C181.517 51.219 181.76 51.2318 181.995 51.1868C182.244 51.0889 182.513 51.0534 182.779 51.0832C183.118 51.0932 183.456 51.0327 183.771 50.9057C184.058 50.7433 184.375 50.6378 184.703 50.595C184.865 50.595 185.028 50.4175 185.176 50.2992C185.324 50.1808 185.546 49.9589 185.738 49.7962H185.649L186.004 48.9973C186.004 48.9973 186.004 48.7754 186.004 48.6718C186.315 48.0357 186.004 47.3256 186.271 46.6599C186.419 46.2457 186.271 45.7575 186.433 45.2989C186.532 44.9772 186.586 44.6439 186.596 44.3077C186.596 43.9526 186.596 43.5976 186.596 43.2425C186.56 42.8794 186.615 42.513 186.759 42.1774C186.867 41.9623 186.913 41.7217 186.892 41.4821C186.892 41.3637 186.892 41.1862 186.892 41.1122C187.143 40.8015 186.892 40.4169 187.055 40.121C187.164 39.7719 187.209 39.4061 187.188 39.0411V38.4641C187.169 38.2289 187.226 37.9939 187.351 37.7939C187.477 37.594 187.663 37.4399 187.883 37.3546C188.302 37.9615 188.767 38.5352 189.274 39.0707C189.866 39.6328 190.235 40.3577 190.753 40.9643C191.271 41.5708 191.463 41.9407 191.892 42.3697C192.025 42.488 192.203 42.5916 192.262 42.7395C192.469 43.2277 192.928 43.4792 193.239 43.8491C193.342 43.9674 193.579 43.997 193.638 44.1301C194.071 44.7699 194.606 45.3346 195.221 45.8018C195.736 46.138 196.195 46.5522 196.582 47.0297C196.762 47.2958 197.013 47.5059 197.307 47.6363C197.787 47.8001 198.188 48.1379 198.431 48.5831C198.552 48.7696 198.714 48.9264 198.905 49.0417C199.309 49.3351 199.729 49.6067 200.162 49.8553C200.576 50.0773 200.872 50.4767 201.36 50.6098C201.78 50.7086 202.161 50.93 202.455 51.246C202.596 51.3773 202.78 51.4512 202.973 51.4531C203.89 51.3495 204.778 51.675 205.591 51.6158C205.771 51.5245 205.944 51.4207 206.109 51.3051C206.375 51.1128 206.657 50.9057 206.908 50.6838C207.09 50.5336 207.219 50.3285 207.275 50.0992C207.331 49.87 207.311 49.6288 207.219 49.4115C207.115 49.1452 207.219 48.879 207.115 48.6866C207.012 48.4943 206.923 48.3612 206.819 48.228C206.21 47.4613 205.652 46.6558 205.148 45.8166C205.109 45.7242 205.041 45.6464 204.955 45.5947C204.349 45.3876 204.082 44.7663 203.55 44.4408C203.047 44.0616 202.59 43.6247 202.189 43.139C202.069 42.9746 201.924 42.8299 201.76 42.7099C201.138 42.3253 200.665 41.7483 200.073 41.3193C200.073 41.3193 199.866 41.1714 199.866 41.0974C199.866 40.7572 199.467 40.698 199.393 40.3873C199.319 40.0766 198.964 40.0619 198.712 39.9435C198.605 39.8706 198.51 39.7806 198.431 39.6772C198.06 39.3209 197.719 38.935 197.41 38.5233C197.234 38.2874 197.007 38.0951 196.745 37.9611C196.493 37.8132 196.345 37.4877 196.153 37.2362C195.961 36.9847 195.62 36.4818 195.31 36.1563C194.776 35.6335 194.335 35.023 194.008 34.3514C194.008 34.2035 193.756 34.0999 193.638 33.9668C193.354 33.7363 193.143 33.4278 193.031 33.0792C193.031 32.8869 192.78 32.7389 192.676 32.5466C192.631 32.443 192.601 32.3333 192.588 32.2211C192.848 31.8983 193.183 31.6443 193.564 31.4814C194.052 31.307 194.507 31.052 194.91 30.727C195.369 30.3719 195.931 30.224 196.39 29.8393C196.523 29.7422 196.683 29.6903 196.848 29.6914C197.06 29.6829 197.263 29.6049 197.425 29.4695C197.724 29.2541 198.011 29.0219 198.283 28.7742L198.683 28.4783L201.523 26.7474C201.839 26.5815 202.136 26.3831 202.411 26.1557C203.017 25.5195 203.89 25.1349 204.423 24.4544C205.059 24.2029 205.222 23.478 205.754 23.123C206.05 22.546 206.469 22.0411 206.982 21.6436C207.305 21.3512 207.563 20.9931 207.736 20.5932C207.914 20.179 208.151 19.7943 208.343 19.3949C208.567 19.0159 208.751 18.6142 208.89 18.1966C209.017 17.7712 209.175 17.3559 209.364 16.9539C209.553 16.441 209.662 15.9022 209.689 15.3562C209.689 14.6017 209.689 13.8768 209.689 13.0928M203.032 15.2379C202.884 15.5929 202.677 15.8888 202.559 16.2586C202.411 16.6771 202.202 17.071 201.937 17.4273C201.542 18.0167 201.091 18.5666 200.591 19.0695C199.822 19.7796 198.979 20.4157 198.209 21.1554C197.933 21.4137 197.619 21.6282 197.277 21.7915C196.722 22.1238 196.197 22.5051 195.709 22.9306C195.368 23.1811 194.995 23.385 194.6 23.5372C194.133 23.7089 193.695 23.9481 193.298 24.2473C192.727 24.7434 192.063 25.1206 191.345 25.3568C191.062 25.4729 190.794 25.6218 190.546 25.8006L189.274 26.3924C189.067 26.3924 188.741 26.5255 188.505 26.1261C188.527 25.4423 188.591 24.7605 188.697 24.0846C188.718 23.8001 188.821 23.5279 188.993 23.3005C189.185 23.0786 189.126 22.8715 188.993 22.62C188.907 22.3656 188.907 22.0902 188.993 21.8359C189.131 21.4768 189.152 21.0832 189.052 20.7116C189.016 20.2294 189.103 19.746 189.303 19.3062C189.326 19.1889 189.326 19.0684 189.303 18.9511C189.267 18.5614 189.312 18.1684 189.437 17.7972C189.525 17.6492 189.437 17.4125 189.437 17.2202C189.376 16.9886 189.351 16.7492 189.363 16.5101C189.466 16.0367 189.644 15.5781 189.806 15.0307L189.658 14.8236C189.94 14.1431 189.658 13.3443 190.132 12.6489C189.673 12.1016 190.132 11.5098 190.132 10.9181C190.321 10.6847 190.563 10.5008 190.839 10.3822C191.115 10.2636 191.416 10.214 191.715 10.2376C193.579 10.2376 195.443 10.2376 197.307 10.2376C197.643 10.2531 197.973 10.3283 198.283 10.4595C198.706 10.6287 199.16 10.7044 199.615 10.6814C199.833 10.6572 200.052 10.7095 200.236 10.8293C200.828 11.1992 201.464 11.5246 202.056 11.8945C202.333 12.063 202.574 12.2842 202.766 12.5454C202.916 12.7341 202.995 12.97 202.988 13.2111C202.988 13.8324 202.988 14.4686 202.988 15.0899" fill="#840029"/>
</svg>
