<svg width="168" height="35" viewBox="0 0 168 35" fill="none" xmlns="http://www.w3.org/2000/svg">
<path d="M57.4844 25.6323C57.3926 25.6323 49.0066 25.9416 49.0066 17.5943C49.0066 11.8377 53.6999 9.55148 57.5859 9.55148C59.3121 9.54158 61.0139 9.95838 62.5402 10.7647L61.8828 14.2012C60.6305 13.5701 59.2537 13.2251 57.8518 13.191C56.0489 13.191 53.3083 14.0659 53.3083 17.5943C53.3083 21.1227 56.0731 21.9927 57.8711 21.9927C59.3974 21.9266 60.8871 21.5045 62.2212 20.7602L62.6562 24.3611C61.0901 25.3181 58.8281 25.6323 57.4844 25.6323ZM66.3634 25.4099V10.6632C66.3634 10.4286 66.4566 10.2036 66.6225 10.0377C66.7883 9.87178 67.0133 9.77858 67.2479 9.77858H72.0813C74.0147 9.77858 75.5131 10.2475 76.5764 11.1852C77.1201 11.6773 77.5472 12.2846 77.8264 12.9627C78.1057 13.6409 78.2302 14.3728 78.1908 15.1051C78.1713 15.9388 77.949 16.7552 77.543 17.4837C77.1371 18.2121 76.5598 18.8308 75.8611 19.286L79.6891 25.4099H75.1409L72.41 20.388H70.3123V25.4099H66.3634ZM71.5013 12.7995H70.3123V17.3526H71.4723C73.2671 17.3526 74.1645 16.5841 74.1645 15.0471C74.1645 13.51 73.2768 12.7609 71.5013 12.7995ZM89.385 25.7386C84.3389 25.7386 80.912 22.2634 80.912 17.5943C80.912 11.8667 85.8082 9.44998 89.385 9.44998C94.4117 9.44998 97.858 12.9059 97.858 17.5943C97.8725 23.2735 93.0342 25.7386 89.3995 25.7386H89.385ZM89.385 22.099C92.0482 22.099 93.561 19.9627 93.561 17.5943C93.561 15.2259 92.053 13.0895 89.385 13.0895C87.1809 13.0895 85.2089 14.7281 85.2089 17.5943C85.2089 20.4605 87.1664 22.099 89.3995 22.099H89.385ZM103.542 24.7719L99.105 9.78828H103.484L105.79 20.185L108.69 9.98168H112.228L115.128 20.0013L117.39 9.77858H121.74L117.303 24.7622C117.249 24.946 117.137 25.1074 116.984 25.2224C116.83 25.3373 116.644 25.3997 116.453 25.4002H113.349L110.411 15.3709L107.511 25.4099H104.388C104.2 25.4053 104.018 25.341 103.869 25.2264C103.719 25.1117 103.61 24.9526 103.557 24.7719H103.542ZM124.466 24.5206V9.77858H128.642V22.0555H135.274V25.4099H125.365C125.13 25.4086 124.905 25.3144 124.74 25.1477C124.574 24.9811 124.481 24.7556 124.481 24.5206H124.466ZM138.338 25.4099V10.6632C138.338 10.4286 138.431 10.2036 138.597 10.0377C138.763 9.87178 138.988 9.77858 139.223 9.77858H149.218V12.9252H142.157V15.9268H148.387V19.0733H142.157V22.2634H149.518V25.4099H138.338ZM157.295 25.4099V19.054L151.674 9.77858H155.719C155.882 9.77868 156.042 9.82388 156.181 9.90918C156.32 9.99448 156.433 10.1166 156.507 10.262L159.441 15.9896L162.341 10.262C162.415 10.1166 162.528 9.99448 162.667 9.90918C162.806 9.82388 162.966 9.77868 163.129 9.77858H167.049L161.394 19.054V25.4099H157.295Z" fill="black"/>
<path d="M32.197 22.1739L25.5172 18.3072C25.1836 18.1173 24.8063 18.0175 24.4225 18.0175C24.0386 18.0175 23.6613 18.1173 23.3277 18.3072L14.381 23.4838C14.0805 23.6578 13.7395 23.7497 13.3922 23.75C13.0449 23.7504 12.7036 23.6592 12.4028 23.4858C12.1019 23.3123 11.8521 23.0626 11.6784 22.7619C11.5047 22.4612 11.4132 22.12 11.4133 21.7727V13.0436C11.4132 12.6963 11.5047 12.3551 11.6784 12.0544C11.8521 11.7537 12.1019 11.504 12.4028 11.3306C12.7036 11.1571 13.0449 11.066 13.3922 11.0663C13.7395 11.0667 14.0805 11.1585 14.381 11.3326C12.728 10.3659 7.49339 8.04577 3.88283 9.02697C2.99351 9.26157 2.17637 9.71327 1.50478 10.3417C0.131224 13.4349 -0.310463 16.8615 0.233819 20.2019C0.778102 23.5422 2.28472 26.6514 4.56917 29.1485C12.989 38.332 27.8614 35.867 33.0864 25.0111C33.3236 24.5133 33.3638 23.9441 33.1988 23.4179C33.0339 22.8916 32.676 22.4473 32.197 22.1739Z" fill="url(#paint0_linear_3957_2)"/>
<path d="M3.88517 25.7921C7.49574 26.7587 12.7303 24.4484 14.3834 23.4865C14.0829 23.6606 13.7418 23.7524 13.3945 23.7528C13.0472 23.7531 12.706 23.662 12.4051 23.4885C12.1043 23.3151 11.8544 23.0654 11.6807 22.7647C11.507 22.464 11.4156 22.1228 11.4157 21.7755V13.0463C11.4156 12.6991 11.507 12.3579 11.6807 12.0572C11.8544 11.7564 12.1043 11.5068 12.4051 11.3333C12.706 11.1599 13.0472 11.0687 13.3945 11.0691C13.7418 11.0694 14.0829 11.1612 14.3834 11.3353L23.33 16.5022C23.6637 16.6921 24.0409 16.7919 24.4248 16.7919C24.8087 16.7919 25.1859 16.6921 25.5196 16.5022L32.1994 12.6355C32.6767 12.3606 33.0325 11.9155 33.1956 11.3894C33.3587 10.8633 33.3171 10.295 33.079 9.79827C27.859 -1.07211 12.9865 -3.54199 4.56185 5.66084C2.2774 8.15797 0.770778 11.2672 0.226495 14.6075C-0.317787 17.9479 0.123899 21.3745 1.49746 24.4677C2.17075 25.101 2.99146 25.5562 3.88517 25.7921Z" fill="url(#paint1_linear_3957_2)"/>
<path d="M14.3811 23.4838C14.0806 23.6578 13.7396 23.7497 13.3923 23.75C13.045 23.7504 12.7038 23.6592 12.4029 23.4858C12.102 23.3123 11.8522 23.0626 11.6785 22.7619C11.5048 22.4612 11.4134 22.12 11.4134 21.7727V13.0436C11.4134 12.6963 11.5048 12.3551 11.6785 12.0544C11.8522 11.7537 12.102 11.504 12.4029 11.3306C12.7038 11.1571 13.045 11.066 13.3923 11.0663C13.7396 11.0667 14.0806 11.1585 14.3811 11.3326C12.7281 10.3659 7.49351 8.04577 3.88295 9.02697C2.99364 9.26157 2.1765 9.71327 1.50491 10.3417C0.517721 12.5667 0.00769043 14.9739 0.00769043 17.4082C0.00769043 19.8424 0.517721 22.2496 1.50491 24.4746C2.1765 25.103 2.99364 25.5547 3.88295 25.7893C7.49351 26.7705 12.7281 24.4456 14.3811 23.4838Z" fill="url(#paint2_linear_3957_2)"/>
<defs>
<linearGradient id="paint0_linear_3957_2" x1="1.87696" y1="24.5713" x2="32.6997" y2="16.311" gradientUnits="userSpaceOnUse">
<stop stop-color="#000082"/>
<stop offset="0.07" stop-color="#030489"/>
<stop offset="0.17" stop-color="#0C0F9B"/>
<stop offset="0.25" stop-color="#171EB1"/>
<stop offset="0.41" stop-color="#2E4ED5"/>
<stop offset="0.53" stop-color="#3D6DEC"/>
<stop offset="0.6" stop-color="#4278F4"/>
<stop offset="0.72" stop-color="#408DF5"/>
<stop offset="1" stop-color="#3BB8F7"/>
</linearGradient>
<linearGradient id="paint1_linear_3957_2" x1="1.74396" y1="10.2091" x2="31.2955" y2="18.1263" gradientUnits="userSpaceOnUse">
<stop stop-color="#3BB8F7"/>
<stop offset="0.28" stop-color="#408DF5"/>
<stop offset="0.4" stop-color="#4278F4"/>
<stop offset="0.47" stop-color="#3D6DEC"/>
<stop offset="0.59" stop-color="#2E4ED5"/>
<stop offset="0.75" stop-color="#161CB0"/>
<stop offset="0.83" stop-color="#0C0F9B"/>
<stop offset="0.93" stop-color="#030489"/>
<stop offset="1" stop-color="#000082"/>
</linearGradient>
<linearGradient id="paint2_linear_3957_2" x1="620.797" y1="1382.85" x2="620.797" y2="867.32" gradientUnits="userSpaceOnUse">
<stop stop-color="#3BB8F7"/>
<stop offset="0.28" stop-color="#408DF5"/>
<stop offset="0.4" stop-color="#4278F4"/>
<stop offset="0.47" stop-color="#3D6DEC"/>
<stop offset="0.59" stop-color="#2E4ED5"/>
<stop offset="0.75" stop-color="#161CB0"/>
<stop offset="0.83" stop-color="#0C0F9B"/>
<stop offset="0.93" stop-color="#030489"/>
<stop offset="1" stop-color="#000082"/>
</linearGradient>
</defs>
</svg>
