<svg width="1200" height="446" viewBox="0 0 1200 446" fill="none" xmlns="http://www.w3.org/2000/svg">
<path d="M1081.57 362.854C1065.11 362.854 1050.32 359.662 1037.22 353.28C1024.45 346.896 1014.21 338.328 1006.48 327.576C999.086 316.49 995.39 303.722 995.39 289.276C995.39 270.46 1001.44 255.174 1013.53 243.414C1025.63 231.656 1042.93 223.592 1065.44 219.224L1124.41 207.13C1136.16 204.778 1144.23 201.082 1148.6 196.042C1152.96 191.002 1155.15 183.612 1155.15 173.868L1161.19 232.832L1076.53 250.974C1065.11 253.326 1056.2 257.526 1049.82 263.574C1043.77 269.622 1040.75 278.02 1040.75 288.772C1040.75 299.858 1044.95 308.762 1053.35 315.482C1062.08 322.202 1073.84 325.562 1088.62 325.562C1100.72 325.562 1111.81 322.874 1121.89 317.498C1132.3 312.122 1140.36 304.73 1146.08 295.324C1152.12 285.58 1155.15 274.492 1155.15 262.062V173.868C1155.15 161.772 1150.78 152.366 1142.04 145.646C1133.64 138.59 1122.05 135.062 1107.27 135.062C1088.46 135.062 1074.01 139.766 1063.93 149.174C1053.85 158.58 1047.97 171.852 1046.29 188.986L1001.94 182.94C1003.62 165.132 1009 149.846 1018.07 137.078C1027.14 123.976 1039.24 113.896 1054.35 106.84C1069.47 99.7861 1087.45 96.2581 1108.28 96.2581C1137.84 96.2581 1160.52 103.816 1176.31 118.936C1192.1 134.054 1200 153.542 1200 177.396V355.294H1156.16V322.538C1151.79 333.624 1142.88 343.2 1129.45 351.264C1116.34 358.99 1100.38 362.854 1081.57 362.854Z" fill="white"/>
<path d="M638.056 355.294V103.816H681.902V132.038C685.262 122.296 692.652 113.896 704.076 106.84C715.498 99.7861 728.77 96.2581 743.888 96.2581C758.672 96.2581 772.278 99.45 784.71 105.832C797.142 112.216 805.204 121.792 808.9 134.558C813.268 122.8 821.332 113.56 833.09 106.84C845.186 99.7861 858.624 96.2581 873.408 96.2581C898.942 96.2581 918.428 103.648 931.868 118.432C945.306 133.214 952.026 154.718 952.026 182.94V355.294H907.174V188.986C907.174 172.188 903.478 159.588 896.086 151.19C889.03 142.454 878.616 138.086 864.84 138.086C849.722 138.086 837.962 143.462 829.562 154.214C821.5 164.628 817.468 179.916 817.468 200.074V355.294H772.614V188.986C772.614 172.188 768.92 159.588 761.528 151.19C754.472 142.454 744.056 138.086 730.282 138.086C715.162 138.086 703.404 143.462 695.004 154.214C686.94 164.628 682.91 179.916 682.91 200.074V355.294H638.056Z" fill="white"/>
<path d="M466.554 446.008C435.308 446.008 409.942 438.786 390.454 424.338C370.968 409.892 358.536 389.732 353.162 363.862L397.006 354.288C400.702 370.75 408.598 383.516 420.692 392.588C432.788 401.996 448.074 406.7 466.554 406.7C488.728 406.7 505.358 400.988 516.446 389.564C527.868 378.478 533.58 361.846 533.58 339.672V299.858C528.54 312.29 519.134 322.37 505.358 330.096C491.92 337.824 476.8 341.688 460.002 341.688C437.828 341.688 418.34 336.648 401.542 326.568C384.742 316.154 371.64 301.706 362.232 283.228C352.826 264.75 348.122 243.414 348.122 219.224C348.122 194.698 352.826 173.196 362.232 154.718C371.64 136.238 384.574 121.96 401.038 111.88C417.836 101.464 437.492 96.2581 460.002 96.2581C476.8 96.2581 492.088 100.122 505.862 107.848C519.974 115.24 529.548 124.48 534.588 135.566V103.816H578.434V339.672C578.434 361.846 574.066 380.83 565.33 396.62C556.594 412.746 543.828 425.01 527.028 433.41C510.566 441.808 490.408 446.008 466.554 446.008ZM465.546 301.874C487.048 301.874 504.182 294.316 516.95 279.196C530.052 264.078 536.604 244.086 536.604 219.224C536.604 194.026 530.052 173.868 516.95 158.748C503.846 143.63 486.712 136.07 465.546 136.07C444.042 136.07 426.74 143.63 413.636 158.748C400.87 173.868 394.486 194.026 394.486 219.224C394.486 244.086 401.038 264.078 414.14 279.196C427.244 294.316 444.378 301.874 465.546 301.874Z" fill="white"/>
<path d="M257.606 355.294V103.816H302.458V355.294H257.606ZM257.102 71.562V0H302.962V71.562H257.102Z" fill="white"/>
<path d="M0 355.294V0H47.372V355.294H0ZM9.57599 205.114V162.276H202.594V205.114H9.57599ZM9.57599 43.34V0H221.24V43.34H9.57599Z" fill="white"/>
</svg>
