<svg width="97" height="24" viewBox="0 0 97 24" fill="none" xmlns="http://www.w3.org/2000/svg">
<path fill-rule="evenodd" clip-rule="evenodd" d="M84.1475 0.000125977H12.6403C5.06219 -0.0302538 0 5.4381 0 11.9697C0 18.5014 5.06219 23.909 12.6706 23.909H84.1778C91.7863 23.909 96.8484 18.5014 96.8484 11.9697C96.8181 5.4381 91.7256 0.000125977 84.1475 0.000125977ZM13.095 6.31911L17.945 14.1571L17.9147 6.31911H21.4006V17.59H17.945L13.095 9.75202V17.59H9.60906V6.31911H13.095ZM45.4991 8.99253V10.1166H43.6803V17.59H40.2853V10.1166H38.4363V8.99253H40.2853V7.47354H43.6803V8.99253H45.4991ZM23.3406 17.5596H26.7053V10.0862H23.3406V17.5596ZM26.7356 8.62797H23.3406V6.31911H26.7356V8.62797ZM82.5106 9.56975C79.7825 9.56975 77.5697 11.4533 77.5697 13.7622C77.5697 16.071 79.7825 17.9546 82.5106 17.9546C85.2387 17.9546 87.4516 16.071 87.4516 13.7622C87.4516 11.4533 85.2387 9.56975 82.5106 9.56975ZM82.5106 17.0128C83.1775 17.0128 83.8747 16.5267 83.8747 15.3419V13.7622V12.1824C83.8747 10.9976 83.1775 10.5115 82.5106 10.5115C81.8134 10.5115 81.1162 10.9976 81.1162 12.1824V13.7318V15.3419C81.1162 16.5267 81.8438 17.0128 82.5106 17.0128ZM73.1441 10.4508C72.5984 10.147 72.0225 9.84316 71.2344 9.7824C68.8094 9.56975 66.93 11.7267 66.93 13.7014C66.93 16.2616 68.8511 17.2173 69.2135 17.3976L69.2337 17.4077C70.3856 17.9242 71.8406 17.9546 73.1137 17.1343V17.5596H76.4481V6.31911H73.1137C73.1441 6.31911 73.1441 8.71911 73.1441 10.4508ZM73.1744 15.1292V13.7925V12.4558C73.1744 11.3014 72.3559 10.9976 71.8406 10.9976C71.295 10.9976 70.5069 11.3014 70.5069 12.4558V13.7925V15.1292C70.5069 16.2837 71.295 16.5875 71.8406 16.5875C72.3862 16.5875 73.1744 16.2837 73.1744 15.1292ZM34.6169 9.75202C33.4953 9.7824 32.5859 10.2685 31.9191 10.8761V10.0862H28.5544V17.5596H31.9191V12.6381C31.9191 12.0001 32.6162 11.271 33.5256 11.271C34.435 11.271 35.0716 12.0001 35.0716 12.6381V17.5596H38.4362V13.4887C38.4362 10.5419 35.89 9.69127 34.6169 9.75202ZM59.3519 10.8761C59.9884 10.2685 60.9281 9.7824 62.0497 9.75202C63.3228 9.69127 65.8691 10.5419 65.8691 13.4887V17.5596H62.5044V12.6381C62.5044 12.0001 61.8678 11.271 60.9584 11.271C60.0491 11.271 59.3519 12.0001 59.3519 12.6381V17.5596H55.9872V10.0862H59.3519V10.8761ZM54.9869 13.8533C54.9869 11.5444 52.7438 9.60013 50.0156 9.60013C47.2572 9.60013 45.0444 11.4837 45.0444 13.7925C45.0444 16.1014 47.2572 17.9849 50.0156 17.9849C52.2891 17.9849 54.2291 16.6786 54.805 14.9166H51.4403V15.3723C51.4403 16.7394 50.5309 17.0432 50.0459 17.0432C49.5306 17.0432 48.6213 16.7394 48.6213 15.3723V13.8229L54.9869 13.8533ZM50.0459 10.5419C49.6216 10.5419 49.1366 10.7546 48.8637 11.2103C48.6516 11.6052 48.6212 12.0305 48.6212 12.6685H51.4403C51.4403 12.0305 51.4403 11.5748 51.2281 11.2103C50.9553 10.7546 50.5006 10.5419 50.0459 10.5419ZM88.7853 7.71658C88.7853 7.35202 88.5125 7.16975 87.9669 7.16975H87.2091V9.08367H87.6638V8.2938H87.9063L88.27 9.08367H88.7853L88.3609 8.23304C88.6338 8.1419 88.7853 7.95962 88.7853 7.71658ZM87.6638 7.99H87.9063C88.1791 7.99 88.3003 7.92924 88.3003 7.71658C88.3003 7.5343 88.1488 7.44316 87.8759 7.44316H87.6638V7.99ZM87.9366 6.41025C86.9969 6.41025 86.2087 7.20013 86.2087 8.1419C86.2087 9.08367 86.9969 9.87354 87.9366 9.87354C88.8763 9.87354 89.6644 9.08367 89.6644 8.1419C89.6644 7.16975 88.8763 6.41025 87.9366 6.41025ZM86.5422 8.1419C86.5422 8.90139 87.1788 9.53937 87.9366 9.53937C88.6944 9.53937 89.3309 8.90139 89.3309 8.1419C89.3309 7.3824 88.6944 6.74443 87.9366 6.74443C87.1788 6.74443 86.5422 7.3824 86.5422 8.1419ZM12.6706 20.9925H84.1172C90.1494 20.9925 93.8172 16.952 93.8172 11.9697C93.8172 6.98747 90.1191 2.94696 84.1172 2.94696H12.6706C6.66875 2.97734 2.97063 6.98747 2.97063 11.9697C2.97063 16.952 6.63844 21.0229 12.6706 20.9925Z" fill="white"/>
</svg>
