<svg width="78" height="29" viewBox="0 0 78 29" fill="none" xmlns="http://www.w3.org/2000/svg">
<g clip-path="url(#clip0_741_4032)">
<path d="M0.000488282 -0.000256242C2.3935 -0.000256249 4.78652 -0.000256257 7.25205 -0.000256264C7.27216 7.20753 7.29227 14.4153 7.31299 21.8415C7.81572 20.1859 8.31846 18.5304 8.83643 16.8246C9.32393 15.2645 9.32393 15.2645 9.5522 14.5382C9.87438 13.5097 10.185 12.4776 10.4974 11.446C11.0003 9.78545 11.5049 8.12538 12.0167 6.46749C12.0769 6.27237 12.137 6.07722 12.1969 5.88203C12.2671 5.65357 12.3376 5.4252 12.4083 5.1969C12.4339 5.11442 12.4593 5.03191 12.4846 4.94936C12.6198 4.50853 12.7641 4.07203 12.9232 3.63935C12.9377 3.5996 12.9521 3.55984 12.967 3.51889C13.4862 2.13248 14.6479 1.04344 15.9661 0.428014C19.2149 -0.932305 24.4999 -0.000256316 26.813 -0.000256324C26.8331 7.24791 26.8532 14.4961 26.8739 21.9639C27.8381 18.8708 27.8381 18.8708 28.7841 15.7723C28.9271 15.2986 29.0707 14.8252 29.2143 14.3518C29.2306 14.2981 29.2469 14.2445 29.2637 14.1892C29.6621 12.8764 30.0673 11.5658 30.473 10.2553C30.5085 10.1408 30.5439 10.0263 30.5794 9.91182C30.6993 9.52458 30.8192 9.13735 30.9391 8.75012C31.2166 7.85398 31.4932 6.95754 31.768 6.06053C31.7951 5.97203 31.7951 5.97203 31.8228 5.88174C32.0643 5.09305 32.3044 4.30391 32.5442 3.51467C32.5909 3.3608 32.6377 3.20693 32.6844 3.05307C32.7156 2.95058 32.7467 2.84809 32.7779 2.7456C32.7933 2.69486 32.8087 2.64412 32.8246 2.59184C32.9167 2.28889 33.0086 1.98591 33.1005 1.6829C33.1575 1.49493 33.2146 1.30699 33.2717 1.11905C33.2985 1.03073 33.3253 0.9424 33.352 0.854055C33.3887 0.732634 33.4256 0.611253 33.4625 0.489882C33.4937 0.3873 33.4937 0.3873 33.5254 0.282646C33.5771 0.122107 33.5771 0.122107 33.638 -0.000256344C36.1517 -0.000256352 38.6653 -0.000256359 41.2552 -0.000256367C41.1784 0.346673 41.1015 0.673815 40.999 1.01128C40.986 1.0541 40.9731 1.09691 40.9597 1.14102C40.917 1.28205 40.874 1.42299 40.831 1.56393C40.8004 1.66481 40.7697 1.76568 40.7391 1.86657C40.6569 2.13753 40.5743 2.4084 40.4917 2.67925C40.4398 2.84955 40.388 3.01988 40.3362 3.19021C39.8843 4.67578 39.4276 6.15973 38.964 7.64166C38.5204 9.05991 38.0866 10.481 37.6561 11.9034C37.0731 13.8291 36.4824 15.7523 35.887 17.6742C35.8017 17.9496 35.7164 18.225 35.6311 18.5004C35.6143 18.5547 35.5974 18.6091 35.5801 18.665C35.32 19.5051 35.0615 20.3457 34.8041 21.1867C34.7872 21.2419 34.7703 21.2971 34.7529 21.354C34.5911 21.8828 34.4293 22.4117 34.268 22.9406C34.2096 23.1318 34.1511 23.3229 34.0927 23.5141C34.066 23.6013 34.0394 23.6886 34.0129 23.7758C33.8794 24.2141 33.7436 24.6515 33.6017 25.0871C33.5783 25.159 33.555 25.2309 33.5309 25.305C33.0145 26.7193 31.8947 27.8586 30.553 28.5026C27.2274 29.9046 22.3229 28.9997 19.5614 28.9997C19.5413 21.792 19.5212 14.5842 19.5005 7.15797C18.6053 10.0617 17.7106 12.9654 16.8209 15.8708C16.567 16.6999 16.3126 17.5289 16.0578 18.3578C16.0413 18.4113 16.0248 18.4649 16.0079 18.5201C15.8441 19.0529 15.6802 19.5857 15.5161 20.1184C15.4376 20.373 15.3592 20.6276 15.2808 20.8822C15.2656 20.9314 15.2505 20.9807 15.2349 21.0314C15.0562 21.612 14.8789 22.193 14.7044 22.7749C14.616 23.0699 14.5271 23.3647 14.4382 23.6595C14.3806 23.8516 14.3238 24.0439 14.2671 24.2362C13.7202 26.0655 12.8051 27.4949 11.0944 28.4243C7.85959 29.9771 2.33685 28.9997 0.00048837 28.9997C0.000488341 19.4297 0.000488312 9.85974 0.000488282 -0.000256242Z" fill="#161616"/>
<path d="M78.006 -0.000114687C78.006 9.56989 78.006 19.1399 78.006 28.9999C75.613 28.9999 73.2199 28.9999 70.7544 28.9999C70.6137 28.5355 70.4729 28.0712 70.3279 27.5927C70.1735 27.2187 70.0181 26.8536 69.8404 26.4914C69.8208 26.4511 69.8013 26.4108 69.7811 26.3692C69.3357 25.4599 68.7414 24.6773 68.0732 23.9218C68.0378 23.8818 68.0025 23.8419 67.9661 23.8007C67.4188 23.2194 66.7279 22.7619 66.0622 22.3311C65.643 23.546 65.2788 24.7782 64.9073 26.0084C64.7688 26.4666 64.6301 26.9247 64.4914 27.3828C64.4433 27.5416 64.3953 27.7004 64.3474 27.8593C64.318 27.9565 64.2886 28.0537 64.2591 28.151C64.246 28.1946 64.2329 28.2381 64.2193 28.283C64.1466 28.5234 64.0695 28.7614 63.9904 28.9999C61.4767 28.9999 58.963 28.9999 56.3732 28.9999C56.4177 28.6869 56.4735 28.4118 56.5671 28.1143C56.5807 28.0704 56.5942 28.0266 56.6081 27.9813C56.653 27.8359 56.6984 27.6907 56.7438 27.5454C56.7759 27.4418 56.808 27.3381 56.84 27.2345C56.9085 27.0132 56.9772 26.7919 57.046 26.5707C57.1551 26.22 57.2638 25.8692 57.3724 25.5183C57.4828 25.1617 57.5933 24.805 57.7038 24.4484C58.0032 23.4828 58.3001 22.5166 58.5958 21.5499C58.7059 21.1898 58.8161 20.8298 58.9264 20.4699C58.9387 20.4296 58.951 20.3893 58.9637 20.3478C59.1744 19.6598 59.3859 18.9721 59.5976 18.2845C59.7251 17.8706 59.8525 17.4567 59.9799 17.0427C59.9959 16.9909 60.0118 16.939 60.0283 16.8856C60.4995 15.3547 60.9669 13.8226 61.4312 12.2896C61.9599 10.5442 62.4925 8.80011 63.0328 7.05831C63.0792 6.90851 63.1256 6.7587 63.172 6.60888C63.4487 5.71548 63.7264 4.82239 64.0177 3.93366C64.0365 3.8757 64.0553 3.81773 64.0747 3.75802C64.5455 2.33855 65.6045 1.23988 66.9094 0.549084C70.0979 -1.05041 76.0202 -0.000114681 78.006 -0.000114687ZM70.6935 6.97457C69.8015 9.85005 68.9142 12.7269 68.0423 15.6085C67.9812 15.8104 67.9201 16.0123 67.8589 16.2142C67.8443 16.2625 67.8296 16.3109 67.8145 16.3608C67.6292 16.9728 67.442 17.5841 67.2515 18.1944C67.2317 18.2578 67.212 18.3211 67.1917 18.3864C67.1055 18.6628 67.0188 18.9391 66.9312 19.2151C66.9029 19.3055 66.8746 19.3958 66.8463 19.4862C66.8225 19.5613 66.7987 19.6363 66.7742 19.7137C66.7141 19.8799 66.7141 19.8799 66.7935 20.0062C66.9167 20.0443 66.9167 20.0443 67.0679 20.0679C67.1262 20.0787 67.1845 20.0896 67.2446 20.1008C67.3081 20.1125 67.3717 20.1242 67.4371 20.1362C68.4935 20.3443 69.5087 20.6686 70.4721 21.1534C70.6213 21.2386 70.6213 21.2386 70.7544 21.2298C70.7544 16.5256 70.7544 11.8214 70.7544 6.97457C70.7343 6.97457 70.7142 6.97457 70.6935 6.97457Z" fill="#161616"/>
<path d="M43.5136 2.2792e-07C49.9285 2.08461e-07 56.3434 1.89002e-07 62.9527 1.68953e-07C62.873 0.399707 62.7901 0.774698 62.6688 1.16018C62.653 1.2112 62.6373 1.26222 62.621 1.31479C62.5694 1.48142 62.5174 1.64792 62.4654 1.81441C62.4291 1.9314 62.3928 2.0484 62.3566 2.16541C62.2614 2.47222 62.1659 2.77893 62.0704 3.0856C61.9546 3.45733 61.8392 3.8292 61.7238 4.20104C61.634 4.49054 61.544 4.78002 61.4539 5.06943C61.4211 5.17503 61.3882 5.28063 61.3553 5.38624C61.3323 5.46023 61.3323 5.46023 61.3088 5.53573C61.2144 5.83919 61.1226 6.14324 61.0355 6.44888C61.0027 6.54641 61.0027 6.54641 60.9417 6.60759C60.7544 6.61343 60.5684 6.61527 60.381 6.61454C60.2927 6.61455 60.2927 6.61455 60.2027 6.61457C60.0072 6.61452 59.8116 6.61405 59.6161 6.61357C59.4809 6.61345 59.3458 6.61337 59.2106 6.61331C58.854 6.61307 58.4975 6.61247 58.141 6.61179C57.7774 6.61117 57.4139 6.61089 57.0504 6.61058C56.3366 6.60992 55.6227 6.60888 54.9089 6.60759C54.8931 6.66722 54.8931 6.66722 54.877 6.72804C54.759 7.16906 54.6296 7.60576 54.4952 8.04201C54.4726 8.11578 54.4499 8.18954 54.4266 8.26555C54.3645 8.4682 54.3022 8.67081 54.2398 8.87341C54.1727 9.09164 54.1058 9.30991 54.0388 9.52817C53.8772 10.0545 53.7154 10.5807 53.5536 11.1069C53.4759 11.3596 53.3982 11.6124 53.3206 11.8651C53.0799 12.6479 52.8393 13.4306 52.5986 14.2134C52.1776 15.5822 51.7574 16.9513 51.3381 18.3206C51.0232 19.3488 50.7078 20.3768 50.3917 21.4047C50.3756 21.4568 50.3596 21.5089 50.3431 21.5626C50.1963 22.0401 50.0494 22.5175 49.9025 22.9949C49.5777 24.0503 49.2533 25.1058 48.932 26.1622C48.8903 26.2994 48.8486 26.4367 48.8068 26.5739C48.6908 26.9553 48.5748 27.3366 48.4594 27.7181C48.4029 27.9045 48.3462 28.0909 48.2896 28.2773C48.2694 28.3442 48.2492 28.4111 48.2285 28.48C48.2101 28.5402 48.1918 28.6003 48.1729 28.6623C48.1571 28.7146 48.1413 28.7669 48.1249 28.8208C48.0839 28.9388 48.0839 28.9388 48.023 29C47.9274 29.0059 47.8315 29.0075 47.7357 29.0074C47.6425 29.0075 47.6425 29.0075 47.5475 29.0076C47.4787 29.0074 47.41 29.0072 47.3392 29.0069C47.2673 29.0069 47.1953 29.007 47.1212 29.007C46.9235 29.0069 46.7257 29.0066 46.5279 29.0062C46.3214 29.0058 46.1149 29.0058 45.9084 29.0057C45.5171 29.0055 45.1259 29.005 44.7346 29.0044C44.2892 29.0037 43.8439 29.0034 43.3985 29.0031C42.4822 29.0024 41.5659 29.0014 40.6495 29C41.1001 27.4826 41.558 25.9676 42.0259 24.4555C42.1275 24.1269 42.229 23.7982 42.3304 23.4696C42.3657 23.3552 42.401 23.2409 42.4363 23.1266C42.4626 23.0412 42.4626 23.0412 42.4895 22.9541C42.5429 22.7812 42.5963 22.6084 42.6496 22.4355C43.0106 21.2665 43.371 20.0974 43.7307 18.928C43.7462 18.8774 43.7618 18.8269 43.7778 18.7747C44.2952 17.0932 44.8071 15.4101 45.3172 13.7264C45.7594 12.2671 46.205 10.809 46.6583 9.35319C46.6969 9.22899 46.7356 9.10479 46.7742 8.98058C46.8453 8.75204 46.9166 8.52356 46.988 8.2951C47.0082 8.23013 47.0285 8.16517 47.0493 8.09823C47.2056 7.59918 47.3706 7.10412 47.5355 6.60759C45.5648 6.60759 43.594 6.60759 41.5636 6.60759C41.6096 6.28445 41.6703 5.99693 41.7655 5.68862C41.7798 5.64149 41.7941 5.59436 41.8088 5.54581C41.8558 5.39075 41.9034 5.23584 41.9509 5.08093C41.9841 4.97185 42.0173 4.86277 42.0505 4.75368C42.1379 4.46638 42.2257 4.1792 42.3136 3.89204C42.3843 3.66078 42.4548 3.42944 42.5252 3.19809C42.6104 2.91815 42.6958 2.63825 42.7812 2.35835C42.797 2.30655 42.8128 2.25474 42.829 2.20137C42.8752 2.05028 42.9214 1.89921 42.9676 1.74815C42.9804 1.70609 42.9933 1.66403 43.0065 1.6207C43.1723 1.07943 43.3437 0.540047 43.5136 2.2792e-07Z" fill="#161616"/>
</g>
<defs>
<clipPath id="clip0_741_4032">
<rect width="78" height="29" fill="white"/>
</clipPath>
</defs>
</svg>
